M48
; DRILL file {KiCad (7.0.0-0)} date Friday, 24 March 2023 at 13:01:56
; FORMAT={-:-/ absolute / inch / decimal}
; #@! TF.CreationDate,2023-03-24T13:01:56+01:00
; #@! TF.GenerationSoftware,Kicad,Pcbnew,(7.0.0-0)
; #@! TF.FileFunction,Plated,1,2,PTH
FMAT,2
INCH
; #@! TA.AperFunction,Plated,PTH,ViaDrill
T1C0.0157
; #@! TA.AperFunction,Plated,PTH,ComponentDrill
T2C0.0315
; #@! TA.AperFunction,Plated,PTH,ComponentDrill
T3C0.0335
; #@! TA.AperFunction,Plated,PTH,ComponentDrill
T4C0.0394
; #@! TA.AperFunction,Plated,PTH,ComponentDrill
T5C0.0748
; #@! TA.AperFunction,Plated,PTH,ComponentDrill
T6C0.1260
%
G90
G05
T1
X1.2309Y-3.1565
X1.365Y-4.755
X1.415Y-4.88
X1.48Y-4.7135
X1.635Y-4.88
X1.6779Y-4.5479
X1.9002Y-3.5108
X2.0669Y-4.5866
X2.3333Y-3.5108
X2.5548Y-4.7948
X2.6023Y-4.7473
X2.9246Y-4.3354
X3.3175Y-3.0778
X3.3766Y-4.3376
X3.3766Y-4.4951
X3.5724Y-3.6216
X3.5728Y-3.6614
X3.5812Y-4.2961
X3.7101Y-3.4838
X3.7205Y-4.6258
X3.75Y-3.4744
X3.7992Y-4.4535
X3.7992Y-4.5323
X3.8386Y-4.5717
X3.8583Y-4.4752
X3.9081Y-3.5896
X4.1049Y-4.2982
X4.3805Y-3.5896
X4.4986Y-3.8652
X4.4986Y-4.5738
X4.5271Y-4.2759
X4.6809Y-4.7285
X4.685Y-4.0598
X4.7239Y-4.1578
X4.7741Y-4.1489
X4.7835Y-4.7685
X5.1378Y-4.6238
X5.6797Y-4.5344
X5.7978Y-3.1171
X5.8372Y-3.8258
X6.7421Y-3.6122
X6.7427Y-4.5344
X6.8245Y-4.0257
X6.8644Y-4.0262
X6.9412Y-4.029
X6.9882Y-3.9417
X7.1654Y-4.0205
X7.185Y-3.9811
X7.2939Y-3.5502
X7.2939Y-4.6919
X7.347Y-4.4449
X7.8497Y-4.1993
X7.8844Y-4.5738
X8.06Y-4.0904
X8.1102Y-4.6898
X8.1107Y-4.2956
X8.2087Y-4.2961
X8.2087Y-4.6701
X8.2388Y-3.1171
X8.2388Y-3.7864
X8.5931Y-4.4557
X8.6024Y-4.3354
X8.6417Y-4.1189
X8.7008Y-3.563
X8.7008Y-3.7464
X8.7008Y-4.4535
X8.7293Y-3.6024
X8.7293Y-3.7797
X8.9081Y-4.5344
X8.9567Y-4.2882
X9.223Y-3.5108
X9.4199Y-3.7864
X9.6561Y-3.5108
X9.7244Y-4.5079
X9.9213Y-4.1043
X9.9606Y-4.5177
X10.2067Y-4.311
X10.3839Y-4.6654
X10.4041Y-3.1171
X10.4102Y-4.2945
X10.4134Y-3.9469
X10.4724Y-4.498
T2
X6.9803Y-4.252
X6.9803Y-4.552
X7.0803Y-4.252
X7.0803Y-4.552
X7.1803Y-4.252
X7.1803Y-4.552
X7.2803Y-4.252
X7.2803Y-4.552
X7.3803Y-4.252
X7.3803Y-4.552
X7.4803Y-4.252
X7.4803Y-4.552
X7.5803Y-4.252
X7.5803Y-4.552
X7.6803Y-4.252
X7.6803Y-4.552
T3
X1.378Y-2.973
X1.378Y-3.8785
X1.6929Y-2.973
X1.6929Y-3.8785
X2.5984Y-2.973
X2.5984Y-3.8785
X2.9134Y-2.973
X2.9134Y-3.8785
X3.8189Y-2.973
X3.8189Y-3.8785
X4.1339Y-2.973
X4.1339Y-3.8785
X5.0394Y-2.973
X5.0394Y-3.8785
X5.3543Y-2.973
X5.3543Y-3.8785
X6.2598Y-2.973
X6.2598Y-3.8785
X6.5748Y-2.973
X6.5748Y-3.8785
X7.4803Y-2.973
X7.4803Y-3.8785
X7.7953Y-2.973
X7.7953Y-3.8785
X8.7008Y-2.973
X8.7008Y-3.8785
X9.0157Y-2.973
X9.0157Y-3.8785
X9.9213Y-2.973
X9.9213Y-3.8785
X10.2362Y-2.973
X10.2362Y-3.8785
T4
X1.7844Y-4.1942
X1.7844Y-4.7942
X1.8844Y-4.1942
X1.8844Y-4.7942
X1.9844Y-4.1942
X1.9844Y-4.7942
X2.0844Y-4.1942
X2.0844Y-4.7942
X2.1844Y-4.1942
X2.1844Y-4.7942
X2.2844Y-4.1942
X2.2844Y-4.7942
X2.3844Y-4.1942
X2.3844Y-4.7942
X5.0724Y-4.1882
X5.0724Y-4.7882
X5.1724Y-4.1882
X5.1724Y-4.7882
X5.2724Y-4.1882
X5.2724Y-4.7882
X5.3724Y-4.1882
X5.3724Y-4.7882
X5.4724Y-4.1882
X5.4724Y-4.7882
X5.5724Y-4.1882
X5.5724Y-4.7882
X5.6724Y-4.1882
X5.6724Y-4.7882
X5.7724Y-4.1882
X5.7724Y-4.7882
X5.8724Y-4.1882
X5.8724Y-4.7882
X5.9724Y-4.1882
X5.9724Y-4.7882
X6.0724Y-4.1882
X6.0724Y-4.7882
X6.1724Y-4.1882
X6.1724Y-4.7882
X6.2724Y-4.1882
X6.2724Y-4.7882
X6.3724Y-4.1882
X6.3724Y-4.7882
X6.4724Y-4.1882
X6.4724Y-4.7882
X9.7136Y-4.7244
X9.8136Y-4.7244
T5
X1.225Y-4.06
X1.225Y-4.5797
T6
X1.0262Y-2.8809
X1.0262Y-4.7707
X10.5537Y-2.8809
X10.5537Y-4.7707
T0
M30
