%TF.GenerationSoftware,KiCad,Pcbnew,(7.0.0-0)*%
%TF.CreationDate,2023-03-24T13:01:54+01:00*%
%TF.ProjectId,klock_pcb,6b6c6f63-6b5f-4706-9362-2e6b69636164,rev?*%
%TF.SameCoordinates,Original*%
%TF.FileFunction,Legend,Top*%
%TF.FilePolarity,Positive*%
%FSLAX46Y46*%
G04 Gerber Fmt 4.6, Leading zero omitted, Abs format (unit mm)*
G04 Created by KiCad (PCBNEW (7.0.0-0)) date 2023-03-24 13:01:54*
%MOMM*%
%LPD*%
G01*
G04 APERTURE LIST*
%ADD10C,0.300000*%
%ADD11C,0.150000*%
%ADD12C,0.127000*%
%ADD13C,0.120000*%
G04 APERTURE END LIST*
D10*
X209714285Y-122030714D02*
X209642857Y-122102142D01*
X209642857Y-122102142D02*
X209428571Y-122173571D01*
X209428571Y-122173571D02*
X209285714Y-122173571D01*
X209285714Y-122173571D02*
X209071428Y-122102142D01*
X209071428Y-122102142D02*
X208928571Y-121959285D01*
X208928571Y-121959285D02*
X208857142Y-121816428D01*
X208857142Y-121816428D02*
X208785714Y-121530714D01*
X208785714Y-121530714D02*
X208785714Y-121316428D01*
X208785714Y-121316428D02*
X208857142Y-121030714D01*
X208857142Y-121030714D02*
X208928571Y-120887857D01*
X208928571Y-120887857D02*
X209071428Y-120745000D01*
X209071428Y-120745000D02*
X209285714Y-120673571D01*
X209285714Y-120673571D02*
X209428571Y-120673571D01*
X209428571Y-120673571D02*
X209642857Y-120745000D01*
X209642857Y-120745000D02*
X209714285Y-120816428D01*
X210571428Y-122173571D02*
X210428571Y-122102142D01*
X210428571Y-122102142D02*
X210357142Y-121959285D01*
X210357142Y-121959285D02*
X210357142Y-120673571D01*
X211357142Y-122173571D02*
X211214285Y-122102142D01*
X211214285Y-122102142D02*
X211142856Y-122030714D01*
X211142856Y-122030714D02*
X211071428Y-121887857D01*
X211071428Y-121887857D02*
X211071428Y-121459285D01*
X211071428Y-121459285D02*
X211142856Y-121316428D01*
X211142856Y-121316428D02*
X211214285Y-121245000D01*
X211214285Y-121245000D02*
X211357142Y-121173571D01*
X211357142Y-121173571D02*
X211571428Y-121173571D01*
X211571428Y-121173571D02*
X211714285Y-121245000D01*
X211714285Y-121245000D02*
X211785714Y-121316428D01*
X211785714Y-121316428D02*
X211857142Y-121459285D01*
X211857142Y-121459285D02*
X211857142Y-121887857D01*
X211857142Y-121887857D02*
X211785714Y-122030714D01*
X211785714Y-122030714D02*
X211714285Y-122102142D01*
X211714285Y-122102142D02*
X211571428Y-122173571D01*
X211571428Y-122173571D02*
X211357142Y-122173571D01*
X213142857Y-122102142D02*
X212999999Y-122173571D01*
X212999999Y-122173571D02*
X212714285Y-122173571D01*
X212714285Y-122173571D02*
X212571428Y-122102142D01*
X212571428Y-122102142D02*
X212499999Y-122030714D01*
X212499999Y-122030714D02*
X212428571Y-121887857D01*
X212428571Y-121887857D02*
X212428571Y-121459285D01*
X212428571Y-121459285D02*
X212499999Y-121316428D01*
X212499999Y-121316428D02*
X212571428Y-121245000D01*
X212571428Y-121245000D02*
X212714285Y-121173571D01*
X212714285Y-121173571D02*
X212999999Y-121173571D01*
X212999999Y-121173571D02*
X213142857Y-121245000D01*
X213785713Y-122173571D02*
X213785713Y-120673571D01*
X213928571Y-121602142D02*
X214357142Y-122173571D01*
X214357142Y-121173571D02*
X213785713Y-121745000D01*
X215857142Y-122030714D02*
X215785714Y-122102142D01*
X215785714Y-122102142D02*
X215571428Y-122173571D01*
X215571428Y-122173571D02*
X215428571Y-122173571D01*
X215428571Y-122173571D02*
X215214285Y-122102142D01*
X215214285Y-122102142D02*
X215071428Y-121959285D01*
X215071428Y-121959285D02*
X214999999Y-121816428D01*
X214999999Y-121816428D02*
X214928571Y-121530714D01*
X214928571Y-121530714D02*
X214928571Y-121316428D01*
X214928571Y-121316428D02*
X214999999Y-121030714D01*
X214999999Y-121030714D02*
X215071428Y-120887857D01*
X215071428Y-120887857D02*
X215214285Y-120745000D01*
X215214285Y-120745000D02*
X215428571Y-120673571D01*
X215428571Y-120673571D02*
X215571428Y-120673571D01*
X215571428Y-120673571D02*
X215785714Y-120745000D01*
X215785714Y-120745000D02*
X215857142Y-120816428D01*
X216714285Y-122173571D02*
X216571428Y-122102142D01*
X216571428Y-122102142D02*
X216499999Y-121959285D01*
X216499999Y-121959285D02*
X216499999Y-120673571D01*
X217499999Y-122173571D02*
X217357142Y-122102142D01*
X217357142Y-122102142D02*
X217285713Y-122030714D01*
X217285713Y-122030714D02*
X217214285Y-121887857D01*
X217214285Y-121887857D02*
X217214285Y-121459285D01*
X217214285Y-121459285D02*
X217285713Y-121316428D01*
X217285713Y-121316428D02*
X217357142Y-121245000D01*
X217357142Y-121245000D02*
X217499999Y-121173571D01*
X217499999Y-121173571D02*
X217714285Y-121173571D01*
X217714285Y-121173571D02*
X217857142Y-121245000D01*
X217857142Y-121245000D02*
X217928571Y-121316428D01*
X217928571Y-121316428D02*
X217999999Y-121459285D01*
X217999999Y-121459285D02*
X217999999Y-121887857D01*
X217999999Y-121887857D02*
X217928571Y-122030714D01*
X217928571Y-122030714D02*
X217857142Y-122102142D01*
X217857142Y-122102142D02*
X217714285Y-122173571D01*
X217714285Y-122173571D02*
X217499999Y-122173571D01*
X219285714Y-122102142D02*
X219142856Y-122173571D01*
X219142856Y-122173571D02*
X218857142Y-122173571D01*
X218857142Y-122173571D02*
X218714285Y-122102142D01*
X218714285Y-122102142D02*
X218642856Y-122030714D01*
X218642856Y-122030714D02*
X218571428Y-121887857D01*
X218571428Y-121887857D02*
X218571428Y-121459285D01*
X218571428Y-121459285D02*
X218642856Y-121316428D01*
X218642856Y-121316428D02*
X218714285Y-121245000D01*
X218714285Y-121245000D02*
X218857142Y-121173571D01*
X218857142Y-121173571D02*
X219142856Y-121173571D01*
X219142856Y-121173571D02*
X219285714Y-121245000D01*
X219928570Y-122173571D02*
X219928570Y-120673571D01*
X220071428Y-121602142D02*
X220499999Y-122173571D01*
X220499999Y-121173571D02*
X219928570Y-121745000D01*
X222042856Y-122173571D02*
X222042856Y-120673571D01*
X222042856Y-121245000D02*
X222185714Y-121173571D01*
X222185714Y-121173571D02*
X222471428Y-121173571D01*
X222471428Y-121173571D02*
X222614285Y-121245000D01*
X222614285Y-121245000D02*
X222685714Y-121316428D01*
X222685714Y-121316428D02*
X222757142Y-121459285D01*
X222757142Y-121459285D02*
X222757142Y-121887857D01*
X222757142Y-121887857D02*
X222685714Y-122030714D01*
X222685714Y-122030714D02*
X222614285Y-122102142D01*
X222614285Y-122102142D02*
X222471428Y-122173571D01*
X222471428Y-122173571D02*
X222185714Y-122173571D01*
X222185714Y-122173571D02*
X222042856Y-122102142D01*
X223257142Y-121173571D02*
X223614285Y-122173571D01*
X223971428Y-121173571D02*
X223614285Y-122173571D01*
X223614285Y-122173571D02*
X223471428Y-122530714D01*
X223471428Y-122530714D02*
X223399999Y-122602142D01*
X223399999Y-122602142D02*
X223257142Y-122673571D01*
X225371428Y-121745000D02*
X226085714Y-121745000D01*
X225228571Y-122173571D02*
X225728571Y-120673571D01*
X225728571Y-120673571D02*
X226228571Y-122173571D01*
X227371428Y-122173571D02*
X227371428Y-120673571D01*
X227371428Y-122102142D02*
X227228570Y-122173571D01*
X227228570Y-122173571D02*
X226942856Y-122173571D01*
X226942856Y-122173571D02*
X226799999Y-122102142D01*
X226799999Y-122102142D02*
X226728570Y-122030714D01*
X226728570Y-122030714D02*
X226657142Y-121887857D01*
X226657142Y-121887857D02*
X226657142Y-121459285D01*
X226657142Y-121459285D02*
X226728570Y-121316428D01*
X226728570Y-121316428D02*
X226799999Y-121245000D01*
X226799999Y-121245000D02*
X226942856Y-121173571D01*
X226942856Y-121173571D02*
X227228570Y-121173571D01*
X227228570Y-121173571D02*
X227371428Y-121245000D01*
X228085713Y-122173571D02*
X228085713Y-121173571D01*
X228085713Y-121459285D02*
X228157142Y-121316428D01*
X228157142Y-121316428D02*
X228228571Y-121245000D01*
X228228571Y-121245000D02*
X228371428Y-121173571D01*
X228371428Y-121173571D02*
X228514285Y-121173571D01*
X229014284Y-122173571D02*
X229014284Y-121173571D01*
X229014284Y-120673571D02*
X228942856Y-120745000D01*
X228942856Y-120745000D02*
X229014284Y-120816428D01*
X229014284Y-120816428D02*
X229085713Y-120745000D01*
X229085713Y-120745000D02*
X229014284Y-120673571D01*
X229014284Y-120673571D02*
X229014284Y-120816428D01*
X230371428Y-122173571D02*
X230371428Y-121387857D01*
X230371428Y-121387857D02*
X230299999Y-121245000D01*
X230299999Y-121245000D02*
X230157142Y-121173571D01*
X230157142Y-121173571D02*
X229871428Y-121173571D01*
X229871428Y-121173571D02*
X229728570Y-121245000D01*
X230371428Y-122102142D02*
X230228570Y-122173571D01*
X230228570Y-122173571D02*
X229871428Y-122173571D01*
X229871428Y-122173571D02*
X229728570Y-122102142D01*
X229728570Y-122102142D02*
X229657142Y-121959285D01*
X229657142Y-121959285D02*
X229657142Y-121816428D01*
X229657142Y-121816428D02*
X229728570Y-121673571D01*
X229728570Y-121673571D02*
X229871428Y-121602142D01*
X229871428Y-121602142D02*
X230228570Y-121602142D01*
X230228570Y-121602142D02*
X230371428Y-121530714D01*
X231085713Y-121173571D02*
X231085713Y-122173571D01*
X231085713Y-121316428D02*
X231157142Y-121245000D01*
X231157142Y-121245000D02*
X231299999Y-121173571D01*
X231299999Y-121173571D02*
X231514285Y-121173571D01*
X231514285Y-121173571D02*
X231657142Y-121245000D01*
X231657142Y-121245000D02*
X231728571Y-121387857D01*
X231728571Y-121387857D02*
X231728571Y-122173571D01*
X233271428Y-122102142D02*
X233485714Y-122173571D01*
X233485714Y-122173571D02*
X233842856Y-122173571D01*
X233842856Y-122173571D02*
X233985714Y-122102142D01*
X233985714Y-122102142D02*
X234057142Y-122030714D01*
X234057142Y-122030714D02*
X234128571Y-121887857D01*
X234128571Y-121887857D02*
X234128571Y-121745000D01*
X234128571Y-121745000D02*
X234057142Y-121602142D01*
X234057142Y-121602142D02*
X233985714Y-121530714D01*
X233985714Y-121530714D02*
X233842856Y-121459285D01*
X233842856Y-121459285D02*
X233557142Y-121387857D01*
X233557142Y-121387857D02*
X233414285Y-121316428D01*
X233414285Y-121316428D02*
X233342856Y-121245000D01*
X233342856Y-121245000D02*
X233271428Y-121102142D01*
X233271428Y-121102142D02*
X233271428Y-120959285D01*
X233271428Y-120959285D02*
X233342856Y-120816428D01*
X233342856Y-120816428D02*
X233414285Y-120745000D01*
X233414285Y-120745000D02*
X233557142Y-120673571D01*
X233557142Y-120673571D02*
X233914285Y-120673571D01*
X233914285Y-120673571D02*
X234128571Y-120745000D01*
X235414285Y-122173571D02*
X235414285Y-121387857D01*
X235414285Y-121387857D02*
X235342856Y-121245000D01*
X235342856Y-121245000D02*
X235199999Y-121173571D01*
X235199999Y-121173571D02*
X234914285Y-121173571D01*
X234914285Y-121173571D02*
X234771427Y-121245000D01*
X235414285Y-122102142D02*
X235271427Y-122173571D01*
X235271427Y-122173571D02*
X234914285Y-122173571D01*
X234914285Y-122173571D02*
X234771427Y-122102142D01*
X234771427Y-122102142D02*
X234699999Y-121959285D01*
X234699999Y-121959285D02*
X234699999Y-121816428D01*
X234699999Y-121816428D02*
X234771427Y-121673571D01*
X234771427Y-121673571D02*
X234914285Y-121602142D01*
X234914285Y-121602142D02*
X235271427Y-121602142D01*
X235271427Y-121602142D02*
X235414285Y-121530714D01*
X236342856Y-122173571D02*
X236199999Y-122102142D01*
X236199999Y-122102142D02*
X236128570Y-121959285D01*
X236128570Y-121959285D02*
X236128570Y-120673571D01*
X237557142Y-122173571D02*
X237557142Y-121387857D01*
X237557142Y-121387857D02*
X237485713Y-121245000D01*
X237485713Y-121245000D02*
X237342856Y-121173571D01*
X237342856Y-121173571D02*
X237057142Y-121173571D01*
X237057142Y-121173571D02*
X236914284Y-121245000D01*
X237557142Y-122102142D02*
X237414284Y-122173571D01*
X237414284Y-122173571D02*
X237057142Y-122173571D01*
X237057142Y-122173571D02*
X236914284Y-122102142D01*
X236914284Y-122102142D02*
X236842856Y-121959285D01*
X236842856Y-121959285D02*
X236842856Y-121816428D01*
X236842856Y-121816428D02*
X236914284Y-121673571D01*
X236914284Y-121673571D02*
X237057142Y-121602142D01*
X237057142Y-121602142D02*
X237414284Y-121602142D01*
X237414284Y-121602142D02*
X237557142Y-121530714D01*
X238271427Y-122173571D02*
X238271427Y-121173571D01*
X238271427Y-121316428D02*
X238342856Y-121245000D01*
X238342856Y-121245000D02*
X238485713Y-121173571D01*
X238485713Y-121173571D02*
X238699999Y-121173571D01*
X238699999Y-121173571D02*
X238842856Y-121245000D01*
X238842856Y-121245000D02*
X238914285Y-121387857D01*
X238914285Y-121387857D02*
X238914285Y-122173571D01*
X238914285Y-121387857D02*
X238985713Y-121245000D01*
X238985713Y-121245000D02*
X239128570Y-121173571D01*
X239128570Y-121173571D02*
X239342856Y-121173571D01*
X239342856Y-121173571D02*
X239485713Y-121245000D01*
X239485713Y-121245000D02*
X239557142Y-121387857D01*
X239557142Y-121387857D02*
X239557142Y-122173571D01*
X240485713Y-122173571D02*
X240342856Y-122102142D01*
X240342856Y-122102142D02*
X240271427Y-122030714D01*
X240271427Y-122030714D02*
X240199999Y-121887857D01*
X240199999Y-121887857D02*
X240199999Y-121459285D01*
X240199999Y-121459285D02*
X240271427Y-121316428D01*
X240271427Y-121316428D02*
X240342856Y-121245000D01*
X240342856Y-121245000D02*
X240485713Y-121173571D01*
X240485713Y-121173571D02*
X240699999Y-121173571D01*
X240699999Y-121173571D02*
X240842856Y-121245000D01*
X240842856Y-121245000D02*
X240914285Y-121316428D01*
X240914285Y-121316428D02*
X240985713Y-121459285D01*
X240985713Y-121459285D02*
X240985713Y-121887857D01*
X240985713Y-121887857D02*
X240914285Y-122030714D01*
X240914285Y-122030714D02*
X240842856Y-122102142D01*
X240842856Y-122102142D02*
X240699999Y-122173571D01*
X240699999Y-122173571D02*
X240485713Y-122173571D01*
X241628570Y-121173571D02*
X241628570Y-122173571D01*
X241628570Y-121316428D02*
X241699999Y-121245000D01*
X241699999Y-121245000D02*
X241842856Y-121173571D01*
X241842856Y-121173571D02*
X242057142Y-121173571D01*
X242057142Y-121173571D02*
X242199999Y-121245000D01*
X242199999Y-121245000D02*
X242271428Y-121387857D01*
X242271428Y-121387857D02*
X242271428Y-122173571D01*
D11*
%TO.C,U18*%
X41219916Y-114140166D02*
X41786583Y-114140166D01*
X41786583Y-114140166D02*
X41853250Y-114106833D01*
X41853250Y-114106833D02*
X41886583Y-114073499D01*
X41886583Y-114073499D02*
X41919916Y-114006833D01*
X41919916Y-114006833D02*
X41919916Y-113873499D01*
X41919916Y-113873499D02*
X41886583Y-113806833D01*
X41886583Y-113806833D02*
X41853250Y-113773499D01*
X41853250Y-113773499D02*
X41786583Y-113740166D01*
X41786583Y-113740166D02*
X41219916Y-113740166D01*
X41919916Y-113040166D02*
X41919916Y-113440166D01*
X41919916Y-113240166D02*
X41219916Y-113240166D01*
X41219916Y-113240166D02*
X41319916Y-113306833D01*
X41319916Y-113306833D02*
X41386583Y-113373500D01*
X41386583Y-113373500D02*
X41419916Y-113440166D01*
X41519916Y-112640166D02*
X41486583Y-112706833D01*
X41486583Y-112706833D02*
X41453250Y-112740166D01*
X41453250Y-112740166D02*
X41386583Y-112773499D01*
X41386583Y-112773499D02*
X41353250Y-112773499D01*
X41353250Y-112773499D02*
X41286583Y-112740166D01*
X41286583Y-112740166D02*
X41253250Y-112706833D01*
X41253250Y-112706833D02*
X41219916Y-112640166D01*
X41219916Y-112640166D02*
X41219916Y-112506833D01*
X41219916Y-112506833D02*
X41253250Y-112440166D01*
X41253250Y-112440166D02*
X41286583Y-112406833D01*
X41286583Y-112406833D02*
X41353250Y-112373499D01*
X41353250Y-112373499D02*
X41386583Y-112373499D01*
X41386583Y-112373499D02*
X41453250Y-112406833D01*
X41453250Y-112406833D02*
X41486583Y-112440166D01*
X41486583Y-112440166D02*
X41519916Y-112506833D01*
X41519916Y-112506833D02*
X41519916Y-112640166D01*
X41519916Y-112640166D02*
X41553250Y-112706833D01*
X41553250Y-112706833D02*
X41586583Y-112740166D01*
X41586583Y-112740166D02*
X41653250Y-112773499D01*
X41653250Y-112773499D02*
X41786583Y-112773499D01*
X41786583Y-112773499D02*
X41853250Y-112740166D01*
X41853250Y-112740166D02*
X41886583Y-112706833D01*
X41886583Y-112706833D02*
X41919916Y-112640166D01*
X41919916Y-112640166D02*
X41919916Y-112506833D01*
X41919916Y-112506833D02*
X41886583Y-112440166D01*
X41886583Y-112440166D02*
X41853250Y-112406833D01*
X41853250Y-112406833D02*
X41786583Y-112373499D01*
X41786583Y-112373499D02*
X41653250Y-112373499D01*
X41653250Y-112373499D02*
X41586583Y-112406833D01*
X41586583Y-112406833D02*
X41553250Y-112440166D01*
X41553250Y-112440166D02*
X41519916Y-112506833D01*
%TO.C,BT1*%
X38958571Y-110509714D02*
X39006190Y-110366857D01*
X39006190Y-110366857D02*
X39053809Y-110319238D01*
X39053809Y-110319238D02*
X39149047Y-110271619D01*
X39149047Y-110271619D02*
X39291904Y-110271619D01*
X39291904Y-110271619D02*
X39387142Y-110319238D01*
X39387142Y-110319238D02*
X39434761Y-110366857D01*
X39434761Y-110366857D02*
X39482380Y-110462095D01*
X39482380Y-110462095D02*
X39482380Y-110843047D01*
X39482380Y-110843047D02*
X38482380Y-110843047D01*
X38482380Y-110843047D02*
X38482380Y-110509714D01*
X38482380Y-110509714D02*
X38530000Y-110414476D01*
X38530000Y-110414476D02*
X38577619Y-110366857D01*
X38577619Y-110366857D02*
X38672857Y-110319238D01*
X38672857Y-110319238D02*
X38768095Y-110319238D01*
X38768095Y-110319238D02*
X38863333Y-110366857D01*
X38863333Y-110366857D02*
X38910952Y-110414476D01*
X38910952Y-110414476D02*
X38958571Y-110509714D01*
X38958571Y-110509714D02*
X38958571Y-110843047D01*
X38482380Y-109985904D02*
X38482380Y-109414476D01*
X39482380Y-109700190D02*
X38482380Y-109700190D01*
X39482380Y-108557333D02*
X39482380Y-109128761D01*
X39482380Y-108843047D02*
X38482380Y-108843047D01*
X38482380Y-108843047D02*
X38625238Y-108938285D01*
X38625238Y-108938285D02*
X38720476Y-109033523D01*
X38720476Y-109033523D02*
X38768095Y-109128761D01*
%TO.C,R2*%
X258557380Y-112688666D02*
X258081190Y-113021999D01*
X258557380Y-113260094D02*
X257557380Y-113260094D01*
X257557380Y-113260094D02*
X257557380Y-112879142D01*
X257557380Y-112879142D02*
X257605000Y-112783904D01*
X257605000Y-112783904D02*
X257652619Y-112736285D01*
X257652619Y-112736285D02*
X257747857Y-112688666D01*
X257747857Y-112688666D02*
X257890714Y-112688666D01*
X257890714Y-112688666D02*
X257985952Y-112736285D01*
X257985952Y-112736285D02*
X258033571Y-112783904D01*
X258033571Y-112783904D02*
X258081190Y-112879142D01*
X258081190Y-112879142D02*
X258081190Y-113260094D01*
X257652619Y-112307713D02*
X257605000Y-112260094D01*
X257605000Y-112260094D02*
X257557380Y-112164856D01*
X257557380Y-112164856D02*
X257557380Y-111926761D01*
X257557380Y-111926761D02*
X257605000Y-111831523D01*
X257605000Y-111831523D02*
X257652619Y-111783904D01*
X257652619Y-111783904D02*
X257747857Y-111736285D01*
X257747857Y-111736285D02*
X257843095Y-111736285D01*
X257843095Y-111736285D02*
X257985952Y-111783904D01*
X257985952Y-111783904D02*
X258557380Y-112355332D01*
X258557380Y-112355332D02*
X258557380Y-111736285D01*
%TO.C,R1*%
X255257380Y-119419666D02*
X254781190Y-119752999D01*
X255257380Y-119991094D02*
X254257380Y-119991094D01*
X254257380Y-119991094D02*
X254257380Y-119610142D01*
X254257380Y-119610142D02*
X254305000Y-119514904D01*
X254305000Y-119514904D02*
X254352619Y-119467285D01*
X254352619Y-119467285D02*
X254447857Y-119419666D01*
X254447857Y-119419666D02*
X254590714Y-119419666D01*
X254590714Y-119419666D02*
X254685952Y-119467285D01*
X254685952Y-119467285D02*
X254733571Y-119514904D01*
X254733571Y-119514904D02*
X254781190Y-119610142D01*
X254781190Y-119610142D02*
X254781190Y-119991094D01*
X255257380Y-118467285D02*
X255257380Y-119038713D01*
X255257380Y-118752999D02*
X254257380Y-118752999D01*
X254257380Y-118752999D02*
X254400238Y-118848237D01*
X254400238Y-118848237D02*
X254495476Y-118943475D01*
X254495476Y-118943475D02*
X254543095Y-119038713D01*
%TO.C,R4*%
X39609380Y-117641666D02*
X39133190Y-117974999D01*
X39609380Y-118213094D02*
X38609380Y-118213094D01*
X38609380Y-118213094D02*
X38609380Y-117832142D01*
X38609380Y-117832142D02*
X38657000Y-117736904D01*
X38657000Y-117736904D02*
X38704619Y-117689285D01*
X38704619Y-117689285D02*
X38799857Y-117641666D01*
X38799857Y-117641666D02*
X38942714Y-117641666D01*
X38942714Y-117641666D02*
X39037952Y-117689285D01*
X39037952Y-117689285D02*
X39085571Y-117736904D01*
X39085571Y-117736904D02*
X39133190Y-117832142D01*
X39133190Y-117832142D02*
X39133190Y-118213094D01*
X38942714Y-116784523D02*
X39609380Y-116784523D01*
X38561761Y-117022618D02*
X39276047Y-117260713D01*
X39276047Y-117260713D02*
X39276047Y-116641666D01*
%TO.C,R3*%
X31482380Y-118530666D02*
X31006190Y-118863999D01*
X31482380Y-119102094D02*
X30482380Y-119102094D01*
X30482380Y-119102094D02*
X30482380Y-118721142D01*
X30482380Y-118721142D02*
X30530000Y-118625904D01*
X30530000Y-118625904D02*
X30577619Y-118578285D01*
X30577619Y-118578285D02*
X30672857Y-118530666D01*
X30672857Y-118530666D02*
X30815714Y-118530666D01*
X30815714Y-118530666D02*
X30910952Y-118578285D01*
X30910952Y-118578285D02*
X30958571Y-118625904D01*
X30958571Y-118625904D02*
X31006190Y-118721142D01*
X31006190Y-118721142D02*
X31006190Y-119102094D01*
X30482380Y-118197332D02*
X30482380Y-117578285D01*
X30482380Y-117578285D02*
X30863333Y-117911618D01*
X30863333Y-117911618D02*
X30863333Y-117768761D01*
X30863333Y-117768761D02*
X30910952Y-117673523D01*
X30910952Y-117673523D02*
X30958571Y-117625904D01*
X30958571Y-117625904D02*
X31053809Y-117578285D01*
X31053809Y-117578285D02*
X31291904Y-117578285D01*
X31291904Y-117578285D02*
X31387142Y-117625904D01*
X31387142Y-117625904D02*
X31434761Y-117673523D01*
X31434761Y-117673523D02*
X31482380Y-117768761D01*
X31482380Y-117768761D02*
X31482380Y-118054475D01*
X31482380Y-118054475D02*
X31434761Y-118149713D01*
X31434761Y-118149713D02*
X31387142Y-118197332D01*
%TO.C,Q2*%
X38258761Y-120096619D02*
X38163523Y-120049000D01*
X38163523Y-120049000D02*
X38068285Y-119953761D01*
X38068285Y-119953761D02*
X37925428Y-119810904D01*
X37925428Y-119810904D02*
X37830190Y-119763285D01*
X37830190Y-119763285D02*
X37734952Y-119763285D01*
X37782571Y-120001380D02*
X37687333Y-119953761D01*
X37687333Y-119953761D02*
X37592095Y-119858523D01*
X37592095Y-119858523D02*
X37544476Y-119668047D01*
X37544476Y-119668047D02*
X37544476Y-119334714D01*
X37544476Y-119334714D02*
X37592095Y-119144238D01*
X37592095Y-119144238D02*
X37687333Y-119049000D01*
X37687333Y-119049000D02*
X37782571Y-119001380D01*
X37782571Y-119001380D02*
X37973047Y-119001380D01*
X37973047Y-119001380D02*
X38068285Y-119049000D01*
X38068285Y-119049000D02*
X38163523Y-119144238D01*
X38163523Y-119144238D02*
X38211142Y-119334714D01*
X38211142Y-119334714D02*
X38211142Y-119668047D01*
X38211142Y-119668047D02*
X38163523Y-119858523D01*
X38163523Y-119858523D02*
X38068285Y-119953761D01*
X38068285Y-119953761D02*
X37973047Y-120001380D01*
X37973047Y-120001380D02*
X37782571Y-120001380D01*
X38592095Y-119096619D02*
X38639714Y-119049000D01*
X38639714Y-119049000D02*
X38734952Y-119001380D01*
X38734952Y-119001380D02*
X38973047Y-119001380D01*
X38973047Y-119001380D02*
X39068285Y-119049000D01*
X39068285Y-119049000D02*
X39115904Y-119096619D01*
X39115904Y-119096619D02*
X39163523Y-119191857D01*
X39163523Y-119191857D02*
X39163523Y-119287095D01*
X39163523Y-119287095D02*
X39115904Y-119429952D01*
X39115904Y-119429952D02*
X38544476Y-120001380D01*
X38544476Y-120001380D02*
X39163523Y-120001380D01*
%TO.C,Q1*%
X34575761Y-120223619D02*
X34480523Y-120176000D01*
X34480523Y-120176000D02*
X34385285Y-120080761D01*
X34385285Y-120080761D02*
X34242428Y-119937904D01*
X34242428Y-119937904D02*
X34147190Y-119890285D01*
X34147190Y-119890285D02*
X34051952Y-119890285D01*
X34099571Y-120128380D02*
X34004333Y-120080761D01*
X34004333Y-120080761D02*
X33909095Y-119985523D01*
X33909095Y-119985523D02*
X33861476Y-119795047D01*
X33861476Y-119795047D02*
X33861476Y-119461714D01*
X33861476Y-119461714D02*
X33909095Y-119271238D01*
X33909095Y-119271238D02*
X34004333Y-119176000D01*
X34004333Y-119176000D02*
X34099571Y-119128380D01*
X34099571Y-119128380D02*
X34290047Y-119128380D01*
X34290047Y-119128380D02*
X34385285Y-119176000D01*
X34385285Y-119176000D02*
X34480523Y-119271238D01*
X34480523Y-119271238D02*
X34528142Y-119461714D01*
X34528142Y-119461714D02*
X34528142Y-119795047D01*
X34528142Y-119795047D02*
X34480523Y-119985523D01*
X34480523Y-119985523D02*
X34385285Y-120080761D01*
X34385285Y-120080761D02*
X34290047Y-120128380D01*
X34290047Y-120128380D02*
X34099571Y-120128380D01*
X35480523Y-120128380D02*
X34909095Y-120128380D01*
X35194809Y-120128380D02*
X35194809Y-119128380D01*
X35194809Y-119128380D02*
X35099571Y-119271238D01*
X35099571Y-119271238D02*
X35004333Y-119366476D01*
X35004333Y-119366476D02*
X34909095Y-119414095D01*
%TO.C,C10*%
X224857142Y-108772142D02*
X224809523Y-108819761D01*
X224809523Y-108819761D02*
X224666666Y-108867380D01*
X224666666Y-108867380D02*
X224571428Y-108867380D01*
X224571428Y-108867380D02*
X224428571Y-108819761D01*
X224428571Y-108819761D02*
X224333333Y-108724523D01*
X224333333Y-108724523D02*
X224285714Y-108629285D01*
X224285714Y-108629285D02*
X224238095Y-108438809D01*
X224238095Y-108438809D02*
X224238095Y-108295952D01*
X224238095Y-108295952D02*
X224285714Y-108105476D01*
X224285714Y-108105476D02*
X224333333Y-108010238D01*
X224333333Y-108010238D02*
X224428571Y-107915000D01*
X224428571Y-107915000D02*
X224571428Y-107867380D01*
X224571428Y-107867380D02*
X224666666Y-107867380D01*
X224666666Y-107867380D02*
X224809523Y-107915000D01*
X224809523Y-107915000D02*
X224857142Y-107962619D01*
X225809523Y-108867380D02*
X225238095Y-108867380D01*
X225523809Y-108867380D02*
X225523809Y-107867380D01*
X225523809Y-107867380D02*
X225428571Y-108010238D01*
X225428571Y-108010238D02*
X225333333Y-108105476D01*
X225333333Y-108105476D02*
X225238095Y-108153095D01*
X226428571Y-107867380D02*
X226523809Y-107867380D01*
X226523809Y-107867380D02*
X226619047Y-107915000D01*
X226619047Y-107915000D02*
X226666666Y-107962619D01*
X226666666Y-107962619D02*
X226714285Y-108057857D01*
X226714285Y-108057857D02*
X226761904Y-108248333D01*
X226761904Y-108248333D02*
X226761904Y-108486428D01*
X226761904Y-108486428D02*
X226714285Y-108676904D01*
X226714285Y-108676904D02*
X226666666Y-108772142D01*
X226666666Y-108772142D02*
X226619047Y-108819761D01*
X226619047Y-108819761D02*
X226523809Y-108867380D01*
X226523809Y-108867380D02*
X226428571Y-108867380D01*
X226428571Y-108867380D02*
X226333333Y-108819761D01*
X226333333Y-108819761D02*
X226285714Y-108772142D01*
X226285714Y-108772142D02*
X226238095Y-108676904D01*
X226238095Y-108676904D02*
X226190476Y-108486428D01*
X226190476Y-108486428D02*
X226190476Y-108248333D01*
X226190476Y-108248333D02*
X226238095Y-108057857D01*
X226238095Y-108057857D02*
X226285714Y-107962619D01*
X226285714Y-107962619D02*
X226333333Y-107915000D01*
X226333333Y-107915000D02*
X226428571Y-107867380D01*
%TO.C,U13*%
X202467380Y-112858094D02*
X203276904Y-112858094D01*
X203276904Y-112858094D02*
X203372142Y-112810475D01*
X203372142Y-112810475D02*
X203419761Y-112762856D01*
X203419761Y-112762856D02*
X203467380Y-112667618D01*
X203467380Y-112667618D02*
X203467380Y-112477142D01*
X203467380Y-112477142D02*
X203419761Y-112381904D01*
X203419761Y-112381904D02*
X203372142Y-112334285D01*
X203372142Y-112334285D02*
X203276904Y-112286666D01*
X203276904Y-112286666D02*
X202467380Y-112286666D01*
X203467380Y-111286666D02*
X203467380Y-111858094D01*
X203467380Y-111572380D02*
X202467380Y-111572380D01*
X202467380Y-111572380D02*
X202610238Y-111667618D01*
X202610238Y-111667618D02*
X202705476Y-111762856D01*
X202705476Y-111762856D02*
X202753095Y-111858094D01*
X202467380Y-110953332D02*
X202467380Y-110334285D01*
X202467380Y-110334285D02*
X202848333Y-110667618D01*
X202848333Y-110667618D02*
X202848333Y-110524761D01*
X202848333Y-110524761D02*
X202895952Y-110429523D01*
X202895952Y-110429523D02*
X202943571Y-110381904D01*
X202943571Y-110381904D02*
X203038809Y-110334285D01*
X203038809Y-110334285D02*
X203276904Y-110334285D01*
X203276904Y-110334285D02*
X203372142Y-110381904D01*
X203372142Y-110381904D02*
X203419761Y-110429523D01*
X203419761Y-110429523D02*
X203467380Y-110524761D01*
X203467380Y-110524761D02*
X203467380Y-110810475D01*
X203467380Y-110810475D02*
X203419761Y-110905713D01*
X203419761Y-110905713D02*
X203372142Y-110953332D01*
%TO.C,U15*%
X174337380Y-113048094D02*
X175146904Y-113048094D01*
X175146904Y-113048094D02*
X175242142Y-113000475D01*
X175242142Y-113000475D02*
X175289761Y-112952856D01*
X175289761Y-112952856D02*
X175337380Y-112857618D01*
X175337380Y-112857618D02*
X175337380Y-112667142D01*
X175337380Y-112667142D02*
X175289761Y-112571904D01*
X175289761Y-112571904D02*
X175242142Y-112524285D01*
X175242142Y-112524285D02*
X175146904Y-112476666D01*
X175146904Y-112476666D02*
X174337380Y-112476666D01*
X175337380Y-111476666D02*
X175337380Y-112048094D01*
X175337380Y-111762380D02*
X174337380Y-111762380D01*
X174337380Y-111762380D02*
X174480238Y-111857618D01*
X174480238Y-111857618D02*
X174575476Y-111952856D01*
X174575476Y-111952856D02*
X174623095Y-112048094D01*
X174337380Y-110571904D02*
X174337380Y-111048094D01*
X174337380Y-111048094D02*
X174813571Y-111095713D01*
X174813571Y-111095713D02*
X174765952Y-111048094D01*
X174765952Y-111048094D02*
X174718333Y-110952856D01*
X174718333Y-110952856D02*
X174718333Y-110714761D01*
X174718333Y-110714761D02*
X174765952Y-110619523D01*
X174765952Y-110619523D02*
X174813571Y-110571904D01*
X174813571Y-110571904D02*
X174908809Y-110524285D01*
X174908809Y-110524285D02*
X175146904Y-110524285D01*
X175146904Y-110524285D02*
X175242142Y-110571904D01*
X175242142Y-110571904D02*
X175289761Y-110619523D01*
X175289761Y-110619523D02*
X175337380Y-110714761D01*
X175337380Y-110714761D02*
X175337380Y-110952856D01*
X175337380Y-110952856D02*
X175289761Y-111048094D01*
X175289761Y-111048094D02*
X175242142Y-111095713D01*
%TO.C,J3*%
X246415000Y-117761904D02*
X246367380Y-117857142D01*
X246367380Y-117857142D02*
X246367380Y-117999999D01*
X246367380Y-117999999D02*
X246415000Y-118142856D01*
X246415000Y-118142856D02*
X246510238Y-118238094D01*
X246510238Y-118238094D02*
X246605476Y-118285713D01*
X246605476Y-118285713D02*
X246795952Y-118333332D01*
X246795952Y-118333332D02*
X246938809Y-118333332D01*
X246938809Y-118333332D02*
X247129285Y-118285713D01*
X247129285Y-118285713D02*
X247224523Y-118238094D01*
X247224523Y-118238094D02*
X247319761Y-118142856D01*
X247319761Y-118142856D02*
X247367380Y-117999999D01*
X247367380Y-117999999D02*
X247367380Y-117904761D01*
X247367380Y-117904761D02*
X247319761Y-117761904D01*
X247319761Y-117761904D02*
X247272142Y-117714285D01*
X247272142Y-117714285D02*
X246938809Y-117714285D01*
X246938809Y-117714285D02*
X246938809Y-117904761D01*
X247367380Y-117285713D02*
X246367380Y-117285713D01*
X246367380Y-117285713D02*
X247367380Y-116714285D01*
X247367380Y-116714285D02*
X246367380Y-116714285D01*
X247367380Y-116238094D02*
X246367380Y-116238094D01*
X246367380Y-116238094D02*
X246367380Y-115999999D01*
X246367380Y-115999999D02*
X246415000Y-115857142D01*
X246415000Y-115857142D02*
X246510238Y-115761904D01*
X246510238Y-115761904D02*
X246605476Y-115714285D01*
X246605476Y-115714285D02*
X246795952Y-115666666D01*
X246795952Y-115666666D02*
X246938809Y-115666666D01*
X246938809Y-115666666D02*
X247129285Y-115714285D01*
X247129285Y-115714285D02*
X247224523Y-115761904D01*
X247224523Y-115761904D02*
X247319761Y-115857142D01*
X247319761Y-115857142D02*
X247367380Y-115999999D01*
X247367380Y-115999999D02*
X247367380Y-116238094D01*
X248867380Y-117690476D02*
X248867380Y-118166666D01*
X248867380Y-118166666D02*
X249343571Y-118214285D01*
X249343571Y-118214285D02*
X249295952Y-118166666D01*
X249295952Y-118166666D02*
X249248333Y-118071428D01*
X249248333Y-118071428D02*
X249248333Y-117833333D01*
X249248333Y-117833333D02*
X249295952Y-117738095D01*
X249295952Y-117738095D02*
X249343571Y-117690476D01*
X249343571Y-117690476D02*
X249438809Y-117642857D01*
X249438809Y-117642857D02*
X249676904Y-117642857D01*
X249676904Y-117642857D02*
X249772142Y-117690476D01*
X249772142Y-117690476D02*
X249819761Y-117738095D01*
X249819761Y-117738095D02*
X249867380Y-117833333D01*
X249867380Y-117833333D02*
X249867380Y-118071428D01*
X249867380Y-118071428D02*
X249819761Y-118166666D01*
X249819761Y-118166666D02*
X249772142Y-118214285D01*
X248867380Y-117357142D02*
X249867380Y-117023809D01*
X249867380Y-117023809D02*
X248867380Y-116690476D01*
%TO.C,U9*%
X53378095Y-103002380D02*
X53378095Y-103811904D01*
X53378095Y-103811904D02*
X53425714Y-103907142D01*
X53425714Y-103907142D02*
X53473333Y-103954761D01*
X53473333Y-103954761D02*
X53568571Y-104002380D01*
X53568571Y-104002380D02*
X53759047Y-104002380D01*
X53759047Y-104002380D02*
X53854285Y-103954761D01*
X53854285Y-103954761D02*
X53901904Y-103907142D01*
X53901904Y-103907142D02*
X53949523Y-103811904D01*
X53949523Y-103811904D02*
X53949523Y-103002380D01*
X54473333Y-104002380D02*
X54663809Y-104002380D01*
X54663809Y-104002380D02*
X54759047Y-103954761D01*
X54759047Y-103954761D02*
X54806666Y-103907142D01*
X54806666Y-103907142D02*
X54901904Y-103764285D01*
X54901904Y-103764285D02*
X54949523Y-103573809D01*
X54949523Y-103573809D02*
X54949523Y-103192857D01*
X54949523Y-103192857D02*
X54901904Y-103097619D01*
X54901904Y-103097619D02*
X54854285Y-103050000D01*
X54854285Y-103050000D02*
X54759047Y-103002380D01*
X54759047Y-103002380D02*
X54568571Y-103002380D01*
X54568571Y-103002380D02*
X54473333Y-103050000D01*
X54473333Y-103050000D02*
X54425714Y-103097619D01*
X54425714Y-103097619D02*
X54378095Y-103192857D01*
X54378095Y-103192857D02*
X54378095Y-103430952D01*
X54378095Y-103430952D02*
X54425714Y-103526190D01*
X54425714Y-103526190D02*
X54473333Y-103573809D01*
X54473333Y-103573809D02*
X54568571Y-103621428D01*
X54568571Y-103621428D02*
X54759047Y-103621428D01*
X54759047Y-103621428D02*
X54854285Y-103573809D01*
X54854285Y-103573809D02*
X54901904Y-103526190D01*
X54901904Y-103526190D02*
X54949523Y-103430952D01*
X38367380Y-96824525D02*
X38367380Y-96634049D01*
X38367380Y-96634049D02*
X38415000Y-96538811D01*
X38415000Y-96538811D02*
X38510238Y-96443573D01*
X38510238Y-96443573D02*
X38700714Y-96395954D01*
X38700714Y-96395954D02*
X39034047Y-96395954D01*
X39034047Y-96395954D02*
X39224523Y-96443573D01*
X39224523Y-96443573D02*
X39319761Y-96538811D01*
X39319761Y-96538811D02*
X39367380Y-96634049D01*
X39367380Y-96634049D02*
X39367380Y-96824525D01*
X39367380Y-96824525D02*
X39319761Y-96919763D01*
X39319761Y-96919763D02*
X39224523Y-97015001D01*
X39224523Y-97015001D02*
X39034047Y-97062620D01*
X39034047Y-97062620D02*
X38700714Y-97062620D01*
X38700714Y-97062620D02*
X38510238Y-97015001D01*
X38510238Y-97015001D02*
X38415000Y-96919763D01*
X38415000Y-96919763D02*
X38367380Y-96824525D01*
X38700714Y-95538811D02*
X39367380Y-95538811D01*
X38700714Y-95967382D02*
X39224523Y-95967382D01*
X39224523Y-95967382D02*
X39319761Y-95919763D01*
X39319761Y-95919763D02*
X39367380Y-95824525D01*
X39367380Y-95824525D02*
X39367380Y-95681668D01*
X39367380Y-95681668D02*
X39319761Y-95586430D01*
X39319761Y-95586430D02*
X39272142Y-95538811D01*
X38700714Y-95205477D02*
X38700714Y-94824525D01*
X38367380Y-95062620D02*
X39224523Y-95062620D01*
X39224523Y-95062620D02*
X39319761Y-95015001D01*
X39319761Y-95015001D02*
X39367380Y-94919763D01*
X39367380Y-94919763D02*
X39367380Y-94824525D01*
X39319761Y-94110239D02*
X39367380Y-94205477D01*
X39367380Y-94205477D02*
X39367380Y-94395953D01*
X39367380Y-94395953D02*
X39319761Y-94491191D01*
X39319761Y-94491191D02*
X39224523Y-94538810D01*
X39224523Y-94538810D02*
X38843571Y-94538810D01*
X38843571Y-94538810D02*
X38748333Y-94491191D01*
X38748333Y-94491191D02*
X38700714Y-94395953D01*
X38700714Y-94395953D02*
X38700714Y-94205477D01*
X38700714Y-94205477D02*
X38748333Y-94110239D01*
X38748333Y-94110239D02*
X38843571Y-94062620D01*
X38843571Y-94062620D02*
X38938809Y-94062620D01*
X38938809Y-94062620D02*
X39034047Y-94538810D01*
X39367380Y-93634048D02*
X38700714Y-93634048D01*
X38891190Y-93634048D02*
X38795952Y-93586429D01*
X38795952Y-93586429D02*
X38748333Y-93538810D01*
X38748333Y-93538810D02*
X38700714Y-93443572D01*
X38700714Y-93443572D02*
X38700714Y-93348334D01*
X39748333Y-92129286D02*
X39700714Y-92176905D01*
X39700714Y-92176905D02*
X39557857Y-92272143D01*
X39557857Y-92272143D02*
X39462619Y-92319762D01*
X39462619Y-92319762D02*
X39319761Y-92367381D01*
X39319761Y-92367381D02*
X39081666Y-92415000D01*
X39081666Y-92415000D02*
X38891190Y-92415000D01*
X38891190Y-92415000D02*
X38653095Y-92367381D01*
X38653095Y-92367381D02*
X38510238Y-92319762D01*
X38510238Y-92319762D02*
X38415000Y-92272143D01*
X38415000Y-92272143D02*
X38272142Y-92176905D01*
X38272142Y-92176905D02*
X38224523Y-92129286D01*
X38700714Y-91748333D02*
X39700714Y-91748333D01*
X38748333Y-91748333D02*
X38700714Y-91653095D01*
X38700714Y-91653095D02*
X38700714Y-91462619D01*
X38700714Y-91462619D02*
X38748333Y-91367381D01*
X38748333Y-91367381D02*
X38795952Y-91319762D01*
X38795952Y-91319762D02*
X38891190Y-91272143D01*
X38891190Y-91272143D02*
X39176904Y-91272143D01*
X39176904Y-91272143D02*
X39272142Y-91319762D01*
X39272142Y-91319762D02*
X39319761Y-91367381D01*
X39319761Y-91367381D02*
X39367380Y-91462619D01*
X39367380Y-91462619D02*
X39367380Y-91653095D01*
X39367380Y-91653095D02*
X39319761Y-91748333D01*
X39367380Y-90700714D02*
X39319761Y-90795952D01*
X39319761Y-90795952D02*
X39224523Y-90843571D01*
X39224523Y-90843571D02*
X38367380Y-90843571D01*
X39367380Y-89891190D02*
X38843571Y-89891190D01*
X38843571Y-89891190D02*
X38748333Y-89938809D01*
X38748333Y-89938809D02*
X38700714Y-90034047D01*
X38700714Y-90034047D02*
X38700714Y-90224523D01*
X38700714Y-90224523D02*
X38748333Y-90319761D01*
X39319761Y-89891190D02*
X39367380Y-89986428D01*
X39367380Y-89986428D02*
X39367380Y-90224523D01*
X39367380Y-90224523D02*
X39319761Y-90319761D01*
X39319761Y-90319761D02*
X39224523Y-90367380D01*
X39224523Y-90367380D02*
X39129285Y-90367380D01*
X39129285Y-90367380D02*
X39034047Y-90319761D01*
X39034047Y-90319761D02*
X38986428Y-90224523D01*
X38986428Y-90224523D02*
X38986428Y-89986428D01*
X38986428Y-89986428D02*
X38938809Y-89891190D01*
X39319761Y-89462618D02*
X39367380Y-89367380D01*
X39367380Y-89367380D02*
X39367380Y-89176904D01*
X39367380Y-89176904D02*
X39319761Y-89081666D01*
X39319761Y-89081666D02*
X39224523Y-89034047D01*
X39224523Y-89034047D02*
X39176904Y-89034047D01*
X39176904Y-89034047D02*
X39081666Y-89081666D01*
X39081666Y-89081666D02*
X39034047Y-89176904D01*
X39034047Y-89176904D02*
X39034047Y-89319761D01*
X39034047Y-89319761D02*
X38986428Y-89414999D01*
X38986428Y-89414999D02*
X38891190Y-89462618D01*
X38891190Y-89462618D02*
X38843571Y-89462618D01*
X38843571Y-89462618D02*
X38748333Y-89414999D01*
X38748333Y-89414999D02*
X38700714Y-89319761D01*
X38700714Y-89319761D02*
X38700714Y-89176904D01*
X38700714Y-89176904D02*
X38748333Y-89081666D01*
X38700714Y-88748332D02*
X38700714Y-88367380D01*
X38367380Y-88605475D02*
X39224523Y-88605475D01*
X39224523Y-88605475D02*
X39319761Y-88557856D01*
X39319761Y-88557856D02*
X39367380Y-88462618D01*
X39367380Y-88462618D02*
X39367380Y-88367380D01*
X39367380Y-88034046D02*
X38700714Y-88034046D01*
X38367380Y-88034046D02*
X38415000Y-88081665D01*
X38415000Y-88081665D02*
X38462619Y-88034046D01*
X38462619Y-88034046D02*
X38415000Y-87986427D01*
X38415000Y-87986427D02*
X38367380Y-88034046D01*
X38367380Y-88034046D02*
X38462619Y-88034046D01*
X39319761Y-87129285D02*
X39367380Y-87224523D01*
X39367380Y-87224523D02*
X39367380Y-87414999D01*
X39367380Y-87414999D02*
X39319761Y-87510237D01*
X39319761Y-87510237D02*
X39272142Y-87557856D01*
X39272142Y-87557856D02*
X39176904Y-87605475D01*
X39176904Y-87605475D02*
X38891190Y-87605475D01*
X38891190Y-87605475D02*
X38795952Y-87557856D01*
X38795952Y-87557856D02*
X38748333Y-87510237D01*
X38748333Y-87510237D02*
X38700714Y-87414999D01*
X38700714Y-87414999D02*
X38700714Y-87224523D01*
X38700714Y-87224523D02*
X38748333Y-87129285D01*
X39748333Y-86795951D02*
X39700714Y-86748332D01*
X39700714Y-86748332D02*
X39557857Y-86653094D01*
X39557857Y-86653094D02*
X39462619Y-86605475D01*
X39462619Y-86605475D02*
X39319761Y-86557856D01*
X39319761Y-86557856D02*
X39081666Y-86510237D01*
X39081666Y-86510237D02*
X38891190Y-86510237D01*
X38891190Y-86510237D02*
X38653095Y-86557856D01*
X38653095Y-86557856D02*
X38510238Y-86605475D01*
X38510238Y-86605475D02*
X38415000Y-86653094D01*
X38415000Y-86653094D02*
X38272142Y-86748332D01*
X38272142Y-86748332D02*
X38224523Y-86795951D01*
X39319761Y-85481665D02*
X39367380Y-85386427D01*
X39367380Y-85386427D02*
X39367380Y-85195951D01*
X39367380Y-85195951D02*
X39319761Y-85100713D01*
X39319761Y-85100713D02*
X39224523Y-85053094D01*
X39224523Y-85053094D02*
X39176904Y-85053094D01*
X39176904Y-85053094D02*
X39081666Y-85100713D01*
X39081666Y-85100713D02*
X39034047Y-85195951D01*
X39034047Y-85195951D02*
X39034047Y-85338808D01*
X39034047Y-85338808D02*
X38986428Y-85434046D01*
X38986428Y-85434046D02*
X38891190Y-85481665D01*
X38891190Y-85481665D02*
X38843571Y-85481665D01*
X38843571Y-85481665D02*
X38748333Y-85434046D01*
X38748333Y-85434046D02*
X38700714Y-85338808D01*
X38700714Y-85338808D02*
X38700714Y-85195951D01*
X38700714Y-85195951D02*
X38748333Y-85100713D01*
X39367380Y-84624522D02*
X38367380Y-84624522D01*
X39367380Y-84195951D02*
X38843571Y-84195951D01*
X38843571Y-84195951D02*
X38748333Y-84243570D01*
X38748333Y-84243570D02*
X38700714Y-84338808D01*
X38700714Y-84338808D02*
X38700714Y-84481665D01*
X38700714Y-84481665D02*
X38748333Y-84576903D01*
X38748333Y-84576903D02*
X38795952Y-84624522D01*
X39367380Y-83291189D02*
X38843571Y-83291189D01*
X38843571Y-83291189D02*
X38748333Y-83338808D01*
X38748333Y-83338808D02*
X38700714Y-83434046D01*
X38700714Y-83434046D02*
X38700714Y-83624522D01*
X38700714Y-83624522D02*
X38748333Y-83719760D01*
X39319761Y-83291189D02*
X39367380Y-83386427D01*
X39367380Y-83386427D02*
X39367380Y-83624522D01*
X39367380Y-83624522D02*
X39319761Y-83719760D01*
X39319761Y-83719760D02*
X39224523Y-83767379D01*
X39224523Y-83767379D02*
X39129285Y-83767379D01*
X39129285Y-83767379D02*
X39034047Y-83719760D01*
X39034047Y-83719760D02*
X38986428Y-83624522D01*
X38986428Y-83624522D02*
X38986428Y-83386427D01*
X38986428Y-83386427D02*
X38938809Y-83291189D01*
X38700714Y-82957855D02*
X38700714Y-82576903D01*
X39367380Y-82814998D02*
X38510238Y-82814998D01*
X38510238Y-82814998D02*
X38415000Y-82767379D01*
X38415000Y-82767379D02*
X38367380Y-82672141D01*
X38367380Y-82672141D02*
X38367380Y-82576903D01*
X38700714Y-82386426D02*
X38700714Y-82005474D01*
X38367380Y-82243569D02*
X39224523Y-82243569D01*
X39224523Y-82243569D02*
X39319761Y-82195950D01*
X39319761Y-82195950D02*
X39367380Y-82100712D01*
X39367380Y-82100712D02*
X39367380Y-82005474D01*
X39367380Y-81072140D02*
X38700714Y-81072140D01*
X38795952Y-81072140D02*
X38748333Y-81024521D01*
X38748333Y-81024521D02*
X38700714Y-80929283D01*
X38700714Y-80929283D02*
X38700714Y-80786426D01*
X38700714Y-80786426D02*
X38748333Y-80691188D01*
X38748333Y-80691188D02*
X38843571Y-80643569D01*
X38843571Y-80643569D02*
X39367380Y-80643569D01*
X38843571Y-80643569D02*
X38748333Y-80595950D01*
X38748333Y-80595950D02*
X38700714Y-80500712D01*
X38700714Y-80500712D02*
X38700714Y-80357855D01*
X38700714Y-80357855D02*
X38748333Y-80262616D01*
X38748333Y-80262616D02*
X38843571Y-80214997D01*
X38843571Y-80214997D02*
X39367380Y-80214997D01*
X39367380Y-79595950D02*
X39319761Y-79691188D01*
X39319761Y-79691188D02*
X39272142Y-79738807D01*
X39272142Y-79738807D02*
X39176904Y-79786426D01*
X39176904Y-79786426D02*
X38891190Y-79786426D01*
X38891190Y-79786426D02*
X38795952Y-79738807D01*
X38795952Y-79738807D02*
X38748333Y-79691188D01*
X38748333Y-79691188D02*
X38700714Y-79595950D01*
X38700714Y-79595950D02*
X38700714Y-79453093D01*
X38700714Y-79453093D02*
X38748333Y-79357855D01*
X38748333Y-79357855D02*
X38795952Y-79310236D01*
X38795952Y-79310236D02*
X38891190Y-79262617D01*
X38891190Y-79262617D02*
X39176904Y-79262617D01*
X39176904Y-79262617D02*
X39272142Y-79310236D01*
X39272142Y-79310236D02*
X39319761Y-79357855D01*
X39319761Y-79357855D02*
X39367380Y-79453093D01*
X39367380Y-79453093D02*
X39367380Y-79595950D01*
X38700714Y-78976902D02*
X38700714Y-78595950D01*
X38367380Y-78834045D02*
X39224523Y-78834045D01*
X39224523Y-78834045D02*
X39319761Y-78786426D01*
X39319761Y-78786426D02*
X39367380Y-78691188D01*
X39367380Y-78691188D02*
X39367380Y-78595950D01*
X39367380Y-78119759D02*
X39319761Y-78214997D01*
X39319761Y-78214997D02*
X39272142Y-78262616D01*
X39272142Y-78262616D02*
X39176904Y-78310235D01*
X39176904Y-78310235D02*
X38891190Y-78310235D01*
X38891190Y-78310235D02*
X38795952Y-78262616D01*
X38795952Y-78262616D02*
X38748333Y-78214997D01*
X38748333Y-78214997D02*
X38700714Y-78119759D01*
X38700714Y-78119759D02*
X38700714Y-77976902D01*
X38700714Y-77976902D02*
X38748333Y-77881664D01*
X38748333Y-77881664D02*
X38795952Y-77834045D01*
X38795952Y-77834045D02*
X38891190Y-77786426D01*
X38891190Y-77786426D02*
X39176904Y-77786426D01*
X39176904Y-77786426D02*
X39272142Y-77834045D01*
X39272142Y-77834045D02*
X39319761Y-77881664D01*
X39319761Y-77881664D02*
X39367380Y-77976902D01*
X39367380Y-77976902D02*
X39367380Y-78119759D01*
X39367380Y-77357854D02*
X38700714Y-77357854D01*
X38891190Y-77357854D02*
X38795952Y-77310235D01*
X38795952Y-77310235D02*
X38748333Y-77262616D01*
X38748333Y-77262616D02*
X38700714Y-77167378D01*
X38700714Y-77167378D02*
X38700714Y-77072140D01*
X70567380Y-96157858D02*
X69567380Y-96157858D01*
X69900714Y-95681668D02*
X70567380Y-95681668D01*
X69995952Y-95681668D02*
X69948333Y-95634049D01*
X69948333Y-95634049D02*
X69900714Y-95538811D01*
X69900714Y-95538811D02*
X69900714Y-95395954D01*
X69900714Y-95395954D02*
X69948333Y-95300716D01*
X69948333Y-95300716D02*
X70043571Y-95253097D01*
X70043571Y-95253097D02*
X70567380Y-95253097D01*
X69900714Y-94776906D02*
X70567380Y-94776906D01*
X69995952Y-94776906D02*
X69948333Y-94729287D01*
X69948333Y-94729287D02*
X69900714Y-94634049D01*
X69900714Y-94634049D02*
X69900714Y-94491192D01*
X69900714Y-94491192D02*
X69948333Y-94395954D01*
X69948333Y-94395954D02*
X70043571Y-94348335D01*
X70043571Y-94348335D02*
X70567380Y-94348335D01*
X70519761Y-93491192D02*
X70567380Y-93586430D01*
X70567380Y-93586430D02*
X70567380Y-93776906D01*
X70567380Y-93776906D02*
X70519761Y-93872144D01*
X70519761Y-93872144D02*
X70424523Y-93919763D01*
X70424523Y-93919763D02*
X70043571Y-93919763D01*
X70043571Y-93919763D02*
X69948333Y-93872144D01*
X69948333Y-93872144D02*
X69900714Y-93776906D01*
X69900714Y-93776906D02*
X69900714Y-93586430D01*
X69900714Y-93586430D02*
X69948333Y-93491192D01*
X69948333Y-93491192D02*
X70043571Y-93443573D01*
X70043571Y-93443573D02*
X70138809Y-93443573D01*
X70138809Y-93443573D02*
X70234047Y-93919763D01*
X70567380Y-93015001D02*
X69900714Y-93015001D01*
X70091190Y-93015001D02*
X69995952Y-92967382D01*
X69995952Y-92967382D02*
X69948333Y-92919763D01*
X69948333Y-92919763D02*
X69900714Y-92824525D01*
X69900714Y-92824525D02*
X69900714Y-92729287D01*
X70948333Y-91510239D02*
X70900714Y-91557858D01*
X70900714Y-91557858D02*
X70757857Y-91653096D01*
X70757857Y-91653096D02*
X70662619Y-91700715D01*
X70662619Y-91700715D02*
X70519761Y-91748334D01*
X70519761Y-91748334D02*
X70281666Y-91795953D01*
X70281666Y-91795953D02*
X70091190Y-91795953D01*
X70091190Y-91795953D02*
X69853095Y-91748334D01*
X69853095Y-91748334D02*
X69710238Y-91700715D01*
X69710238Y-91700715D02*
X69615000Y-91653096D01*
X69615000Y-91653096D02*
X69472142Y-91557858D01*
X69472142Y-91557858D02*
X69424523Y-91510239D01*
X70519761Y-91176905D02*
X70567380Y-91081667D01*
X70567380Y-91081667D02*
X70567380Y-90891191D01*
X70567380Y-90891191D02*
X70519761Y-90795953D01*
X70519761Y-90795953D02*
X70424523Y-90748334D01*
X70424523Y-90748334D02*
X70376904Y-90748334D01*
X70376904Y-90748334D02*
X70281666Y-90795953D01*
X70281666Y-90795953D02*
X70234047Y-90891191D01*
X70234047Y-90891191D02*
X70234047Y-91034048D01*
X70234047Y-91034048D02*
X70186428Y-91129286D01*
X70186428Y-91129286D02*
X70091190Y-91176905D01*
X70091190Y-91176905D02*
X70043571Y-91176905D01*
X70043571Y-91176905D02*
X69948333Y-91129286D01*
X69948333Y-91129286D02*
X69900714Y-91034048D01*
X69900714Y-91034048D02*
X69900714Y-90891191D01*
X69900714Y-90891191D02*
X69948333Y-90795953D01*
X69900714Y-90462619D02*
X69900714Y-90081667D01*
X69567380Y-90319762D02*
X70424523Y-90319762D01*
X70424523Y-90319762D02*
X70519761Y-90272143D01*
X70519761Y-90272143D02*
X70567380Y-90176905D01*
X70567380Y-90176905D02*
X70567380Y-90081667D01*
X70519761Y-89367381D02*
X70567380Y-89462619D01*
X70567380Y-89462619D02*
X70567380Y-89653095D01*
X70567380Y-89653095D02*
X70519761Y-89748333D01*
X70519761Y-89748333D02*
X70424523Y-89795952D01*
X70424523Y-89795952D02*
X70043571Y-89795952D01*
X70043571Y-89795952D02*
X69948333Y-89748333D01*
X69948333Y-89748333D02*
X69900714Y-89653095D01*
X69900714Y-89653095D02*
X69900714Y-89462619D01*
X69900714Y-89462619D02*
X69948333Y-89367381D01*
X69948333Y-89367381D02*
X70043571Y-89319762D01*
X70043571Y-89319762D02*
X70138809Y-89319762D01*
X70138809Y-89319762D02*
X70234047Y-89795952D01*
X70519761Y-88510238D02*
X70567380Y-88605476D01*
X70567380Y-88605476D02*
X70567380Y-88795952D01*
X70567380Y-88795952D02*
X70519761Y-88891190D01*
X70519761Y-88891190D02*
X70424523Y-88938809D01*
X70424523Y-88938809D02*
X70043571Y-88938809D01*
X70043571Y-88938809D02*
X69948333Y-88891190D01*
X69948333Y-88891190D02*
X69900714Y-88795952D01*
X69900714Y-88795952D02*
X69900714Y-88605476D01*
X69900714Y-88605476D02*
X69948333Y-88510238D01*
X69948333Y-88510238D02*
X70043571Y-88462619D01*
X70043571Y-88462619D02*
X70138809Y-88462619D01*
X70138809Y-88462619D02*
X70234047Y-88938809D01*
X70567380Y-87891190D02*
X70519761Y-87986428D01*
X70519761Y-87986428D02*
X70424523Y-88034047D01*
X70424523Y-88034047D02*
X69567380Y-88034047D01*
X70948333Y-87605475D02*
X70900714Y-87557856D01*
X70900714Y-87557856D02*
X70757857Y-87462618D01*
X70757857Y-87462618D02*
X70662619Y-87414999D01*
X70662619Y-87414999D02*
X70519761Y-87367380D01*
X70519761Y-87367380D02*
X70281666Y-87319761D01*
X70281666Y-87319761D02*
X70091190Y-87319761D01*
X70091190Y-87319761D02*
X69853095Y-87367380D01*
X69853095Y-87367380D02*
X69710238Y-87414999D01*
X69710238Y-87414999D02*
X69615000Y-87462618D01*
X69615000Y-87462618D02*
X69472142Y-87557856D01*
X69472142Y-87557856D02*
X69424523Y-87605475D01*
X70519761Y-86291189D02*
X70567380Y-86148332D01*
X70567380Y-86148332D02*
X70567380Y-85910237D01*
X70567380Y-85910237D02*
X70519761Y-85814999D01*
X70519761Y-85814999D02*
X70472142Y-85767380D01*
X70472142Y-85767380D02*
X70376904Y-85719761D01*
X70376904Y-85719761D02*
X70281666Y-85719761D01*
X70281666Y-85719761D02*
X70186428Y-85767380D01*
X70186428Y-85767380D02*
X70138809Y-85814999D01*
X70138809Y-85814999D02*
X70091190Y-85910237D01*
X70091190Y-85910237D02*
X70043571Y-86100713D01*
X70043571Y-86100713D02*
X69995952Y-86195951D01*
X69995952Y-86195951D02*
X69948333Y-86243570D01*
X69948333Y-86243570D02*
X69853095Y-86291189D01*
X69853095Y-86291189D02*
X69757857Y-86291189D01*
X69757857Y-86291189D02*
X69662619Y-86243570D01*
X69662619Y-86243570D02*
X69615000Y-86195951D01*
X69615000Y-86195951D02*
X69567380Y-86100713D01*
X69567380Y-86100713D02*
X69567380Y-85862618D01*
X69567380Y-85862618D02*
X69615000Y-85719761D01*
X70567380Y-85291189D02*
X69567380Y-85291189D01*
X70567380Y-84862618D02*
X70043571Y-84862618D01*
X70043571Y-84862618D02*
X69948333Y-84910237D01*
X69948333Y-84910237D02*
X69900714Y-85005475D01*
X69900714Y-85005475D02*
X69900714Y-85148332D01*
X69900714Y-85148332D02*
X69948333Y-85243570D01*
X69948333Y-85243570D02*
X69995952Y-85291189D01*
X70567380Y-83957856D02*
X70043571Y-83957856D01*
X70043571Y-83957856D02*
X69948333Y-84005475D01*
X69948333Y-84005475D02*
X69900714Y-84100713D01*
X69900714Y-84100713D02*
X69900714Y-84291189D01*
X69900714Y-84291189D02*
X69948333Y-84386427D01*
X70519761Y-83957856D02*
X70567380Y-84053094D01*
X70567380Y-84053094D02*
X70567380Y-84291189D01*
X70567380Y-84291189D02*
X70519761Y-84386427D01*
X70519761Y-84386427D02*
X70424523Y-84434046D01*
X70424523Y-84434046D02*
X70329285Y-84434046D01*
X70329285Y-84434046D02*
X70234047Y-84386427D01*
X70234047Y-84386427D02*
X70186428Y-84291189D01*
X70186428Y-84291189D02*
X70186428Y-84053094D01*
X70186428Y-84053094D02*
X70138809Y-83957856D01*
X69900714Y-83624522D02*
X69900714Y-83243570D01*
X70567380Y-83481665D02*
X69710238Y-83481665D01*
X69710238Y-83481665D02*
X69615000Y-83434046D01*
X69615000Y-83434046D02*
X69567380Y-83338808D01*
X69567380Y-83338808D02*
X69567380Y-83243570D01*
X69900714Y-83053093D02*
X69900714Y-82672141D01*
X69567380Y-82910236D02*
X70424523Y-82910236D01*
X70424523Y-82910236D02*
X70519761Y-82862617D01*
X70519761Y-82862617D02*
X70567380Y-82767379D01*
X70567380Y-82767379D02*
X70567380Y-82672141D01*
X70567380Y-81738807D02*
X69567380Y-81738807D01*
X69567380Y-81738807D02*
X70281666Y-81405474D01*
X70281666Y-81405474D02*
X69567380Y-81072141D01*
X69567380Y-81072141D02*
X70567380Y-81072141D01*
X70567380Y-80453093D02*
X70519761Y-80548331D01*
X70519761Y-80548331D02*
X70472142Y-80595950D01*
X70472142Y-80595950D02*
X70376904Y-80643569D01*
X70376904Y-80643569D02*
X70091190Y-80643569D01*
X70091190Y-80643569D02*
X69995952Y-80595950D01*
X69995952Y-80595950D02*
X69948333Y-80548331D01*
X69948333Y-80548331D02*
X69900714Y-80453093D01*
X69900714Y-80453093D02*
X69900714Y-80310236D01*
X69900714Y-80310236D02*
X69948333Y-80214998D01*
X69948333Y-80214998D02*
X69995952Y-80167379D01*
X69995952Y-80167379D02*
X70091190Y-80119760D01*
X70091190Y-80119760D02*
X70376904Y-80119760D01*
X70376904Y-80119760D02*
X70472142Y-80167379D01*
X70472142Y-80167379D02*
X70519761Y-80214998D01*
X70519761Y-80214998D02*
X70567380Y-80310236D01*
X70567380Y-80310236D02*
X70567380Y-80453093D01*
X69900714Y-79834045D02*
X69900714Y-79453093D01*
X69567380Y-79691188D02*
X70424523Y-79691188D01*
X70424523Y-79691188D02*
X70519761Y-79643569D01*
X70519761Y-79643569D02*
X70567380Y-79548331D01*
X70567380Y-79548331D02*
X70567380Y-79453093D01*
X70567380Y-78976902D02*
X70519761Y-79072140D01*
X70519761Y-79072140D02*
X70472142Y-79119759D01*
X70472142Y-79119759D02*
X70376904Y-79167378D01*
X70376904Y-79167378D02*
X70091190Y-79167378D01*
X70091190Y-79167378D02*
X69995952Y-79119759D01*
X69995952Y-79119759D02*
X69948333Y-79072140D01*
X69948333Y-79072140D02*
X69900714Y-78976902D01*
X69900714Y-78976902D02*
X69900714Y-78834045D01*
X69900714Y-78834045D02*
X69948333Y-78738807D01*
X69948333Y-78738807D02*
X69995952Y-78691188D01*
X69995952Y-78691188D02*
X70091190Y-78643569D01*
X70091190Y-78643569D02*
X70376904Y-78643569D01*
X70376904Y-78643569D02*
X70472142Y-78691188D01*
X70472142Y-78691188D02*
X70519761Y-78738807D01*
X70519761Y-78738807D02*
X70567380Y-78834045D01*
X70567380Y-78834045D02*
X70567380Y-78976902D01*
X70567380Y-78214997D02*
X69900714Y-78214997D01*
X70091190Y-78214997D02*
X69995952Y-78167378D01*
X69995952Y-78167378D02*
X69948333Y-78119759D01*
X69948333Y-78119759D02*
X69900714Y-78024521D01*
X69900714Y-78024521D02*
X69900714Y-77929283D01*
%TO.C,C1*%
X69833333Y-122272142D02*
X69785714Y-122319761D01*
X69785714Y-122319761D02*
X69642857Y-122367380D01*
X69642857Y-122367380D02*
X69547619Y-122367380D01*
X69547619Y-122367380D02*
X69404762Y-122319761D01*
X69404762Y-122319761D02*
X69309524Y-122224523D01*
X69309524Y-122224523D02*
X69261905Y-122129285D01*
X69261905Y-122129285D02*
X69214286Y-121938809D01*
X69214286Y-121938809D02*
X69214286Y-121795952D01*
X69214286Y-121795952D02*
X69261905Y-121605476D01*
X69261905Y-121605476D02*
X69309524Y-121510238D01*
X69309524Y-121510238D02*
X69404762Y-121415000D01*
X69404762Y-121415000D02*
X69547619Y-121367380D01*
X69547619Y-121367380D02*
X69642857Y-121367380D01*
X69642857Y-121367380D02*
X69785714Y-121415000D01*
X69785714Y-121415000D02*
X69833333Y-121462619D01*
X70785714Y-122367380D02*
X70214286Y-122367380D01*
X70500000Y-122367380D02*
X70500000Y-121367380D01*
X70500000Y-121367380D02*
X70404762Y-121510238D01*
X70404762Y-121510238D02*
X70309524Y-121605476D01*
X70309524Y-121605476D02*
X70214286Y-121653095D01*
%TO.C,J2*%
X260887380Y-113833333D02*
X261601666Y-113833333D01*
X261601666Y-113833333D02*
X261744523Y-113880952D01*
X261744523Y-113880952D02*
X261839761Y-113976190D01*
X261839761Y-113976190D02*
X261887380Y-114119047D01*
X261887380Y-114119047D02*
X261887380Y-114214285D01*
X260982619Y-113404761D02*
X260935000Y-113357142D01*
X260935000Y-113357142D02*
X260887380Y-113261904D01*
X260887380Y-113261904D02*
X260887380Y-113023809D01*
X260887380Y-113023809D02*
X260935000Y-112928571D01*
X260935000Y-112928571D02*
X260982619Y-112880952D01*
X260982619Y-112880952D02*
X261077857Y-112833333D01*
X261077857Y-112833333D02*
X261173095Y-112833333D01*
X261173095Y-112833333D02*
X261315952Y-112880952D01*
X261315952Y-112880952D02*
X261887380Y-113452380D01*
X261887380Y-113452380D02*
X261887380Y-112833333D01*
X268785714Y-113319761D02*
X268928571Y-113367380D01*
X268928571Y-113367380D02*
X269166666Y-113367380D01*
X269166666Y-113367380D02*
X269261904Y-113319761D01*
X269261904Y-113319761D02*
X269309523Y-113272142D01*
X269309523Y-113272142D02*
X269357142Y-113176904D01*
X269357142Y-113176904D02*
X269357142Y-113081666D01*
X269357142Y-113081666D02*
X269309523Y-112986428D01*
X269309523Y-112986428D02*
X269261904Y-112938809D01*
X269261904Y-112938809D02*
X269166666Y-112891190D01*
X269166666Y-112891190D02*
X268976190Y-112843571D01*
X268976190Y-112843571D02*
X268880952Y-112795952D01*
X268880952Y-112795952D02*
X268833333Y-112748333D01*
X268833333Y-112748333D02*
X268785714Y-112653095D01*
X268785714Y-112653095D02*
X268785714Y-112557857D01*
X268785714Y-112557857D02*
X268833333Y-112462619D01*
X268833333Y-112462619D02*
X268880952Y-112415000D01*
X268880952Y-112415000D02*
X268976190Y-112367380D01*
X268976190Y-112367380D02*
X269214285Y-112367380D01*
X269214285Y-112367380D02*
X269357142Y-112415000D01*
X269785714Y-113367380D02*
X269785714Y-112367380D01*
X269785714Y-112367380D02*
X270023809Y-112367380D01*
X270023809Y-112367380D02*
X270166666Y-112415000D01*
X270166666Y-112415000D02*
X270261904Y-112510238D01*
X270261904Y-112510238D02*
X270309523Y-112605476D01*
X270309523Y-112605476D02*
X270357142Y-112795952D01*
X270357142Y-112795952D02*
X270357142Y-112938809D01*
X270357142Y-112938809D02*
X270309523Y-113129285D01*
X270309523Y-113129285D02*
X270261904Y-113224523D01*
X270261904Y-113224523D02*
X270166666Y-113319761D01*
X270166666Y-113319761D02*
X270023809Y-113367380D01*
X270023809Y-113367380D02*
X269785714Y-113367380D01*
X270738095Y-113081666D02*
X271214285Y-113081666D01*
X270642857Y-113367380D02*
X270976190Y-112367380D01*
X270976190Y-112367380D02*
X271309523Y-113367380D01*
X269309523Y-113867380D02*
X268833333Y-113867380D01*
X268833333Y-113867380D02*
X268785714Y-114343571D01*
X268785714Y-114343571D02*
X268833333Y-114295952D01*
X268833333Y-114295952D02*
X268928571Y-114248333D01*
X268928571Y-114248333D02*
X269166666Y-114248333D01*
X269166666Y-114248333D02*
X269261904Y-114295952D01*
X269261904Y-114295952D02*
X269309523Y-114343571D01*
X269309523Y-114343571D02*
X269357142Y-114438809D01*
X269357142Y-114438809D02*
X269357142Y-114676904D01*
X269357142Y-114676904D02*
X269309523Y-114772142D01*
X269309523Y-114772142D02*
X269261904Y-114819761D01*
X269261904Y-114819761D02*
X269166666Y-114867380D01*
X269166666Y-114867380D02*
X268928571Y-114867380D01*
X268928571Y-114867380D02*
X268833333Y-114819761D01*
X268833333Y-114819761D02*
X268785714Y-114772142D01*
X269642857Y-113867380D02*
X269976190Y-114867380D01*
X269976190Y-114867380D02*
X270309523Y-113867380D01*
X269238095Y-115415000D02*
X269142857Y-115367380D01*
X269142857Y-115367380D02*
X269000000Y-115367380D01*
X269000000Y-115367380D02*
X268857143Y-115415000D01*
X268857143Y-115415000D02*
X268761905Y-115510238D01*
X268761905Y-115510238D02*
X268714286Y-115605476D01*
X268714286Y-115605476D02*
X268666667Y-115795952D01*
X268666667Y-115795952D02*
X268666667Y-115938809D01*
X268666667Y-115938809D02*
X268714286Y-116129285D01*
X268714286Y-116129285D02*
X268761905Y-116224523D01*
X268761905Y-116224523D02*
X268857143Y-116319761D01*
X268857143Y-116319761D02*
X269000000Y-116367380D01*
X269000000Y-116367380D02*
X269095238Y-116367380D01*
X269095238Y-116367380D02*
X269238095Y-116319761D01*
X269238095Y-116319761D02*
X269285714Y-116272142D01*
X269285714Y-116272142D02*
X269285714Y-115938809D01*
X269285714Y-115938809D02*
X269095238Y-115938809D01*
X269714286Y-116367380D02*
X269714286Y-115367380D01*
X269714286Y-115367380D02*
X270285714Y-116367380D01*
X270285714Y-116367380D02*
X270285714Y-115367380D01*
X270761905Y-116367380D02*
X270761905Y-115367380D01*
X270761905Y-115367380D02*
X271000000Y-115367380D01*
X271000000Y-115367380D02*
X271142857Y-115415000D01*
X271142857Y-115415000D02*
X271238095Y-115510238D01*
X271238095Y-115510238D02*
X271285714Y-115605476D01*
X271285714Y-115605476D02*
X271333333Y-115795952D01*
X271333333Y-115795952D02*
X271333333Y-115938809D01*
X271333333Y-115938809D02*
X271285714Y-116129285D01*
X271285714Y-116129285D02*
X271238095Y-116224523D01*
X271238095Y-116224523D02*
X271142857Y-116319761D01*
X271142857Y-116319761D02*
X271000000Y-116367380D01*
X271000000Y-116367380D02*
X270761905Y-116367380D01*
X268809524Y-111819761D02*
X268952381Y-111867380D01*
X268952381Y-111867380D02*
X269190476Y-111867380D01*
X269190476Y-111867380D02*
X269285714Y-111819761D01*
X269285714Y-111819761D02*
X269333333Y-111772142D01*
X269333333Y-111772142D02*
X269380952Y-111676904D01*
X269380952Y-111676904D02*
X269380952Y-111581666D01*
X269380952Y-111581666D02*
X269333333Y-111486428D01*
X269333333Y-111486428D02*
X269285714Y-111438809D01*
X269285714Y-111438809D02*
X269190476Y-111391190D01*
X269190476Y-111391190D02*
X269000000Y-111343571D01*
X269000000Y-111343571D02*
X268904762Y-111295952D01*
X268904762Y-111295952D02*
X268857143Y-111248333D01*
X268857143Y-111248333D02*
X268809524Y-111153095D01*
X268809524Y-111153095D02*
X268809524Y-111057857D01*
X268809524Y-111057857D02*
X268857143Y-110962619D01*
X268857143Y-110962619D02*
X268904762Y-110915000D01*
X268904762Y-110915000D02*
X269000000Y-110867380D01*
X269000000Y-110867380D02*
X269238095Y-110867380D01*
X269238095Y-110867380D02*
X269380952Y-110915000D01*
X270380952Y-111772142D02*
X270333333Y-111819761D01*
X270333333Y-111819761D02*
X270190476Y-111867380D01*
X270190476Y-111867380D02*
X270095238Y-111867380D01*
X270095238Y-111867380D02*
X269952381Y-111819761D01*
X269952381Y-111819761D02*
X269857143Y-111724523D01*
X269857143Y-111724523D02*
X269809524Y-111629285D01*
X269809524Y-111629285D02*
X269761905Y-111438809D01*
X269761905Y-111438809D02*
X269761905Y-111295952D01*
X269761905Y-111295952D02*
X269809524Y-111105476D01*
X269809524Y-111105476D02*
X269857143Y-111010238D01*
X269857143Y-111010238D02*
X269952381Y-110915000D01*
X269952381Y-110915000D02*
X270095238Y-110867380D01*
X270095238Y-110867380D02*
X270190476Y-110867380D01*
X270190476Y-110867380D02*
X270333333Y-110915000D01*
X270333333Y-110915000D02*
X270380952Y-110962619D01*
X271285714Y-111867380D02*
X270809524Y-111867380D01*
X270809524Y-111867380D02*
X270809524Y-110867380D01*
%TO.C,A1*%
X169561666Y-114714285D02*
X169561666Y-114238095D01*
X169847380Y-114809523D02*
X168847380Y-114476190D01*
X168847380Y-114476190D02*
X169847380Y-114142857D01*
X169847380Y-113285714D02*
X169847380Y-113857142D01*
X169847380Y-113571428D02*
X168847380Y-113571428D01*
X168847380Y-113571428D02*
X168990238Y-113666666D01*
X168990238Y-113666666D02*
X169085476Y-113761904D01*
X169085476Y-113761904D02*
X169133095Y-113857142D01*
X129472619Y-112738095D02*
X128663095Y-112738095D01*
X128663095Y-112738095D02*
X128567857Y-112785714D01*
X128567857Y-112785714D02*
X128520238Y-112833333D01*
X128520238Y-112833333D02*
X128472619Y-112928571D01*
X128472619Y-112928571D02*
X128472619Y-113119047D01*
X128472619Y-113119047D02*
X128520238Y-113214285D01*
X128520238Y-113214285D02*
X128567857Y-113261904D01*
X128567857Y-113261904D02*
X128663095Y-113309523D01*
X128663095Y-113309523D02*
X129472619Y-113309523D01*
X128520238Y-113738095D02*
X128472619Y-113880952D01*
X128472619Y-113880952D02*
X128472619Y-114119047D01*
X128472619Y-114119047D02*
X128520238Y-114214285D01*
X128520238Y-114214285D02*
X128567857Y-114261904D01*
X128567857Y-114261904D02*
X128663095Y-114309523D01*
X128663095Y-114309523D02*
X128758333Y-114309523D01*
X128758333Y-114309523D02*
X128853571Y-114261904D01*
X128853571Y-114261904D02*
X128901190Y-114214285D01*
X128901190Y-114214285D02*
X128948809Y-114119047D01*
X128948809Y-114119047D02*
X128996428Y-113928571D01*
X128996428Y-113928571D02*
X129044047Y-113833333D01*
X129044047Y-113833333D02*
X129091666Y-113785714D01*
X129091666Y-113785714D02*
X129186904Y-113738095D01*
X129186904Y-113738095D02*
X129282142Y-113738095D01*
X129282142Y-113738095D02*
X129377380Y-113785714D01*
X129377380Y-113785714D02*
X129425000Y-113833333D01*
X129425000Y-113833333D02*
X129472619Y-113928571D01*
X129472619Y-113928571D02*
X129472619Y-114166666D01*
X129472619Y-114166666D02*
X129425000Y-114309523D01*
X128996428Y-115071428D02*
X128948809Y-115214285D01*
X128948809Y-115214285D02*
X128901190Y-115261904D01*
X128901190Y-115261904D02*
X128805952Y-115309523D01*
X128805952Y-115309523D02*
X128663095Y-115309523D01*
X128663095Y-115309523D02*
X128567857Y-115261904D01*
X128567857Y-115261904D02*
X128520238Y-115214285D01*
X128520238Y-115214285D02*
X128472619Y-115119047D01*
X128472619Y-115119047D02*
X128472619Y-114738095D01*
X128472619Y-114738095D02*
X129472619Y-114738095D01*
X129472619Y-114738095D02*
X129472619Y-115071428D01*
X129472619Y-115071428D02*
X129425000Y-115166666D01*
X129425000Y-115166666D02*
X129377380Y-115214285D01*
X129377380Y-115214285D02*
X129282142Y-115261904D01*
X129282142Y-115261904D02*
X129186904Y-115261904D01*
X129186904Y-115261904D02*
X129091666Y-115214285D01*
X129091666Y-115214285D02*
X129044047Y-115166666D01*
X129044047Y-115166666D02*
X128996428Y-115071428D01*
X128996428Y-115071428D02*
X128996428Y-114738095D01*
%TO.C,U16*%
X59950380Y-115411094D02*
X60759904Y-115411094D01*
X60759904Y-115411094D02*
X60855142Y-115363475D01*
X60855142Y-115363475D02*
X60902761Y-115315856D01*
X60902761Y-115315856D02*
X60950380Y-115220618D01*
X60950380Y-115220618D02*
X60950380Y-115030142D01*
X60950380Y-115030142D02*
X60902761Y-114934904D01*
X60902761Y-114934904D02*
X60855142Y-114887285D01*
X60855142Y-114887285D02*
X60759904Y-114839666D01*
X60759904Y-114839666D02*
X59950380Y-114839666D01*
X60950380Y-113839666D02*
X60950380Y-114411094D01*
X60950380Y-114125380D02*
X59950380Y-114125380D01*
X59950380Y-114125380D02*
X60093238Y-114220618D01*
X60093238Y-114220618D02*
X60188476Y-114315856D01*
X60188476Y-114315856D02*
X60236095Y-114411094D01*
X59950380Y-112982523D02*
X59950380Y-113172999D01*
X59950380Y-113172999D02*
X59998000Y-113268237D01*
X59998000Y-113268237D02*
X60045619Y-113315856D01*
X60045619Y-113315856D02*
X60188476Y-113411094D01*
X60188476Y-113411094D02*
X60378952Y-113458713D01*
X60378952Y-113458713D02*
X60759904Y-113458713D01*
X60759904Y-113458713D02*
X60855142Y-113411094D01*
X60855142Y-113411094D02*
X60902761Y-113363475D01*
X60902761Y-113363475D02*
X60950380Y-113268237D01*
X60950380Y-113268237D02*
X60950380Y-113077761D01*
X60950380Y-113077761D02*
X60902761Y-112982523D01*
X60902761Y-112982523D02*
X60855142Y-112934904D01*
X60855142Y-112934904D02*
X60759904Y-112887285D01*
X60759904Y-112887285D02*
X60521809Y-112887285D01*
X60521809Y-112887285D02*
X60426571Y-112934904D01*
X60426571Y-112934904D02*
X60378952Y-112982523D01*
X60378952Y-112982523D02*
X60331333Y-113077761D01*
X60331333Y-113077761D02*
X60331333Y-113268237D01*
X60331333Y-113268237D02*
X60378952Y-113363475D01*
X60378952Y-113363475D02*
X60426571Y-113411094D01*
X60426571Y-113411094D02*
X60521809Y-113458713D01*
%TO.C,C2*%
X91833333Y-109072142D02*
X91785714Y-109119761D01*
X91785714Y-109119761D02*
X91642857Y-109167380D01*
X91642857Y-109167380D02*
X91547619Y-109167380D01*
X91547619Y-109167380D02*
X91404762Y-109119761D01*
X91404762Y-109119761D02*
X91309524Y-109024523D01*
X91309524Y-109024523D02*
X91261905Y-108929285D01*
X91261905Y-108929285D02*
X91214286Y-108738809D01*
X91214286Y-108738809D02*
X91214286Y-108595952D01*
X91214286Y-108595952D02*
X91261905Y-108405476D01*
X91261905Y-108405476D02*
X91309524Y-108310238D01*
X91309524Y-108310238D02*
X91404762Y-108215000D01*
X91404762Y-108215000D02*
X91547619Y-108167380D01*
X91547619Y-108167380D02*
X91642857Y-108167380D01*
X91642857Y-108167380D02*
X91785714Y-108215000D01*
X91785714Y-108215000D02*
X91833333Y-108262619D01*
X92214286Y-108262619D02*
X92261905Y-108215000D01*
X92261905Y-108215000D02*
X92357143Y-108167380D01*
X92357143Y-108167380D02*
X92595238Y-108167380D01*
X92595238Y-108167380D02*
X92690476Y-108215000D01*
X92690476Y-108215000D02*
X92738095Y-108262619D01*
X92738095Y-108262619D02*
X92785714Y-108357857D01*
X92785714Y-108357857D02*
X92785714Y-108453095D01*
X92785714Y-108453095D02*
X92738095Y-108595952D01*
X92738095Y-108595952D02*
X92166667Y-109167380D01*
X92166667Y-109167380D02*
X92785714Y-109167380D01*
%TO.C,C9*%
X202833333Y-121272142D02*
X202785714Y-121319761D01*
X202785714Y-121319761D02*
X202642857Y-121367380D01*
X202642857Y-121367380D02*
X202547619Y-121367380D01*
X202547619Y-121367380D02*
X202404762Y-121319761D01*
X202404762Y-121319761D02*
X202309524Y-121224523D01*
X202309524Y-121224523D02*
X202261905Y-121129285D01*
X202261905Y-121129285D02*
X202214286Y-120938809D01*
X202214286Y-120938809D02*
X202214286Y-120795952D01*
X202214286Y-120795952D02*
X202261905Y-120605476D01*
X202261905Y-120605476D02*
X202309524Y-120510238D01*
X202309524Y-120510238D02*
X202404762Y-120415000D01*
X202404762Y-120415000D02*
X202547619Y-120367380D01*
X202547619Y-120367380D02*
X202642857Y-120367380D01*
X202642857Y-120367380D02*
X202785714Y-120415000D01*
X202785714Y-120415000D02*
X202833333Y-120462619D01*
X203309524Y-121367380D02*
X203500000Y-121367380D01*
X203500000Y-121367380D02*
X203595238Y-121319761D01*
X203595238Y-121319761D02*
X203642857Y-121272142D01*
X203642857Y-121272142D02*
X203738095Y-121129285D01*
X203738095Y-121129285D02*
X203785714Y-120938809D01*
X203785714Y-120938809D02*
X203785714Y-120557857D01*
X203785714Y-120557857D02*
X203738095Y-120462619D01*
X203738095Y-120462619D02*
X203690476Y-120415000D01*
X203690476Y-120415000D02*
X203595238Y-120367380D01*
X203595238Y-120367380D02*
X203404762Y-120367380D01*
X203404762Y-120367380D02*
X203309524Y-120415000D01*
X203309524Y-120415000D02*
X203261905Y-120462619D01*
X203261905Y-120462619D02*
X203214286Y-120557857D01*
X203214286Y-120557857D02*
X203214286Y-120795952D01*
X203214286Y-120795952D02*
X203261905Y-120891190D01*
X203261905Y-120891190D02*
X203309524Y-120938809D01*
X203309524Y-120938809D02*
X203404762Y-120986428D01*
X203404762Y-120986428D02*
X203595238Y-120986428D01*
X203595238Y-120986428D02*
X203690476Y-120938809D01*
X203690476Y-120938809D02*
X203738095Y-120891190D01*
X203738095Y-120891190D02*
X203785714Y-120795952D01*
%TO.C,U11*%
X114901905Y-103002380D02*
X114901905Y-103811904D01*
X114901905Y-103811904D02*
X114949524Y-103907142D01*
X114949524Y-103907142D02*
X114997143Y-103954761D01*
X114997143Y-103954761D02*
X115092381Y-104002380D01*
X115092381Y-104002380D02*
X115282857Y-104002380D01*
X115282857Y-104002380D02*
X115378095Y-103954761D01*
X115378095Y-103954761D02*
X115425714Y-103907142D01*
X115425714Y-103907142D02*
X115473333Y-103811904D01*
X115473333Y-103811904D02*
X115473333Y-103002380D01*
X116473333Y-104002380D02*
X115901905Y-104002380D01*
X116187619Y-104002380D02*
X116187619Y-103002380D01*
X116187619Y-103002380D02*
X116092381Y-103145238D01*
X116092381Y-103145238D02*
X115997143Y-103240476D01*
X115997143Y-103240476D02*
X115901905Y-103288095D01*
X117425714Y-104002380D02*
X116854286Y-104002380D01*
X117140000Y-104002380D02*
X117140000Y-103002380D01*
X117140000Y-103002380D02*
X117044762Y-103145238D01*
X117044762Y-103145238D02*
X116949524Y-103240476D01*
X116949524Y-103240476D02*
X116854286Y-103288095D01*
X132567380Y-96157858D02*
X131567380Y-96157858D01*
X131900714Y-95681668D02*
X132567380Y-95681668D01*
X131995952Y-95681668D02*
X131948333Y-95634049D01*
X131948333Y-95634049D02*
X131900714Y-95538811D01*
X131900714Y-95538811D02*
X131900714Y-95395954D01*
X131900714Y-95395954D02*
X131948333Y-95300716D01*
X131948333Y-95300716D02*
X132043571Y-95253097D01*
X132043571Y-95253097D02*
X132567380Y-95253097D01*
X131900714Y-94776906D02*
X132567380Y-94776906D01*
X131995952Y-94776906D02*
X131948333Y-94729287D01*
X131948333Y-94729287D02*
X131900714Y-94634049D01*
X131900714Y-94634049D02*
X131900714Y-94491192D01*
X131900714Y-94491192D02*
X131948333Y-94395954D01*
X131948333Y-94395954D02*
X132043571Y-94348335D01*
X132043571Y-94348335D02*
X132567380Y-94348335D01*
X132519761Y-93491192D02*
X132567380Y-93586430D01*
X132567380Y-93586430D02*
X132567380Y-93776906D01*
X132567380Y-93776906D02*
X132519761Y-93872144D01*
X132519761Y-93872144D02*
X132424523Y-93919763D01*
X132424523Y-93919763D02*
X132043571Y-93919763D01*
X132043571Y-93919763D02*
X131948333Y-93872144D01*
X131948333Y-93872144D02*
X131900714Y-93776906D01*
X131900714Y-93776906D02*
X131900714Y-93586430D01*
X131900714Y-93586430D02*
X131948333Y-93491192D01*
X131948333Y-93491192D02*
X132043571Y-93443573D01*
X132043571Y-93443573D02*
X132138809Y-93443573D01*
X132138809Y-93443573D02*
X132234047Y-93919763D01*
X132567380Y-93015001D02*
X131900714Y-93015001D01*
X132091190Y-93015001D02*
X131995952Y-92967382D01*
X131995952Y-92967382D02*
X131948333Y-92919763D01*
X131948333Y-92919763D02*
X131900714Y-92824525D01*
X131900714Y-92824525D02*
X131900714Y-92729287D01*
X132948333Y-91510239D02*
X132900714Y-91557858D01*
X132900714Y-91557858D02*
X132757857Y-91653096D01*
X132757857Y-91653096D02*
X132662619Y-91700715D01*
X132662619Y-91700715D02*
X132519761Y-91748334D01*
X132519761Y-91748334D02*
X132281666Y-91795953D01*
X132281666Y-91795953D02*
X132091190Y-91795953D01*
X132091190Y-91795953D02*
X131853095Y-91748334D01*
X131853095Y-91748334D02*
X131710238Y-91700715D01*
X131710238Y-91700715D02*
X131615000Y-91653096D01*
X131615000Y-91653096D02*
X131472142Y-91557858D01*
X131472142Y-91557858D02*
X131424523Y-91510239D01*
X132519761Y-91176905D02*
X132567380Y-91081667D01*
X132567380Y-91081667D02*
X132567380Y-90891191D01*
X132567380Y-90891191D02*
X132519761Y-90795953D01*
X132519761Y-90795953D02*
X132424523Y-90748334D01*
X132424523Y-90748334D02*
X132376904Y-90748334D01*
X132376904Y-90748334D02*
X132281666Y-90795953D01*
X132281666Y-90795953D02*
X132234047Y-90891191D01*
X132234047Y-90891191D02*
X132234047Y-91034048D01*
X132234047Y-91034048D02*
X132186428Y-91129286D01*
X132186428Y-91129286D02*
X132091190Y-91176905D01*
X132091190Y-91176905D02*
X132043571Y-91176905D01*
X132043571Y-91176905D02*
X131948333Y-91129286D01*
X131948333Y-91129286D02*
X131900714Y-91034048D01*
X131900714Y-91034048D02*
X131900714Y-90891191D01*
X131900714Y-90891191D02*
X131948333Y-90795953D01*
X131900714Y-90462619D02*
X131900714Y-90081667D01*
X131567380Y-90319762D02*
X132424523Y-90319762D01*
X132424523Y-90319762D02*
X132519761Y-90272143D01*
X132519761Y-90272143D02*
X132567380Y-90176905D01*
X132567380Y-90176905D02*
X132567380Y-90081667D01*
X132519761Y-89367381D02*
X132567380Y-89462619D01*
X132567380Y-89462619D02*
X132567380Y-89653095D01*
X132567380Y-89653095D02*
X132519761Y-89748333D01*
X132519761Y-89748333D02*
X132424523Y-89795952D01*
X132424523Y-89795952D02*
X132043571Y-89795952D01*
X132043571Y-89795952D02*
X131948333Y-89748333D01*
X131948333Y-89748333D02*
X131900714Y-89653095D01*
X131900714Y-89653095D02*
X131900714Y-89462619D01*
X131900714Y-89462619D02*
X131948333Y-89367381D01*
X131948333Y-89367381D02*
X132043571Y-89319762D01*
X132043571Y-89319762D02*
X132138809Y-89319762D01*
X132138809Y-89319762D02*
X132234047Y-89795952D01*
X132519761Y-88510238D02*
X132567380Y-88605476D01*
X132567380Y-88605476D02*
X132567380Y-88795952D01*
X132567380Y-88795952D02*
X132519761Y-88891190D01*
X132519761Y-88891190D02*
X132424523Y-88938809D01*
X132424523Y-88938809D02*
X132043571Y-88938809D01*
X132043571Y-88938809D02*
X131948333Y-88891190D01*
X131948333Y-88891190D02*
X131900714Y-88795952D01*
X131900714Y-88795952D02*
X131900714Y-88605476D01*
X131900714Y-88605476D02*
X131948333Y-88510238D01*
X131948333Y-88510238D02*
X132043571Y-88462619D01*
X132043571Y-88462619D02*
X132138809Y-88462619D01*
X132138809Y-88462619D02*
X132234047Y-88938809D01*
X132567380Y-87891190D02*
X132519761Y-87986428D01*
X132519761Y-87986428D02*
X132424523Y-88034047D01*
X132424523Y-88034047D02*
X131567380Y-88034047D01*
X132948333Y-87605475D02*
X132900714Y-87557856D01*
X132900714Y-87557856D02*
X132757857Y-87462618D01*
X132757857Y-87462618D02*
X132662619Y-87414999D01*
X132662619Y-87414999D02*
X132519761Y-87367380D01*
X132519761Y-87367380D02*
X132281666Y-87319761D01*
X132281666Y-87319761D02*
X132091190Y-87319761D01*
X132091190Y-87319761D02*
X131853095Y-87367380D01*
X131853095Y-87367380D02*
X131710238Y-87414999D01*
X131710238Y-87414999D02*
X131615000Y-87462618D01*
X131615000Y-87462618D02*
X131472142Y-87557856D01*
X131472142Y-87557856D02*
X131424523Y-87605475D01*
X132519761Y-86291189D02*
X132567380Y-86148332D01*
X132567380Y-86148332D02*
X132567380Y-85910237D01*
X132567380Y-85910237D02*
X132519761Y-85814999D01*
X132519761Y-85814999D02*
X132472142Y-85767380D01*
X132472142Y-85767380D02*
X132376904Y-85719761D01*
X132376904Y-85719761D02*
X132281666Y-85719761D01*
X132281666Y-85719761D02*
X132186428Y-85767380D01*
X132186428Y-85767380D02*
X132138809Y-85814999D01*
X132138809Y-85814999D02*
X132091190Y-85910237D01*
X132091190Y-85910237D02*
X132043571Y-86100713D01*
X132043571Y-86100713D02*
X131995952Y-86195951D01*
X131995952Y-86195951D02*
X131948333Y-86243570D01*
X131948333Y-86243570D02*
X131853095Y-86291189D01*
X131853095Y-86291189D02*
X131757857Y-86291189D01*
X131757857Y-86291189D02*
X131662619Y-86243570D01*
X131662619Y-86243570D02*
X131615000Y-86195951D01*
X131615000Y-86195951D02*
X131567380Y-86100713D01*
X131567380Y-86100713D02*
X131567380Y-85862618D01*
X131567380Y-85862618D02*
X131615000Y-85719761D01*
X132567380Y-85291189D02*
X131567380Y-85291189D01*
X132567380Y-84862618D02*
X132043571Y-84862618D01*
X132043571Y-84862618D02*
X131948333Y-84910237D01*
X131948333Y-84910237D02*
X131900714Y-85005475D01*
X131900714Y-85005475D02*
X131900714Y-85148332D01*
X131900714Y-85148332D02*
X131948333Y-85243570D01*
X131948333Y-85243570D02*
X131995952Y-85291189D01*
X132567380Y-83957856D02*
X132043571Y-83957856D01*
X132043571Y-83957856D02*
X131948333Y-84005475D01*
X131948333Y-84005475D02*
X131900714Y-84100713D01*
X131900714Y-84100713D02*
X131900714Y-84291189D01*
X131900714Y-84291189D02*
X131948333Y-84386427D01*
X132519761Y-83957856D02*
X132567380Y-84053094D01*
X132567380Y-84053094D02*
X132567380Y-84291189D01*
X132567380Y-84291189D02*
X132519761Y-84386427D01*
X132519761Y-84386427D02*
X132424523Y-84434046D01*
X132424523Y-84434046D02*
X132329285Y-84434046D01*
X132329285Y-84434046D02*
X132234047Y-84386427D01*
X132234047Y-84386427D02*
X132186428Y-84291189D01*
X132186428Y-84291189D02*
X132186428Y-84053094D01*
X132186428Y-84053094D02*
X132138809Y-83957856D01*
X131900714Y-83624522D02*
X131900714Y-83243570D01*
X132567380Y-83481665D02*
X131710238Y-83481665D01*
X131710238Y-83481665D02*
X131615000Y-83434046D01*
X131615000Y-83434046D02*
X131567380Y-83338808D01*
X131567380Y-83338808D02*
X131567380Y-83243570D01*
X131900714Y-83053093D02*
X131900714Y-82672141D01*
X131567380Y-82910236D02*
X132424523Y-82910236D01*
X132424523Y-82910236D02*
X132519761Y-82862617D01*
X132519761Y-82862617D02*
X132567380Y-82767379D01*
X132567380Y-82767379D02*
X132567380Y-82672141D01*
X132567380Y-81738807D02*
X131567380Y-81738807D01*
X131567380Y-81738807D02*
X132281666Y-81405474D01*
X132281666Y-81405474D02*
X131567380Y-81072141D01*
X131567380Y-81072141D02*
X132567380Y-81072141D01*
X132567380Y-80453093D02*
X132519761Y-80548331D01*
X132519761Y-80548331D02*
X132472142Y-80595950D01*
X132472142Y-80595950D02*
X132376904Y-80643569D01*
X132376904Y-80643569D02*
X132091190Y-80643569D01*
X132091190Y-80643569D02*
X131995952Y-80595950D01*
X131995952Y-80595950D02*
X131948333Y-80548331D01*
X131948333Y-80548331D02*
X131900714Y-80453093D01*
X131900714Y-80453093D02*
X131900714Y-80310236D01*
X131900714Y-80310236D02*
X131948333Y-80214998D01*
X131948333Y-80214998D02*
X131995952Y-80167379D01*
X131995952Y-80167379D02*
X132091190Y-80119760D01*
X132091190Y-80119760D02*
X132376904Y-80119760D01*
X132376904Y-80119760D02*
X132472142Y-80167379D01*
X132472142Y-80167379D02*
X132519761Y-80214998D01*
X132519761Y-80214998D02*
X132567380Y-80310236D01*
X132567380Y-80310236D02*
X132567380Y-80453093D01*
X131900714Y-79834045D02*
X131900714Y-79453093D01*
X131567380Y-79691188D02*
X132424523Y-79691188D01*
X132424523Y-79691188D02*
X132519761Y-79643569D01*
X132519761Y-79643569D02*
X132567380Y-79548331D01*
X132567380Y-79548331D02*
X132567380Y-79453093D01*
X132567380Y-78976902D02*
X132519761Y-79072140D01*
X132519761Y-79072140D02*
X132472142Y-79119759D01*
X132472142Y-79119759D02*
X132376904Y-79167378D01*
X132376904Y-79167378D02*
X132091190Y-79167378D01*
X132091190Y-79167378D02*
X131995952Y-79119759D01*
X131995952Y-79119759D02*
X131948333Y-79072140D01*
X131948333Y-79072140D02*
X131900714Y-78976902D01*
X131900714Y-78976902D02*
X131900714Y-78834045D01*
X131900714Y-78834045D02*
X131948333Y-78738807D01*
X131948333Y-78738807D02*
X131995952Y-78691188D01*
X131995952Y-78691188D02*
X132091190Y-78643569D01*
X132091190Y-78643569D02*
X132376904Y-78643569D01*
X132376904Y-78643569D02*
X132472142Y-78691188D01*
X132472142Y-78691188D02*
X132519761Y-78738807D01*
X132519761Y-78738807D02*
X132567380Y-78834045D01*
X132567380Y-78834045D02*
X132567380Y-78976902D01*
X132567380Y-78214997D02*
X131900714Y-78214997D01*
X132091190Y-78214997D02*
X131995952Y-78167378D01*
X131995952Y-78167378D02*
X131948333Y-78119759D01*
X131948333Y-78119759D02*
X131900714Y-78024521D01*
X131900714Y-78024521D02*
X131900714Y-77929283D01*
X100367380Y-96824525D02*
X100367380Y-96634049D01*
X100367380Y-96634049D02*
X100415000Y-96538811D01*
X100415000Y-96538811D02*
X100510238Y-96443573D01*
X100510238Y-96443573D02*
X100700714Y-96395954D01*
X100700714Y-96395954D02*
X101034047Y-96395954D01*
X101034047Y-96395954D02*
X101224523Y-96443573D01*
X101224523Y-96443573D02*
X101319761Y-96538811D01*
X101319761Y-96538811D02*
X101367380Y-96634049D01*
X101367380Y-96634049D02*
X101367380Y-96824525D01*
X101367380Y-96824525D02*
X101319761Y-96919763D01*
X101319761Y-96919763D02*
X101224523Y-97015001D01*
X101224523Y-97015001D02*
X101034047Y-97062620D01*
X101034047Y-97062620D02*
X100700714Y-97062620D01*
X100700714Y-97062620D02*
X100510238Y-97015001D01*
X100510238Y-97015001D02*
X100415000Y-96919763D01*
X100415000Y-96919763D02*
X100367380Y-96824525D01*
X100700714Y-95538811D02*
X101367380Y-95538811D01*
X100700714Y-95967382D02*
X101224523Y-95967382D01*
X101224523Y-95967382D02*
X101319761Y-95919763D01*
X101319761Y-95919763D02*
X101367380Y-95824525D01*
X101367380Y-95824525D02*
X101367380Y-95681668D01*
X101367380Y-95681668D02*
X101319761Y-95586430D01*
X101319761Y-95586430D02*
X101272142Y-95538811D01*
X100700714Y-95205477D02*
X100700714Y-94824525D01*
X100367380Y-95062620D02*
X101224523Y-95062620D01*
X101224523Y-95062620D02*
X101319761Y-95015001D01*
X101319761Y-95015001D02*
X101367380Y-94919763D01*
X101367380Y-94919763D02*
X101367380Y-94824525D01*
X101319761Y-94110239D02*
X101367380Y-94205477D01*
X101367380Y-94205477D02*
X101367380Y-94395953D01*
X101367380Y-94395953D02*
X101319761Y-94491191D01*
X101319761Y-94491191D02*
X101224523Y-94538810D01*
X101224523Y-94538810D02*
X100843571Y-94538810D01*
X100843571Y-94538810D02*
X100748333Y-94491191D01*
X100748333Y-94491191D02*
X100700714Y-94395953D01*
X100700714Y-94395953D02*
X100700714Y-94205477D01*
X100700714Y-94205477D02*
X100748333Y-94110239D01*
X100748333Y-94110239D02*
X100843571Y-94062620D01*
X100843571Y-94062620D02*
X100938809Y-94062620D01*
X100938809Y-94062620D02*
X101034047Y-94538810D01*
X101367380Y-93634048D02*
X100700714Y-93634048D01*
X100891190Y-93634048D02*
X100795952Y-93586429D01*
X100795952Y-93586429D02*
X100748333Y-93538810D01*
X100748333Y-93538810D02*
X100700714Y-93443572D01*
X100700714Y-93443572D02*
X100700714Y-93348334D01*
X101748333Y-92129286D02*
X101700714Y-92176905D01*
X101700714Y-92176905D02*
X101557857Y-92272143D01*
X101557857Y-92272143D02*
X101462619Y-92319762D01*
X101462619Y-92319762D02*
X101319761Y-92367381D01*
X101319761Y-92367381D02*
X101081666Y-92415000D01*
X101081666Y-92415000D02*
X100891190Y-92415000D01*
X100891190Y-92415000D02*
X100653095Y-92367381D01*
X100653095Y-92367381D02*
X100510238Y-92319762D01*
X100510238Y-92319762D02*
X100415000Y-92272143D01*
X100415000Y-92272143D02*
X100272142Y-92176905D01*
X100272142Y-92176905D02*
X100224523Y-92129286D01*
X100700714Y-91748333D02*
X101700714Y-91748333D01*
X100748333Y-91748333D02*
X100700714Y-91653095D01*
X100700714Y-91653095D02*
X100700714Y-91462619D01*
X100700714Y-91462619D02*
X100748333Y-91367381D01*
X100748333Y-91367381D02*
X100795952Y-91319762D01*
X100795952Y-91319762D02*
X100891190Y-91272143D01*
X100891190Y-91272143D02*
X101176904Y-91272143D01*
X101176904Y-91272143D02*
X101272142Y-91319762D01*
X101272142Y-91319762D02*
X101319761Y-91367381D01*
X101319761Y-91367381D02*
X101367380Y-91462619D01*
X101367380Y-91462619D02*
X101367380Y-91653095D01*
X101367380Y-91653095D02*
X101319761Y-91748333D01*
X101367380Y-90700714D02*
X101319761Y-90795952D01*
X101319761Y-90795952D02*
X101224523Y-90843571D01*
X101224523Y-90843571D02*
X100367380Y-90843571D01*
X101367380Y-89891190D02*
X100843571Y-89891190D01*
X100843571Y-89891190D02*
X100748333Y-89938809D01*
X100748333Y-89938809D02*
X100700714Y-90034047D01*
X100700714Y-90034047D02*
X100700714Y-90224523D01*
X100700714Y-90224523D02*
X100748333Y-90319761D01*
X101319761Y-89891190D02*
X101367380Y-89986428D01*
X101367380Y-89986428D02*
X101367380Y-90224523D01*
X101367380Y-90224523D02*
X101319761Y-90319761D01*
X101319761Y-90319761D02*
X101224523Y-90367380D01*
X101224523Y-90367380D02*
X101129285Y-90367380D01*
X101129285Y-90367380D02*
X101034047Y-90319761D01*
X101034047Y-90319761D02*
X100986428Y-90224523D01*
X100986428Y-90224523D02*
X100986428Y-89986428D01*
X100986428Y-89986428D02*
X100938809Y-89891190D01*
X101319761Y-89462618D02*
X101367380Y-89367380D01*
X101367380Y-89367380D02*
X101367380Y-89176904D01*
X101367380Y-89176904D02*
X101319761Y-89081666D01*
X101319761Y-89081666D02*
X101224523Y-89034047D01*
X101224523Y-89034047D02*
X101176904Y-89034047D01*
X101176904Y-89034047D02*
X101081666Y-89081666D01*
X101081666Y-89081666D02*
X101034047Y-89176904D01*
X101034047Y-89176904D02*
X101034047Y-89319761D01*
X101034047Y-89319761D02*
X100986428Y-89414999D01*
X100986428Y-89414999D02*
X100891190Y-89462618D01*
X100891190Y-89462618D02*
X100843571Y-89462618D01*
X100843571Y-89462618D02*
X100748333Y-89414999D01*
X100748333Y-89414999D02*
X100700714Y-89319761D01*
X100700714Y-89319761D02*
X100700714Y-89176904D01*
X100700714Y-89176904D02*
X100748333Y-89081666D01*
X100700714Y-88748332D02*
X100700714Y-88367380D01*
X100367380Y-88605475D02*
X101224523Y-88605475D01*
X101224523Y-88605475D02*
X101319761Y-88557856D01*
X101319761Y-88557856D02*
X101367380Y-88462618D01*
X101367380Y-88462618D02*
X101367380Y-88367380D01*
X101367380Y-88034046D02*
X100700714Y-88034046D01*
X100367380Y-88034046D02*
X100415000Y-88081665D01*
X100415000Y-88081665D02*
X100462619Y-88034046D01*
X100462619Y-88034046D02*
X100415000Y-87986427D01*
X100415000Y-87986427D02*
X100367380Y-88034046D01*
X100367380Y-88034046D02*
X100462619Y-88034046D01*
X101319761Y-87129285D02*
X101367380Y-87224523D01*
X101367380Y-87224523D02*
X101367380Y-87414999D01*
X101367380Y-87414999D02*
X101319761Y-87510237D01*
X101319761Y-87510237D02*
X101272142Y-87557856D01*
X101272142Y-87557856D02*
X101176904Y-87605475D01*
X101176904Y-87605475D02*
X100891190Y-87605475D01*
X100891190Y-87605475D02*
X100795952Y-87557856D01*
X100795952Y-87557856D02*
X100748333Y-87510237D01*
X100748333Y-87510237D02*
X100700714Y-87414999D01*
X100700714Y-87414999D02*
X100700714Y-87224523D01*
X100700714Y-87224523D02*
X100748333Y-87129285D01*
X101748333Y-86795951D02*
X101700714Y-86748332D01*
X101700714Y-86748332D02*
X101557857Y-86653094D01*
X101557857Y-86653094D02*
X101462619Y-86605475D01*
X101462619Y-86605475D02*
X101319761Y-86557856D01*
X101319761Y-86557856D02*
X101081666Y-86510237D01*
X101081666Y-86510237D02*
X100891190Y-86510237D01*
X100891190Y-86510237D02*
X100653095Y-86557856D01*
X100653095Y-86557856D02*
X100510238Y-86605475D01*
X100510238Y-86605475D02*
X100415000Y-86653094D01*
X100415000Y-86653094D02*
X100272142Y-86748332D01*
X100272142Y-86748332D02*
X100224523Y-86795951D01*
X101319761Y-85481665D02*
X101367380Y-85386427D01*
X101367380Y-85386427D02*
X101367380Y-85195951D01*
X101367380Y-85195951D02*
X101319761Y-85100713D01*
X101319761Y-85100713D02*
X101224523Y-85053094D01*
X101224523Y-85053094D02*
X101176904Y-85053094D01*
X101176904Y-85053094D02*
X101081666Y-85100713D01*
X101081666Y-85100713D02*
X101034047Y-85195951D01*
X101034047Y-85195951D02*
X101034047Y-85338808D01*
X101034047Y-85338808D02*
X100986428Y-85434046D01*
X100986428Y-85434046D02*
X100891190Y-85481665D01*
X100891190Y-85481665D02*
X100843571Y-85481665D01*
X100843571Y-85481665D02*
X100748333Y-85434046D01*
X100748333Y-85434046D02*
X100700714Y-85338808D01*
X100700714Y-85338808D02*
X100700714Y-85195951D01*
X100700714Y-85195951D02*
X100748333Y-85100713D01*
X101367380Y-84624522D02*
X100367380Y-84624522D01*
X101367380Y-84195951D02*
X100843571Y-84195951D01*
X100843571Y-84195951D02*
X100748333Y-84243570D01*
X100748333Y-84243570D02*
X100700714Y-84338808D01*
X100700714Y-84338808D02*
X100700714Y-84481665D01*
X100700714Y-84481665D02*
X100748333Y-84576903D01*
X100748333Y-84576903D02*
X100795952Y-84624522D01*
X101367380Y-83291189D02*
X100843571Y-83291189D01*
X100843571Y-83291189D02*
X100748333Y-83338808D01*
X100748333Y-83338808D02*
X100700714Y-83434046D01*
X100700714Y-83434046D02*
X100700714Y-83624522D01*
X100700714Y-83624522D02*
X100748333Y-83719760D01*
X101319761Y-83291189D02*
X101367380Y-83386427D01*
X101367380Y-83386427D02*
X101367380Y-83624522D01*
X101367380Y-83624522D02*
X101319761Y-83719760D01*
X101319761Y-83719760D02*
X101224523Y-83767379D01*
X101224523Y-83767379D02*
X101129285Y-83767379D01*
X101129285Y-83767379D02*
X101034047Y-83719760D01*
X101034047Y-83719760D02*
X100986428Y-83624522D01*
X100986428Y-83624522D02*
X100986428Y-83386427D01*
X100986428Y-83386427D02*
X100938809Y-83291189D01*
X100700714Y-82957855D02*
X100700714Y-82576903D01*
X101367380Y-82814998D02*
X100510238Y-82814998D01*
X100510238Y-82814998D02*
X100415000Y-82767379D01*
X100415000Y-82767379D02*
X100367380Y-82672141D01*
X100367380Y-82672141D02*
X100367380Y-82576903D01*
X100700714Y-82386426D02*
X100700714Y-82005474D01*
X100367380Y-82243569D02*
X101224523Y-82243569D01*
X101224523Y-82243569D02*
X101319761Y-82195950D01*
X101319761Y-82195950D02*
X101367380Y-82100712D01*
X101367380Y-82100712D02*
X101367380Y-82005474D01*
X101367380Y-81072140D02*
X100700714Y-81072140D01*
X100795952Y-81072140D02*
X100748333Y-81024521D01*
X100748333Y-81024521D02*
X100700714Y-80929283D01*
X100700714Y-80929283D02*
X100700714Y-80786426D01*
X100700714Y-80786426D02*
X100748333Y-80691188D01*
X100748333Y-80691188D02*
X100843571Y-80643569D01*
X100843571Y-80643569D02*
X101367380Y-80643569D01*
X100843571Y-80643569D02*
X100748333Y-80595950D01*
X100748333Y-80595950D02*
X100700714Y-80500712D01*
X100700714Y-80500712D02*
X100700714Y-80357855D01*
X100700714Y-80357855D02*
X100748333Y-80262616D01*
X100748333Y-80262616D02*
X100843571Y-80214997D01*
X100843571Y-80214997D02*
X101367380Y-80214997D01*
X101367380Y-79595950D02*
X101319761Y-79691188D01*
X101319761Y-79691188D02*
X101272142Y-79738807D01*
X101272142Y-79738807D02*
X101176904Y-79786426D01*
X101176904Y-79786426D02*
X100891190Y-79786426D01*
X100891190Y-79786426D02*
X100795952Y-79738807D01*
X100795952Y-79738807D02*
X100748333Y-79691188D01*
X100748333Y-79691188D02*
X100700714Y-79595950D01*
X100700714Y-79595950D02*
X100700714Y-79453093D01*
X100700714Y-79453093D02*
X100748333Y-79357855D01*
X100748333Y-79357855D02*
X100795952Y-79310236D01*
X100795952Y-79310236D02*
X100891190Y-79262617D01*
X100891190Y-79262617D02*
X101176904Y-79262617D01*
X101176904Y-79262617D02*
X101272142Y-79310236D01*
X101272142Y-79310236D02*
X101319761Y-79357855D01*
X101319761Y-79357855D02*
X101367380Y-79453093D01*
X101367380Y-79453093D02*
X101367380Y-79595950D01*
X100700714Y-78976902D02*
X100700714Y-78595950D01*
X100367380Y-78834045D02*
X101224523Y-78834045D01*
X101224523Y-78834045D02*
X101319761Y-78786426D01*
X101319761Y-78786426D02*
X101367380Y-78691188D01*
X101367380Y-78691188D02*
X101367380Y-78595950D01*
X101367380Y-78119759D02*
X101319761Y-78214997D01*
X101319761Y-78214997D02*
X101272142Y-78262616D01*
X101272142Y-78262616D02*
X101176904Y-78310235D01*
X101176904Y-78310235D02*
X100891190Y-78310235D01*
X100891190Y-78310235D02*
X100795952Y-78262616D01*
X100795952Y-78262616D02*
X100748333Y-78214997D01*
X100748333Y-78214997D02*
X100700714Y-78119759D01*
X100700714Y-78119759D02*
X100700714Y-77976902D01*
X100700714Y-77976902D02*
X100748333Y-77881664D01*
X100748333Y-77881664D02*
X100795952Y-77834045D01*
X100795952Y-77834045D02*
X100891190Y-77786426D01*
X100891190Y-77786426D02*
X101176904Y-77786426D01*
X101176904Y-77786426D02*
X101272142Y-77834045D01*
X101272142Y-77834045D02*
X101319761Y-77881664D01*
X101319761Y-77881664D02*
X101367380Y-77976902D01*
X101367380Y-77976902D02*
X101367380Y-78119759D01*
X101367380Y-77357854D02*
X100700714Y-77357854D01*
X100891190Y-77357854D02*
X100795952Y-77310235D01*
X100795952Y-77310235D02*
X100748333Y-77262616D01*
X100748333Y-77262616D02*
X100700714Y-77167378D01*
X100700714Y-77167378D02*
X100700714Y-77072140D01*
%TO.C,U14*%
X238901905Y-103002380D02*
X238901905Y-103811904D01*
X238901905Y-103811904D02*
X238949524Y-103907142D01*
X238949524Y-103907142D02*
X238997143Y-103954761D01*
X238997143Y-103954761D02*
X239092381Y-104002380D01*
X239092381Y-104002380D02*
X239282857Y-104002380D01*
X239282857Y-104002380D02*
X239378095Y-103954761D01*
X239378095Y-103954761D02*
X239425714Y-103907142D01*
X239425714Y-103907142D02*
X239473333Y-103811904D01*
X239473333Y-103811904D02*
X239473333Y-103002380D01*
X240473333Y-104002380D02*
X239901905Y-104002380D01*
X240187619Y-104002380D02*
X240187619Y-103002380D01*
X240187619Y-103002380D02*
X240092381Y-103145238D01*
X240092381Y-103145238D02*
X239997143Y-103240476D01*
X239997143Y-103240476D02*
X239901905Y-103288095D01*
X241330476Y-103335714D02*
X241330476Y-104002380D01*
X241092381Y-102954761D02*
X240854286Y-103669047D01*
X240854286Y-103669047D02*
X241473333Y-103669047D01*
X224367380Y-96824525D02*
X224367380Y-96634049D01*
X224367380Y-96634049D02*
X224415000Y-96538811D01*
X224415000Y-96538811D02*
X224510238Y-96443573D01*
X224510238Y-96443573D02*
X224700714Y-96395954D01*
X224700714Y-96395954D02*
X225034047Y-96395954D01*
X225034047Y-96395954D02*
X225224523Y-96443573D01*
X225224523Y-96443573D02*
X225319761Y-96538811D01*
X225319761Y-96538811D02*
X225367380Y-96634049D01*
X225367380Y-96634049D02*
X225367380Y-96824525D01*
X225367380Y-96824525D02*
X225319761Y-96919763D01*
X225319761Y-96919763D02*
X225224523Y-97015001D01*
X225224523Y-97015001D02*
X225034047Y-97062620D01*
X225034047Y-97062620D02*
X224700714Y-97062620D01*
X224700714Y-97062620D02*
X224510238Y-97015001D01*
X224510238Y-97015001D02*
X224415000Y-96919763D01*
X224415000Y-96919763D02*
X224367380Y-96824525D01*
X224700714Y-95538811D02*
X225367380Y-95538811D01*
X224700714Y-95967382D02*
X225224523Y-95967382D01*
X225224523Y-95967382D02*
X225319761Y-95919763D01*
X225319761Y-95919763D02*
X225367380Y-95824525D01*
X225367380Y-95824525D02*
X225367380Y-95681668D01*
X225367380Y-95681668D02*
X225319761Y-95586430D01*
X225319761Y-95586430D02*
X225272142Y-95538811D01*
X224700714Y-95205477D02*
X224700714Y-94824525D01*
X224367380Y-95062620D02*
X225224523Y-95062620D01*
X225224523Y-95062620D02*
X225319761Y-95015001D01*
X225319761Y-95015001D02*
X225367380Y-94919763D01*
X225367380Y-94919763D02*
X225367380Y-94824525D01*
X225319761Y-94110239D02*
X225367380Y-94205477D01*
X225367380Y-94205477D02*
X225367380Y-94395953D01*
X225367380Y-94395953D02*
X225319761Y-94491191D01*
X225319761Y-94491191D02*
X225224523Y-94538810D01*
X225224523Y-94538810D02*
X224843571Y-94538810D01*
X224843571Y-94538810D02*
X224748333Y-94491191D01*
X224748333Y-94491191D02*
X224700714Y-94395953D01*
X224700714Y-94395953D02*
X224700714Y-94205477D01*
X224700714Y-94205477D02*
X224748333Y-94110239D01*
X224748333Y-94110239D02*
X224843571Y-94062620D01*
X224843571Y-94062620D02*
X224938809Y-94062620D01*
X224938809Y-94062620D02*
X225034047Y-94538810D01*
X225367380Y-93634048D02*
X224700714Y-93634048D01*
X224891190Y-93634048D02*
X224795952Y-93586429D01*
X224795952Y-93586429D02*
X224748333Y-93538810D01*
X224748333Y-93538810D02*
X224700714Y-93443572D01*
X224700714Y-93443572D02*
X224700714Y-93348334D01*
X225748333Y-92129286D02*
X225700714Y-92176905D01*
X225700714Y-92176905D02*
X225557857Y-92272143D01*
X225557857Y-92272143D02*
X225462619Y-92319762D01*
X225462619Y-92319762D02*
X225319761Y-92367381D01*
X225319761Y-92367381D02*
X225081666Y-92415000D01*
X225081666Y-92415000D02*
X224891190Y-92415000D01*
X224891190Y-92415000D02*
X224653095Y-92367381D01*
X224653095Y-92367381D02*
X224510238Y-92319762D01*
X224510238Y-92319762D02*
X224415000Y-92272143D01*
X224415000Y-92272143D02*
X224272142Y-92176905D01*
X224272142Y-92176905D02*
X224224523Y-92129286D01*
X224700714Y-91748333D02*
X225700714Y-91748333D01*
X224748333Y-91748333D02*
X224700714Y-91653095D01*
X224700714Y-91653095D02*
X224700714Y-91462619D01*
X224700714Y-91462619D02*
X224748333Y-91367381D01*
X224748333Y-91367381D02*
X224795952Y-91319762D01*
X224795952Y-91319762D02*
X224891190Y-91272143D01*
X224891190Y-91272143D02*
X225176904Y-91272143D01*
X225176904Y-91272143D02*
X225272142Y-91319762D01*
X225272142Y-91319762D02*
X225319761Y-91367381D01*
X225319761Y-91367381D02*
X225367380Y-91462619D01*
X225367380Y-91462619D02*
X225367380Y-91653095D01*
X225367380Y-91653095D02*
X225319761Y-91748333D01*
X225367380Y-90700714D02*
X225319761Y-90795952D01*
X225319761Y-90795952D02*
X225224523Y-90843571D01*
X225224523Y-90843571D02*
X224367380Y-90843571D01*
X225367380Y-89891190D02*
X224843571Y-89891190D01*
X224843571Y-89891190D02*
X224748333Y-89938809D01*
X224748333Y-89938809D02*
X224700714Y-90034047D01*
X224700714Y-90034047D02*
X224700714Y-90224523D01*
X224700714Y-90224523D02*
X224748333Y-90319761D01*
X225319761Y-89891190D02*
X225367380Y-89986428D01*
X225367380Y-89986428D02*
X225367380Y-90224523D01*
X225367380Y-90224523D02*
X225319761Y-90319761D01*
X225319761Y-90319761D02*
X225224523Y-90367380D01*
X225224523Y-90367380D02*
X225129285Y-90367380D01*
X225129285Y-90367380D02*
X225034047Y-90319761D01*
X225034047Y-90319761D02*
X224986428Y-90224523D01*
X224986428Y-90224523D02*
X224986428Y-89986428D01*
X224986428Y-89986428D02*
X224938809Y-89891190D01*
X225319761Y-89462618D02*
X225367380Y-89367380D01*
X225367380Y-89367380D02*
X225367380Y-89176904D01*
X225367380Y-89176904D02*
X225319761Y-89081666D01*
X225319761Y-89081666D02*
X225224523Y-89034047D01*
X225224523Y-89034047D02*
X225176904Y-89034047D01*
X225176904Y-89034047D02*
X225081666Y-89081666D01*
X225081666Y-89081666D02*
X225034047Y-89176904D01*
X225034047Y-89176904D02*
X225034047Y-89319761D01*
X225034047Y-89319761D02*
X224986428Y-89414999D01*
X224986428Y-89414999D02*
X224891190Y-89462618D01*
X224891190Y-89462618D02*
X224843571Y-89462618D01*
X224843571Y-89462618D02*
X224748333Y-89414999D01*
X224748333Y-89414999D02*
X224700714Y-89319761D01*
X224700714Y-89319761D02*
X224700714Y-89176904D01*
X224700714Y-89176904D02*
X224748333Y-89081666D01*
X224700714Y-88748332D02*
X224700714Y-88367380D01*
X224367380Y-88605475D02*
X225224523Y-88605475D01*
X225224523Y-88605475D02*
X225319761Y-88557856D01*
X225319761Y-88557856D02*
X225367380Y-88462618D01*
X225367380Y-88462618D02*
X225367380Y-88367380D01*
X225367380Y-88034046D02*
X224700714Y-88034046D01*
X224367380Y-88034046D02*
X224415000Y-88081665D01*
X224415000Y-88081665D02*
X224462619Y-88034046D01*
X224462619Y-88034046D02*
X224415000Y-87986427D01*
X224415000Y-87986427D02*
X224367380Y-88034046D01*
X224367380Y-88034046D02*
X224462619Y-88034046D01*
X225319761Y-87129285D02*
X225367380Y-87224523D01*
X225367380Y-87224523D02*
X225367380Y-87414999D01*
X225367380Y-87414999D02*
X225319761Y-87510237D01*
X225319761Y-87510237D02*
X225272142Y-87557856D01*
X225272142Y-87557856D02*
X225176904Y-87605475D01*
X225176904Y-87605475D02*
X224891190Y-87605475D01*
X224891190Y-87605475D02*
X224795952Y-87557856D01*
X224795952Y-87557856D02*
X224748333Y-87510237D01*
X224748333Y-87510237D02*
X224700714Y-87414999D01*
X224700714Y-87414999D02*
X224700714Y-87224523D01*
X224700714Y-87224523D02*
X224748333Y-87129285D01*
X225748333Y-86795951D02*
X225700714Y-86748332D01*
X225700714Y-86748332D02*
X225557857Y-86653094D01*
X225557857Y-86653094D02*
X225462619Y-86605475D01*
X225462619Y-86605475D02*
X225319761Y-86557856D01*
X225319761Y-86557856D02*
X225081666Y-86510237D01*
X225081666Y-86510237D02*
X224891190Y-86510237D01*
X224891190Y-86510237D02*
X224653095Y-86557856D01*
X224653095Y-86557856D02*
X224510238Y-86605475D01*
X224510238Y-86605475D02*
X224415000Y-86653094D01*
X224415000Y-86653094D02*
X224272142Y-86748332D01*
X224272142Y-86748332D02*
X224224523Y-86795951D01*
X225319761Y-85481665D02*
X225367380Y-85386427D01*
X225367380Y-85386427D02*
X225367380Y-85195951D01*
X225367380Y-85195951D02*
X225319761Y-85100713D01*
X225319761Y-85100713D02*
X225224523Y-85053094D01*
X225224523Y-85053094D02*
X225176904Y-85053094D01*
X225176904Y-85053094D02*
X225081666Y-85100713D01*
X225081666Y-85100713D02*
X225034047Y-85195951D01*
X225034047Y-85195951D02*
X225034047Y-85338808D01*
X225034047Y-85338808D02*
X224986428Y-85434046D01*
X224986428Y-85434046D02*
X224891190Y-85481665D01*
X224891190Y-85481665D02*
X224843571Y-85481665D01*
X224843571Y-85481665D02*
X224748333Y-85434046D01*
X224748333Y-85434046D02*
X224700714Y-85338808D01*
X224700714Y-85338808D02*
X224700714Y-85195951D01*
X224700714Y-85195951D02*
X224748333Y-85100713D01*
X225367380Y-84624522D02*
X224367380Y-84624522D01*
X225367380Y-84195951D02*
X224843571Y-84195951D01*
X224843571Y-84195951D02*
X224748333Y-84243570D01*
X224748333Y-84243570D02*
X224700714Y-84338808D01*
X224700714Y-84338808D02*
X224700714Y-84481665D01*
X224700714Y-84481665D02*
X224748333Y-84576903D01*
X224748333Y-84576903D02*
X224795952Y-84624522D01*
X225367380Y-83291189D02*
X224843571Y-83291189D01*
X224843571Y-83291189D02*
X224748333Y-83338808D01*
X224748333Y-83338808D02*
X224700714Y-83434046D01*
X224700714Y-83434046D02*
X224700714Y-83624522D01*
X224700714Y-83624522D02*
X224748333Y-83719760D01*
X225319761Y-83291189D02*
X225367380Y-83386427D01*
X225367380Y-83386427D02*
X225367380Y-83624522D01*
X225367380Y-83624522D02*
X225319761Y-83719760D01*
X225319761Y-83719760D02*
X225224523Y-83767379D01*
X225224523Y-83767379D02*
X225129285Y-83767379D01*
X225129285Y-83767379D02*
X225034047Y-83719760D01*
X225034047Y-83719760D02*
X224986428Y-83624522D01*
X224986428Y-83624522D02*
X224986428Y-83386427D01*
X224986428Y-83386427D02*
X224938809Y-83291189D01*
X224700714Y-82957855D02*
X224700714Y-82576903D01*
X225367380Y-82814998D02*
X224510238Y-82814998D01*
X224510238Y-82814998D02*
X224415000Y-82767379D01*
X224415000Y-82767379D02*
X224367380Y-82672141D01*
X224367380Y-82672141D02*
X224367380Y-82576903D01*
X224700714Y-82386426D02*
X224700714Y-82005474D01*
X224367380Y-82243569D02*
X225224523Y-82243569D01*
X225224523Y-82243569D02*
X225319761Y-82195950D01*
X225319761Y-82195950D02*
X225367380Y-82100712D01*
X225367380Y-82100712D02*
X225367380Y-82005474D01*
X225367380Y-81072140D02*
X224700714Y-81072140D01*
X224795952Y-81072140D02*
X224748333Y-81024521D01*
X224748333Y-81024521D02*
X224700714Y-80929283D01*
X224700714Y-80929283D02*
X224700714Y-80786426D01*
X224700714Y-80786426D02*
X224748333Y-80691188D01*
X224748333Y-80691188D02*
X224843571Y-80643569D01*
X224843571Y-80643569D02*
X225367380Y-80643569D01*
X224843571Y-80643569D02*
X224748333Y-80595950D01*
X224748333Y-80595950D02*
X224700714Y-80500712D01*
X224700714Y-80500712D02*
X224700714Y-80357855D01*
X224700714Y-80357855D02*
X224748333Y-80262616D01*
X224748333Y-80262616D02*
X224843571Y-80214997D01*
X224843571Y-80214997D02*
X225367380Y-80214997D01*
X225367380Y-79595950D02*
X225319761Y-79691188D01*
X225319761Y-79691188D02*
X225272142Y-79738807D01*
X225272142Y-79738807D02*
X225176904Y-79786426D01*
X225176904Y-79786426D02*
X224891190Y-79786426D01*
X224891190Y-79786426D02*
X224795952Y-79738807D01*
X224795952Y-79738807D02*
X224748333Y-79691188D01*
X224748333Y-79691188D02*
X224700714Y-79595950D01*
X224700714Y-79595950D02*
X224700714Y-79453093D01*
X224700714Y-79453093D02*
X224748333Y-79357855D01*
X224748333Y-79357855D02*
X224795952Y-79310236D01*
X224795952Y-79310236D02*
X224891190Y-79262617D01*
X224891190Y-79262617D02*
X225176904Y-79262617D01*
X225176904Y-79262617D02*
X225272142Y-79310236D01*
X225272142Y-79310236D02*
X225319761Y-79357855D01*
X225319761Y-79357855D02*
X225367380Y-79453093D01*
X225367380Y-79453093D02*
X225367380Y-79595950D01*
X224700714Y-78976902D02*
X224700714Y-78595950D01*
X224367380Y-78834045D02*
X225224523Y-78834045D01*
X225224523Y-78834045D02*
X225319761Y-78786426D01*
X225319761Y-78786426D02*
X225367380Y-78691188D01*
X225367380Y-78691188D02*
X225367380Y-78595950D01*
X225367380Y-78119759D02*
X225319761Y-78214997D01*
X225319761Y-78214997D02*
X225272142Y-78262616D01*
X225272142Y-78262616D02*
X225176904Y-78310235D01*
X225176904Y-78310235D02*
X224891190Y-78310235D01*
X224891190Y-78310235D02*
X224795952Y-78262616D01*
X224795952Y-78262616D02*
X224748333Y-78214997D01*
X224748333Y-78214997D02*
X224700714Y-78119759D01*
X224700714Y-78119759D02*
X224700714Y-77976902D01*
X224700714Y-77976902D02*
X224748333Y-77881664D01*
X224748333Y-77881664D02*
X224795952Y-77834045D01*
X224795952Y-77834045D02*
X224891190Y-77786426D01*
X224891190Y-77786426D02*
X225176904Y-77786426D01*
X225176904Y-77786426D02*
X225272142Y-77834045D01*
X225272142Y-77834045D02*
X225319761Y-77881664D01*
X225319761Y-77881664D02*
X225367380Y-77976902D01*
X225367380Y-77976902D02*
X225367380Y-78119759D01*
X225367380Y-77357854D02*
X224700714Y-77357854D01*
X224891190Y-77357854D02*
X224795952Y-77310235D01*
X224795952Y-77310235D02*
X224748333Y-77262616D01*
X224748333Y-77262616D02*
X224700714Y-77167378D01*
X224700714Y-77167378D02*
X224700714Y-77072140D01*
X256567380Y-96157858D02*
X255567380Y-96157858D01*
X255900714Y-95681668D02*
X256567380Y-95681668D01*
X255995952Y-95681668D02*
X255948333Y-95634049D01*
X255948333Y-95634049D02*
X255900714Y-95538811D01*
X255900714Y-95538811D02*
X255900714Y-95395954D01*
X255900714Y-95395954D02*
X255948333Y-95300716D01*
X255948333Y-95300716D02*
X256043571Y-95253097D01*
X256043571Y-95253097D02*
X256567380Y-95253097D01*
X255900714Y-94776906D02*
X256567380Y-94776906D01*
X255995952Y-94776906D02*
X255948333Y-94729287D01*
X255948333Y-94729287D02*
X255900714Y-94634049D01*
X255900714Y-94634049D02*
X255900714Y-94491192D01*
X255900714Y-94491192D02*
X255948333Y-94395954D01*
X255948333Y-94395954D02*
X256043571Y-94348335D01*
X256043571Y-94348335D02*
X256567380Y-94348335D01*
X256519761Y-93491192D02*
X256567380Y-93586430D01*
X256567380Y-93586430D02*
X256567380Y-93776906D01*
X256567380Y-93776906D02*
X256519761Y-93872144D01*
X256519761Y-93872144D02*
X256424523Y-93919763D01*
X256424523Y-93919763D02*
X256043571Y-93919763D01*
X256043571Y-93919763D02*
X255948333Y-93872144D01*
X255948333Y-93872144D02*
X255900714Y-93776906D01*
X255900714Y-93776906D02*
X255900714Y-93586430D01*
X255900714Y-93586430D02*
X255948333Y-93491192D01*
X255948333Y-93491192D02*
X256043571Y-93443573D01*
X256043571Y-93443573D02*
X256138809Y-93443573D01*
X256138809Y-93443573D02*
X256234047Y-93919763D01*
X256567380Y-93015001D02*
X255900714Y-93015001D01*
X256091190Y-93015001D02*
X255995952Y-92967382D01*
X255995952Y-92967382D02*
X255948333Y-92919763D01*
X255948333Y-92919763D02*
X255900714Y-92824525D01*
X255900714Y-92824525D02*
X255900714Y-92729287D01*
X256948333Y-91510239D02*
X256900714Y-91557858D01*
X256900714Y-91557858D02*
X256757857Y-91653096D01*
X256757857Y-91653096D02*
X256662619Y-91700715D01*
X256662619Y-91700715D02*
X256519761Y-91748334D01*
X256519761Y-91748334D02*
X256281666Y-91795953D01*
X256281666Y-91795953D02*
X256091190Y-91795953D01*
X256091190Y-91795953D02*
X255853095Y-91748334D01*
X255853095Y-91748334D02*
X255710238Y-91700715D01*
X255710238Y-91700715D02*
X255615000Y-91653096D01*
X255615000Y-91653096D02*
X255472142Y-91557858D01*
X255472142Y-91557858D02*
X255424523Y-91510239D01*
X256519761Y-91176905D02*
X256567380Y-91081667D01*
X256567380Y-91081667D02*
X256567380Y-90891191D01*
X256567380Y-90891191D02*
X256519761Y-90795953D01*
X256519761Y-90795953D02*
X256424523Y-90748334D01*
X256424523Y-90748334D02*
X256376904Y-90748334D01*
X256376904Y-90748334D02*
X256281666Y-90795953D01*
X256281666Y-90795953D02*
X256234047Y-90891191D01*
X256234047Y-90891191D02*
X256234047Y-91034048D01*
X256234047Y-91034048D02*
X256186428Y-91129286D01*
X256186428Y-91129286D02*
X256091190Y-91176905D01*
X256091190Y-91176905D02*
X256043571Y-91176905D01*
X256043571Y-91176905D02*
X255948333Y-91129286D01*
X255948333Y-91129286D02*
X255900714Y-91034048D01*
X255900714Y-91034048D02*
X255900714Y-90891191D01*
X255900714Y-90891191D02*
X255948333Y-90795953D01*
X255900714Y-90462619D02*
X255900714Y-90081667D01*
X255567380Y-90319762D02*
X256424523Y-90319762D01*
X256424523Y-90319762D02*
X256519761Y-90272143D01*
X256519761Y-90272143D02*
X256567380Y-90176905D01*
X256567380Y-90176905D02*
X256567380Y-90081667D01*
X256519761Y-89367381D02*
X256567380Y-89462619D01*
X256567380Y-89462619D02*
X256567380Y-89653095D01*
X256567380Y-89653095D02*
X256519761Y-89748333D01*
X256519761Y-89748333D02*
X256424523Y-89795952D01*
X256424523Y-89795952D02*
X256043571Y-89795952D01*
X256043571Y-89795952D02*
X255948333Y-89748333D01*
X255948333Y-89748333D02*
X255900714Y-89653095D01*
X255900714Y-89653095D02*
X255900714Y-89462619D01*
X255900714Y-89462619D02*
X255948333Y-89367381D01*
X255948333Y-89367381D02*
X256043571Y-89319762D01*
X256043571Y-89319762D02*
X256138809Y-89319762D01*
X256138809Y-89319762D02*
X256234047Y-89795952D01*
X256519761Y-88510238D02*
X256567380Y-88605476D01*
X256567380Y-88605476D02*
X256567380Y-88795952D01*
X256567380Y-88795952D02*
X256519761Y-88891190D01*
X256519761Y-88891190D02*
X256424523Y-88938809D01*
X256424523Y-88938809D02*
X256043571Y-88938809D01*
X256043571Y-88938809D02*
X255948333Y-88891190D01*
X255948333Y-88891190D02*
X255900714Y-88795952D01*
X255900714Y-88795952D02*
X255900714Y-88605476D01*
X255900714Y-88605476D02*
X255948333Y-88510238D01*
X255948333Y-88510238D02*
X256043571Y-88462619D01*
X256043571Y-88462619D02*
X256138809Y-88462619D01*
X256138809Y-88462619D02*
X256234047Y-88938809D01*
X256567380Y-87891190D02*
X256519761Y-87986428D01*
X256519761Y-87986428D02*
X256424523Y-88034047D01*
X256424523Y-88034047D02*
X255567380Y-88034047D01*
X256948333Y-87605475D02*
X256900714Y-87557856D01*
X256900714Y-87557856D02*
X256757857Y-87462618D01*
X256757857Y-87462618D02*
X256662619Y-87414999D01*
X256662619Y-87414999D02*
X256519761Y-87367380D01*
X256519761Y-87367380D02*
X256281666Y-87319761D01*
X256281666Y-87319761D02*
X256091190Y-87319761D01*
X256091190Y-87319761D02*
X255853095Y-87367380D01*
X255853095Y-87367380D02*
X255710238Y-87414999D01*
X255710238Y-87414999D02*
X255615000Y-87462618D01*
X255615000Y-87462618D02*
X255472142Y-87557856D01*
X255472142Y-87557856D02*
X255424523Y-87605475D01*
X256519761Y-86291189D02*
X256567380Y-86148332D01*
X256567380Y-86148332D02*
X256567380Y-85910237D01*
X256567380Y-85910237D02*
X256519761Y-85814999D01*
X256519761Y-85814999D02*
X256472142Y-85767380D01*
X256472142Y-85767380D02*
X256376904Y-85719761D01*
X256376904Y-85719761D02*
X256281666Y-85719761D01*
X256281666Y-85719761D02*
X256186428Y-85767380D01*
X256186428Y-85767380D02*
X256138809Y-85814999D01*
X256138809Y-85814999D02*
X256091190Y-85910237D01*
X256091190Y-85910237D02*
X256043571Y-86100713D01*
X256043571Y-86100713D02*
X255995952Y-86195951D01*
X255995952Y-86195951D02*
X255948333Y-86243570D01*
X255948333Y-86243570D02*
X255853095Y-86291189D01*
X255853095Y-86291189D02*
X255757857Y-86291189D01*
X255757857Y-86291189D02*
X255662619Y-86243570D01*
X255662619Y-86243570D02*
X255615000Y-86195951D01*
X255615000Y-86195951D02*
X255567380Y-86100713D01*
X255567380Y-86100713D02*
X255567380Y-85862618D01*
X255567380Y-85862618D02*
X255615000Y-85719761D01*
X256567380Y-85291189D02*
X255567380Y-85291189D01*
X256567380Y-84862618D02*
X256043571Y-84862618D01*
X256043571Y-84862618D02*
X255948333Y-84910237D01*
X255948333Y-84910237D02*
X255900714Y-85005475D01*
X255900714Y-85005475D02*
X255900714Y-85148332D01*
X255900714Y-85148332D02*
X255948333Y-85243570D01*
X255948333Y-85243570D02*
X255995952Y-85291189D01*
X256567380Y-83957856D02*
X256043571Y-83957856D01*
X256043571Y-83957856D02*
X255948333Y-84005475D01*
X255948333Y-84005475D02*
X255900714Y-84100713D01*
X255900714Y-84100713D02*
X255900714Y-84291189D01*
X255900714Y-84291189D02*
X255948333Y-84386427D01*
X256519761Y-83957856D02*
X256567380Y-84053094D01*
X256567380Y-84053094D02*
X256567380Y-84291189D01*
X256567380Y-84291189D02*
X256519761Y-84386427D01*
X256519761Y-84386427D02*
X256424523Y-84434046D01*
X256424523Y-84434046D02*
X256329285Y-84434046D01*
X256329285Y-84434046D02*
X256234047Y-84386427D01*
X256234047Y-84386427D02*
X256186428Y-84291189D01*
X256186428Y-84291189D02*
X256186428Y-84053094D01*
X256186428Y-84053094D02*
X256138809Y-83957856D01*
X255900714Y-83624522D02*
X255900714Y-83243570D01*
X256567380Y-83481665D02*
X255710238Y-83481665D01*
X255710238Y-83481665D02*
X255615000Y-83434046D01*
X255615000Y-83434046D02*
X255567380Y-83338808D01*
X255567380Y-83338808D02*
X255567380Y-83243570D01*
X255900714Y-83053093D02*
X255900714Y-82672141D01*
X255567380Y-82910236D02*
X256424523Y-82910236D01*
X256424523Y-82910236D02*
X256519761Y-82862617D01*
X256519761Y-82862617D02*
X256567380Y-82767379D01*
X256567380Y-82767379D02*
X256567380Y-82672141D01*
X256567380Y-81738807D02*
X255567380Y-81738807D01*
X255567380Y-81738807D02*
X256281666Y-81405474D01*
X256281666Y-81405474D02*
X255567380Y-81072141D01*
X255567380Y-81072141D02*
X256567380Y-81072141D01*
X256567380Y-80453093D02*
X256519761Y-80548331D01*
X256519761Y-80548331D02*
X256472142Y-80595950D01*
X256472142Y-80595950D02*
X256376904Y-80643569D01*
X256376904Y-80643569D02*
X256091190Y-80643569D01*
X256091190Y-80643569D02*
X255995952Y-80595950D01*
X255995952Y-80595950D02*
X255948333Y-80548331D01*
X255948333Y-80548331D02*
X255900714Y-80453093D01*
X255900714Y-80453093D02*
X255900714Y-80310236D01*
X255900714Y-80310236D02*
X255948333Y-80214998D01*
X255948333Y-80214998D02*
X255995952Y-80167379D01*
X255995952Y-80167379D02*
X256091190Y-80119760D01*
X256091190Y-80119760D02*
X256376904Y-80119760D01*
X256376904Y-80119760D02*
X256472142Y-80167379D01*
X256472142Y-80167379D02*
X256519761Y-80214998D01*
X256519761Y-80214998D02*
X256567380Y-80310236D01*
X256567380Y-80310236D02*
X256567380Y-80453093D01*
X255900714Y-79834045D02*
X255900714Y-79453093D01*
X255567380Y-79691188D02*
X256424523Y-79691188D01*
X256424523Y-79691188D02*
X256519761Y-79643569D01*
X256519761Y-79643569D02*
X256567380Y-79548331D01*
X256567380Y-79548331D02*
X256567380Y-79453093D01*
X256567380Y-78976902D02*
X256519761Y-79072140D01*
X256519761Y-79072140D02*
X256472142Y-79119759D01*
X256472142Y-79119759D02*
X256376904Y-79167378D01*
X256376904Y-79167378D02*
X256091190Y-79167378D01*
X256091190Y-79167378D02*
X255995952Y-79119759D01*
X255995952Y-79119759D02*
X255948333Y-79072140D01*
X255948333Y-79072140D02*
X255900714Y-78976902D01*
X255900714Y-78976902D02*
X255900714Y-78834045D01*
X255900714Y-78834045D02*
X255948333Y-78738807D01*
X255948333Y-78738807D02*
X255995952Y-78691188D01*
X255995952Y-78691188D02*
X256091190Y-78643569D01*
X256091190Y-78643569D02*
X256376904Y-78643569D01*
X256376904Y-78643569D02*
X256472142Y-78691188D01*
X256472142Y-78691188D02*
X256519761Y-78738807D01*
X256519761Y-78738807D02*
X256567380Y-78834045D01*
X256567380Y-78834045D02*
X256567380Y-78976902D01*
X256567380Y-78214997D02*
X255900714Y-78214997D01*
X256091190Y-78214997D02*
X255995952Y-78167378D01*
X255995952Y-78167378D02*
X255948333Y-78119759D01*
X255948333Y-78119759D02*
X255900714Y-78024521D01*
X255900714Y-78024521D02*
X255900714Y-77929283D01*
%TO.C,U12*%
X176901905Y-103002380D02*
X176901905Y-103811904D01*
X176901905Y-103811904D02*
X176949524Y-103907142D01*
X176949524Y-103907142D02*
X176997143Y-103954761D01*
X176997143Y-103954761D02*
X177092381Y-104002380D01*
X177092381Y-104002380D02*
X177282857Y-104002380D01*
X177282857Y-104002380D02*
X177378095Y-103954761D01*
X177378095Y-103954761D02*
X177425714Y-103907142D01*
X177425714Y-103907142D02*
X177473333Y-103811904D01*
X177473333Y-103811904D02*
X177473333Y-103002380D01*
X178473333Y-104002380D02*
X177901905Y-104002380D01*
X178187619Y-104002380D02*
X178187619Y-103002380D01*
X178187619Y-103002380D02*
X178092381Y-103145238D01*
X178092381Y-103145238D02*
X177997143Y-103240476D01*
X177997143Y-103240476D02*
X177901905Y-103288095D01*
X178854286Y-103097619D02*
X178901905Y-103050000D01*
X178901905Y-103050000D02*
X178997143Y-103002380D01*
X178997143Y-103002380D02*
X179235238Y-103002380D01*
X179235238Y-103002380D02*
X179330476Y-103050000D01*
X179330476Y-103050000D02*
X179378095Y-103097619D01*
X179378095Y-103097619D02*
X179425714Y-103192857D01*
X179425714Y-103192857D02*
X179425714Y-103288095D01*
X179425714Y-103288095D02*
X179378095Y-103430952D01*
X179378095Y-103430952D02*
X178806667Y-104002380D01*
X178806667Y-104002380D02*
X179425714Y-104002380D01*
X194567380Y-96157858D02*
X193567380Y-96157858D01*
X193900714Y-95681668D02*
X194567380Y-95681668D01*
X193995952Y-95681668D02*
X193948333Y-95634049D01*
X193948333Y-95634049D02*
X193900714Y-95538811D01*
X193900714Y-95538811D02*
X193900714Y-95395954D01*
X193900714Y-95395954D02*
X193948333Y-95300716D01*
X193948333Y-95300716D02*
X194043571Y-95253097D01*
X194043571Y-95253097D02*
X194567380Y-95253097D01*
X193900714Y-94776906D02*
X194567380Y-94776906D01*
X193995952Y-94776906D02*
X193948333Y-94729287D01*
X193948333Y-94729287D02*
X193900714Y-94634049D01*
X193900714Y-94634049D02*
X193900714Y-94491192D01*
X193900714Y-94491192D02*
X193948333Y-94395954D01*
X193948333Y-94395954D02*
X194043571Y-94348335D01*
X194043571Y-94348335D02*
X194567380Y-94348335D01*
X194519761Y-93491192D02*
X194567380Y-93586430D01*
X194567380Y-93586430D02*
X194567380Y-93776906D01*
X194567380Y-93776906D02*
X194519761Y-93872144D01*
X194519761Y-93872144D02*
X194424523Y-93919763D01*
X194424523Y-93919763D02*
X194043571Y-93919763D01*
X194043571Y-93919763D02*
X193948333Y-93872144D01*
X193948333Y-93872144D02*
X193900714Y-93776906D01*
X193900714Y-93776906D02*
X193900714Y-93586430D01*
X193900714Y-93586430D02*
X193948333Y-93491192D01*
X193948333Y-93491192D02*
X194043571Y-93443573D01*
X194043571Y-93443573D02*
X194138809Y-93443573D01*
X194138809Y-93443573D02*
X194234047Y-93919763D01*
X194567380Y-93015001D02*
X193900714Y-93015001D01*
X194091190Y-93015001D02*
X193995952Y-92967382D01*
X193995952Y-92967382D02*
X193948333Y-92919763D01*
X193948333Y-92919763D02*
X193900714Y-92824525D01*
X193900714Y-92824525D02*
X193900714Y-92729287D01*
X194948333Y-91510239D02*
X194900714Y-91557858D01*
X194900714Y-91557858D02*
X194757857Y-91653096D01*
X194757857Y-91653096D02*
X194662619Y-91700715D01*
X194662619Y-91700715D02*
X194519761Y-91748334D01*
X194519761Y-91748334D02*
X194281666Y-91795953D01*
X194281666Y-91795953D02*
X194091190Y-91795953D01*
X194091190Y-91795953D02*
X193853095Y-91748334D01*
X193853095Y-91748334D02*
X193710238Y-91700715D01*
X193710238Y-91700715D02*
X193615000Y-91653096D01*
X193615000Y-91653096D02*
X193472142Y-91557858D01*
X193472142Y-91557858D02*
X193424523Y-91510239D01*
X194519761Y-91176905D02*
X194567380Y-91081667D01*
X194567380Y-91081667D02*
X194567380Y-90891191D01*
X194567380Y-90891191D02*
X194519761Y-90795953D01*
X194519761Y-90795953D02*
X194424523Y-90748334D01*
X194424523Y-90748334D02*
X194376904Y-90748334D01*
X194376904Y-90748334D02*
X194281666Y-90795953D01*
X194281666Y-90795953D02*
X194234047Y-90891191D01*
X194234047Y-90891191D02*
X194234047Y-91034048D01*
X194234047Y-91034048D02*
X194186428Y-91129286D01*
X194186428Y-91129286D02*
X194091190Y-91176905D01*
X194091190Y-91176905D02*
X194043571Y-91176905D01*
X194043571Y-91176905D02*
X193948333Y-91129286D01*
X193948333Y-91129286D02*
X193900714Y-91034048D01*
X193900714Y-91034048D02*
X193900714Y-90891191D01*
X193900714Y-90891191D02*
X193948333Y-90795953D01*
X193900714Y-90462619D02*
X193900714Y-90081667D01*
X193567380Y-90319762D02*
X194424523Y-90319762D01*
X194424523Y-90319762D02*
X194519761Y-90272143D01*
X194519761Y-90272143D02*
X194567380Y-90176905D01*
X194567380Y-90176905D02*
X194567380Y-90081667D01*
X194519761Y-89367381D02*
X194567380Y-89462619D01*
X194567380Y-89462619D02*
X194567380Y-89653095D01*
X194567380Y-89653095D02*
X194519761Y-89748333D01*
X194519761Y-89748333D02*
X194424523Y-89795952D01*
X194424523Y-89795952D02*
X194043571Y-89795952D01*
X194043571Y-89795952D02*
X193948333Y-89748333D01*
X193948333Y-89748333D02*
X193900714Y-89653095D01*
X193900714Y-89653095D02*
X193900714Y-89462619D01*
X193900714Y-89462619D02*
X193948333Y-89367381D01*
X193948333Y-89367381D02*
X194043571Y-89319762D01*
X194043571Y-89319762D02*
X194138809Y-89319762D01*
X194138809Y-89319762D02*
X194234047Y-89795952D01*
X194519761Y-88510238D02*
X194567380Y-88605476D01*
X194567380Y-88605476D02*
X194567380Y-88795952D01*
X194567380Y-88795952D02*
X194519761Y-88891190D01*
X194519761Y-88891190D02*
X194424523Y-88938809D01*
X194424523Y-88938809D02*
X194043571Y-88938809D01*
X194043571Y-88938809D02*
X193948333Y-88891190D01*
X193948333Y-88891190D02*
X193900714Y-88795952D01*
X193900714Y-88795952D02*
X193900714Y-88605476D01*
X193900714Y-88605476D02*
X193948333Y-88510238D01*
X193948333Y-88510238D02*
X194043571Y-88462619D01*
X194043571Y-88462619D02*
X194138809Y-88462619D01*
X194138809Y-88462619D02*
X194234047Y-88938809D01*
X194567380Y-87891190D02*
X194519761Y-87986428D01*
X194519761Y-87986428D02*
X194424523Y-88034047D01*
X194424523Y-88034047D02*
X193567380Y-88034047D01*
X194948333Y-87605475D02*
X194900714Y-87557856D01*
X194900714Y-87557856D02*
X194757857Y-87462618D01*
X194757857Y-87462618D02*
X194662619Y-87414999D01*
X194662619Y-87414999D02*
X194519761Y-87367380D01*
X194519761Y-87367380D02*
X194281666Y-87319761D01*
X194281666Y-87319761D02*
X194091190Y-87319761D01*
X194091190Y-87319761D02*
X193853095Y-87367380D01*
X193853095Y-87367380D02*
X193710238Y-87414999D01*
X193710238Y-87414999D02*
X193615000Y-87462618D01*
X193615000Y-87462618D02*
X193472142Y-87557856D01*
X193472142Y-87557856D02*
X193424523Y-87605475D01*
X194519761Y-86291189D02*
X194567380Y-86148332D01*
X194567380Y-86148332D02*
X194567380Y-85910237D01*
X194567380Y-85910237D02*
X194519761Y-85814999D01*
X194519761Y-85814999D02*
X194472142Y-85767380D01*
X194472142Y-85767380D02*
X194376904Y-85719761D01*
X194376904Y-85719761D02*
X194281666Y-85719761D01*
X194281666Y-85719761D02*
X194186428Y-85767380D01*
X194186428Y-85767380D02*
X194138809Y-85814999D01*
X194138809Y-85814999D02*
X194091190Y-85910237D01*
X194091190Y-85910237D02*
X194043571Y-86100713D01*
X194043571Y-86100713D02*
X193995952Y-86195951D01*
X193995952Y-86195951D02*
X193948333Y-86243570D01*
X193948333Y-86243570D02*
X193853095Y-86291189D01*
X193853095Y-86291189D02*
X193757857Y-86291189D01*
X193757857Y-86291189D02*
X193662619Y-86243570D01*
X193662619Y-86243570D02*
X193615000Y-86195951D01*
X193615000Y-86195951D02*
X193567380Y-86100713D01*
X193567380Y-86100713D02*
X193567380Y-85862618D01*
X193567380Y-85862618D02*
X193615000Y-85719761D01*
X194567380Y-85291189D02*
X193567380Y-85291189D01*
X194567380Y-84862618D02*
X194043571Y-84862618D01*
X194043571Y-84862618D02*
X193948333Y-84910237D01*
X193948333Y-84910237D02*
X193900714Y-85005475D01*
X193900714Y-85005475D02*
X193900714Y-85148332D01*
X193900714Y-85148332D02*
X193948333Y-85243570D01*
X193948333Y-85243570D02*
X193995952Y-85291189D01*
X194567380Y-83957856D02*
X194043571Y-83957856D01*
X194043571Y-83957856D02*
X193948333Y-84005475D01*
X193948333Y-84005475D02*
X193900714Y-84100713D01*
X193900714Y-84100713D02*
X193900714Y-84291189D01*
X193900714Y-84291189D02*
X193948333Y-84386427D01*
X194519761Y-83957856D02*
X194567380Y-84053094D01*
X194567380Y-84053094D02*
X194567380Y-84291189D01*
X194567380Y-84291189D02*
X194519761Y-84386427D01*
X194519761Y-84386427D02*
X194424523Y-84434046D01*
X194424523Y-84434046D02*
X194329285Y-84434046D01*
X194329285Y-84434046D02*
X194234047Y-84386427D01*
X194234047Y-84386427D02*
X194186428Y-84291189D01*
X194186428Y-84291189D02*
X194186428Y-84053094D01*
X194186428Y-84053094D02*
X194138809Y-83957856D01*
X193900714Y-83624522D02*
X193900714Y-83243570D01*
X194567380Y-83481665D02*
X193710238Y-83481665D01*
X193710238Y-83481665D02*
X193615000Y-83434046D01*
X193615000Y-83434046D02*
X193567380Y-83338808D01*
X193567380Y-83338808D02*
X193567380Y-83243570D01*
X193900714Y-83053093D02*
X193900714Y-82672141D01*
X193567380Y-82910236D02*
X194424523Y-82910236D01*
X194424523Y-82910236D02*
X194519761Y-82862617D01*
X194519761Y-82862617D02*
X194567380Y-82767379D01*
X194567380Y-82767379D02*
X194567380Y-82672141D01*
X194567380Y-81738807D02*
X193567380Y-81738807D01*
X193567380Y-81738807D02*
X194281666Y-81405474D01*
X194281666Y-81405474D02*
X193567380Y-81072141D01*
X193567380Y-81072141D02*
X194567380Y-81072141D01*
X194567380Y-80453093D02*
X194519761Y-80548331D01*
X194519761Y-80548331D02*
X194472142Y-80595950D01*
X194472142Y-80595950D02*
X194376904Y-80643569D01*
X194376904Y-80643569D02*
X194091190Y-80643569D01*
X194091190Y-80643569D02*
X193995952Y-80595950D01*
X193995952Y-80595950D02*
X193948333Y-80548331D01*
X193948333Y-80548331D02*
X193900714Y-80453093D01*
X193900714Y-80453093D02*
X193900714Y-80310236D01*
X193900714Y-80310236D02*
X193948333Y-80214998D01*
X193948333Y-80214998D02*
X193995952Y-80167379D01*
X193995952Y-80167379D02*
X194091190Y-80119760D01*
X194091190Y-80119760D02*
X194376904Y-80119760D01*
X194376904Y-80119760D02*
X194472142Y-80167379D01*
X194472142Y-80167379D02*
X194519761Y-80214998D01*
X194519761Y-80214998D02*
X194567380Y-80310236D01*
X194567380Y-80310236D02*
X194567380Y-80453093D01*
X193900714Y-79834045D02*
X193900714Y-79453093D01*
X193567380Y-79691188D02*
X194424523Y-79691188D01*
X194424523Y-79691188D02*
X194519761Y-79643569D01*
X194519761Y-79643569D02*
X194567380Y-79548331D01*
X194567380Y-79548331D02*
X194567380Y-79453093D01*
X194567380Y-78976902D02*
X194519761Y-79072140D01*
X194519761Y-79072140D02*
X194472142Y-79119759D01*
X194472142Y-79119759D02*
X194376904Y-79167378D01*
X194376904Y-79167378D02*
X194091190Y-79167378D01*
X194091190Y-79167378D02*
X193995952Y-79119759D01*
X193995952Y-79119759D02*
X193948333Y-79072140D01*
X193948333Y-79072140D02*
X193900714Y-78976902D01*
X193900714Y-78976902D02*
X193900714Y-78834045D01*
X193900714Y-78834045D02*
X193948333Y-78738807D01*
X193948333Y-78738807D02*
X193995952Y-78691188D01*
X193995952Y-78691188D02*
X194091190Y-78643569D01*
X194091190Y-78643569D02*
X194376904Y-78643569D01*
X194376904Y-78643569D02*
X194472142Y-78691188D01*
X194472142Y-78691188D02*
X194519761Y-78738807D01*
X194519761Y-78738807D02*
X194567380Y-78834045D01*
X194567380Y-78834045D02*
X194567380Y-78976902D01*
X194567380Y-78214997D02*
X193900714Y-78214997D01*
X194091190Y-78214997D02*
X193995952Y-78167378D01*
X193995952Y-78167378D02*
X193948333Y-78119759D01*
X193948333Y-78119759D02*
X193900714Y-78024521D01*
X193900714Y-78024521D02*
X193900714Y-77929283D01*
X162367380Y-96824525D02*
X162367380Y-96634049D01*
X162367380Y-96634049D02*
X162415000Y-96538811D01*
X162415000Y-96538811D02*
X162510238Y-96443573D01*
X162510238Y-96443573D02*
X162700714Y-96395954D01*
X162700714Y-96395954D02*
X163034047Y-96395954D01*
X163034047Y-96395954D02*
X163224523Y-96443573D01*
X163224523Y-96443573D02*
X163319761Y-96538811D01*
X163319761Y-96538811D02*
X163367380Y-96634049D01*
X163367380Y-96634049D02*
X163367380Y-96824525D01*
X163367380Y-96824525D02*
X163319761Y-96919763D01*
X163319761Y-96919763D02*
X163224523Y-97015001D01*
X163224523Y-97015001D02*
X163034047Y-97062620D01*
X163034047Y-97062620D02*
X162700714Y-97062620D01*
X162700714Y-97062620D02*
X162510238Y-97015001D01*
X162510238Y-97015001D02*
X162415000Y-96919763D01*
X162415000Y-96919763D02*
X162367380Y-96824525D01*
X162700714Y-95538811D02*
X163367380Y-95538811D01*
X162700714Y-95967382D02*
X163224523Y-95967382D01*
X163224523Y-95967382D02*
X163319761Y-95919763D01*
X163319761Y-95919763D02*
X163367380Y-95824525D01*
X163367380Y-95824525D02*
X163367380Y-95681668D01*
X163367380Y-95681668D02*
X163319761Y-95586430D01*
X163319761Y-95586430D02*
X163272142Y-95538811D01*
X162700714Y-95205477D02*
X162700714Y-94824525D01*
X162367380Y-95062620D02*
X163224523Y-95062620D01*
X163224523Y-95062620D02*
X163319761Y-95015001D01*
X163319761Y-95015001D02*
X163367380Y-94919763D01*
X163367380Y-94919763D02*
X163367380Y-94824525D01*
X163319761Y-94110239D02*
X163367380Y-94205477D01*
X163367380Y-94205477D02*
X163367380Y-94395953D01*
X163367380Y-94395953D02*
X163319761Y-94491191D01*
X163319761Y-94491191D02*
X163224523Y-94538810D01*
X163224523Y-94538810D02*
X162843571Y-94538810D01*
X162843571Y-94538810D02*
X162748333Y-94491191D01*
X162748333Y-94491191D02*
X162700714Y-94395953D01*
X162700714Y-94395953D02*
X162700714Y-94205477D01*
X162700714Y-94205477D02*
X162748333Y-94110239D01*
X162748333Y-94110239D02*
X162843571Y-94062620D01*
X162843571Y-94062620D02*
X162938809Y-94062620D01*
X162938809Y-94062620D02*
X163034047Y-94538810D01*
X163367380Y-93634048D02*
X162700714Y-93634048D01*
X162891190Y-93634048D02*
X162795952Y-93586429D01*
X162795952Y-93586429D02*
X162748333Y-93538810D01*
X162748333Y-93538810D02*
X162700714Y-93443572D01*
X162700714Y-93443572D02*
X162700714Y-93348334D01*
X163748333Y-92129286D02*
X163700714Y-92176905D01*
X163700714Y-92176905D02*
X163557857Y-92272143D01*
X163557857Y-92272143D02*
X163462619Y-92319762D01*
X163462619Y-92319762D02*
X163319761Y-92367381D01*
X163319761Y-92367381D02*
X163081666Y-92415000D01*
X163081666Y-92415000D02*
X162891190Y-92415000D01*
X162891190Y-92415000D02*
X162653095Y-92367381D01*
X162653095Y-92367381D02*
X162510238Y-92319762D01*
X162510238Y-92319762D02*
X162415000Y-92272143D01*
X162415000Y-92272143D02*
X162272142Y-92176905D01*
X162272142Y-92176905D02*
X162224523Y-92129286D01*
X162700714Y-91748333D02*
X163700714Y-91748333D01*
X162748333Y-91748333D02*
X162700714Y-91653095D01*
X162700714Y-91653095D02*
X162700714Y-91462619D01*
X162700714Y-91462619D02*
X162748333Y-91367381D01*
X162748333Y-91367381D02*
X162795952Y-91319762D01*
X162795952Y-91319762D02*
X162891190Y-91272143D01*
X162891190Y-91272143D02*
X163176904Y-91272143D01*
X163176904Y-91272143D02*
X163272142Y-91319762D01*
X163272142Y-91319762D02*
X163319761Y-91367381D01*
X163319761Y-91367381D02*
X163367380Y-91462619D01*
X163367380Y-91462619D02*
X163367380Y-91653095D01*
X163367380Y-91653095D02*
X163319761Y-91748333D01*
X163367380Y-90700714D02*
X163319761Y-90795952D01*
X163319761Y-90795952D02*
X163224523Y-90843571D01*
X163224523Y-90843571D02*
X162367380Y-90843571D01*
X163367380Y-89891190D02*
X162843571Y-89891190D01*
X162843571Y-89891190D02*
X162748333Y-89938809D01*
X162748333Y-89938809D02*
X162700714Y-90034047D01*
X162700714Y-90034047D02*
X162700714Y-90224523D01*
X162700714Y-90224523D02*
X162748333Y-90319761D01*
X163319761Y-89891190D02*
X163367380Y-89986428D01*
X163367380Y-89986428D02*
X163367380Y-90224523D01*
X163367380Y-90224523D02*
X163319761Y-90319761D01*
X163319761Y-90319761D02*
X163224523Y-90367380D01*
X163224523Y-90367380D02*
X163129285Y-90367380D01*
X163129285Y-90367380D02*
X163034047Y-90319761D01*
X163034047Y-90319761D02*
X162986428Y-90224523D01*
X162986428Y-90224523D02*
X162986428Y-89986428D01*
X162986428Y-89986428D02*
X162938809Y-89891190D01*
X163319761Y-89462618D02*
X163367380Y-89367380D01*
X163367380Y-89367380D02*
X163367380Y-89176904D01*
X163367380Y-89176904D02*
X163319761Y-89081666D01*
X163319761Y-89081666D02*
X163224523Y-89034047D01*
X163224523Y-89034047D02*
X163176904Y-89034047D01*
X163176904Y-89034047D02*
X163081666Y-89081666D01*
X163081666Y-89081666D02*
X163034047Y-89176904D01*
X163034047Y-89176904D02*
X163034047Y-89319761D01*
X163034047Y-89319761D02*
X162986428Y-89414999D01*
X162986428Y-89414999D02*
X162891190Y-89462618D01*
X162891190Y-89462618D02*
X162843571Y-89462618D01*
X162843571Y-89462618D02*
X162748333Y-89414999D01*
X162748333Y-89414999D02*
X162700714Y-89319761D01*
X162700714Y-89319761D02*
X162700714Y-89176904D01*
X162700714Y-89176904D02*
X162748333Y-89081666D01*
X162700714Y-88748332D02*
X162700714Y-88367380D01*
X162367380Y-88605475D02*
X163224523Y-88605475D01*
X163224523Y-88605475D02*
X163319761Y-88557856D01*
X163319761Y-88557856D02*
X163367380Y-88462618D01*
X163367380Y-88462618D02*
X163367380Y-88367380D01*
X163367380Y-88034046D02*
X162700714Y-88034046D01*
X162367380Y-88034046D02*
X162415000Y-88081665D01*
X162415000Y-88081665D02*
X162462619Y-88034046D01*
X162462619Y-88034046D02*
X162415000Y-87986427D01*
X162415000Y-87986427D02*
X162367380Y-88034046D01*
X162367380Y-88034046D02*
X162462619Y-88034046D01*
X163319761Y-87129285D02*
X163367380Y-87224523D01*
X163367380Y-87224523D02*
X163367380Y-87414999D01*
X163367380Y-87414999D02*
X163319761Y-87510237D01*
X163319761Y-87510237D02*
X163272142Y-87557856D01*
X163272142Y-87557856D02*
X163176904Y-87605475D01*
X163176904Y-87605475D02*
X162891190Y-87605475D01*
X162891190Y-87605475D02*
X162795952Y-87557856D01*
X162795952Y-87557856D02*
X162748333Y-87510237D01*
X162748333Y-87510237D02*
X162700714Y-87414999D01*
X162700714Y-87414999D02*
X162700714Y-87224523D01*
X162700714Y-87224523D02*
X162748333Y-87129285D01*
X163748333Y-86795951D02*
X163700714Y-86748332D01*
X163700714Y-86748332D02*
X163557857Y-86653094D01*
X163557857Y-86653094D02*
X163462619Y-86605475D01*
X163462619Y-86605475D02*
X163319761Y-86557856D01*
X163319761Y-86557856D02*
X163081666Y-86510237D01*
X163081666Y-86510237D02*
X162891190Y-86510237D01*
X162891190Y-86510237D02*
X162653095Y-86557856D01*
X162653095Y-86557856D02*
X162510238Y-86605475D01*
X162510238Y-86605475D02*
X162415000Y-86653094D01*
X162415000Y-86653094D02*
X162272142Y-86748332D01*
X162272142Y-86748332D02*
X162224523Y-86795951D01*
X163319761Y-85481665D02*
X163367380Y-85386427D01*
X163367380Y-85386427D02*
X163367380Y-85195951D01*
X163367380Y-85195951D02*
X163319761Y-85100713D01*
X163319761Y-85100713D02*
X163224523Y-85053094D01*
X163224523Y-85053094D02*
X163176904Y-85053094D01*
X163176904Y-85053094D02*
X163081666Y-85100713D01*
X163081666Y-85100713D02*
X163034047Y-85195951D01*
X163034047Y-85195951D02*
X163034047Y-85338808D01*
X163034047Y-85338808D02*
X162986428Y-85434046D01*
X162986428Y-85434046D02*
X162891190Y-85481665D01*
X162891190Y-85481665D02*
X162843571Y-85481665D01*
X162843571Y-85481665D02*
X162748333Y-85434046D01*
X162748333Y-85434046D02*
X162700714Y-85338808D01*
X162700714Y-85338808D02*
X162700714Y-85195951D01*
X162700714Y-85195951D02*
X162748333Y-85100713D01*
X163367380Y-84624522D02*
X162367380Y-84624522D01*
X163367380Y-84195951D02*
X162843571Y-84195951D01*
X162843571Y-84195951D02*
X162748333Y-84243570D01*
X162748333Y-84243570D02*
X162700714Y-84338808D01*
X162700714Y-84338808D02*
X162700714Y-84481665D01*
X162700714Y-84481665D02*
X162748333Y-84576903D01*
X162748333Y-84576903D02*
X162795952Y-84624522D01*
X163367380Y-83291189D02*
X162843571Y-83291189D01*
X162843571Y-83291189D02*
X162748333Y-83338808D01*
X162748333Y-83338808D02*
X162700714Y-83434046D01*
X162700714Y-83434046D02*
X162700714Y-83624522D01*
X162700714Y-83624522D02*
X162748333Y-83719760D01*
X163319761Y-83291189D02*
X163367380Y-83386427D01*
X163367380Y-83386427D02*
X163367380Y-83624522D01*
X163367380Y-83624522D02*
X163319761Y-83719760D01*
X163319761Y-83719760D02*
X163224523Y-83767379D01*
X163224523Y-83767379D02*
X163129285Y-83767379D01*
X163129285Y-83767379D02*
X163034047Y-83719760D01*
X163034047Y-83719760D02*
X162986428Y-83624522D01*
X162986428Y-83624522D02*
X162986428Y-83386427D01*
X162986428Y-83386427D02*
X162938809Y-83291189D01*
X162700714Y-82957855D02*
X162700714Y-82576903D01*
X163367380Y-82814998D02*
X162510238Y-82814998D01*
X162510238Y-82814998D02*
X162415000Y-82767379D01*
X162415000Y-82767379D02*
X162367380Y-82672141D01*
X162367380Y-82672141D02*
X162367380Y-82576903D01*
X162700714Y-82386426D02*
X162700714Y-82005474D01*
X162367380Y-82243569D02*
X163224523Y-82243569D01*
X163224523Y-82243569D02*
X163319761Y-82195950D01*
X163319761Y-82195950D02*
X163367380Y-82100712D01*
X163367380Y-82100712D02*
X163367380Y-82005474D01*
X163367380Y-81072140D02*
X162700714Y-81072140D01*
X162795952Y-81072140D02*
X162748333Y-81024521D01*
X162748333Y-81024521D02*
X162700714Y-80929283D01*
X162700714Y-80929283D02*
X162700714Y-80786426D01*
X162700714Y-80786426D02*
X162748333Y-80691188D01*
X162748333Y-80691188D02*
X162843571Y-80643569D01*
X162843571Y-80643569D02*
X163367380Y-80643569D01*
X162843571Y-80643569D02*
X162748333Y-80595950D01*
X162748333Y-80595950D02*
X162700714Y-80500712D01*
X162700714Y-80500712D02*
X162700714Y-80357855D01*
X162700714Y-80357855D02*
X162748333Y-80262616D01*
X162748333Y-80262616D02*
X162843571Y-80214997D01*
X162843571Y-80214997D02*
X163367380Y-80214997D01*
X163367380Y-79595950D02*
X163319761Y-79691188D01*
X163319761Y-79691188D02*
X163272142Y-79738807D01*
X163272142Y-79738807D02*
X163176904Y-79786426D01*
X163176904Y-79786426D02*
X162891190Y-79786426D01*
X162891190Y-79786426D02*
X162795952Y-79738807D01*
X162795952Y-79738807D02*
X162748333Y-79691188D01*
X162748333Y-79691188D02*
X162700714Y-79595950D01*
X162700714Y-79595950D02*
X162700714Y-79453093D01*
X162700714Y-79453093D02*
X162748333Y-79357855D01*
X162748333Y-79357855D02*
X162795952Y-79310236D01*
X162795952Y-79310236D02*
X162891190Y-79262617D01*
X162891190Y-79262617D02*
X163176904Y-79262617D01*
X163176904Y-79262617D02*
X163272142Y-79310236D01*
X163272142Y-79310236D02*
X163319761Y-79357855D01*
X163319761Y-79357855D02*
X163367380Y-79453093D01*
X163367380Y-79453093D02*
X163367380Y-79595950D01*
X162700714Y-78976902D02*
X162700714Y-78595950D01*
X162367380Y-78834045D02*
X163224523Y-78834045D01*
X163224523Y-78834045D02*
X163319761Y-78786426D01*
X163319761Y-78786426D02*
X163367380Y-78691188D01*
X163367380Y-78691188D02*
X163367380Y-78595950D01*
X163367380Y-78119759D02*
X163319761Y-78214997D01*
X163319761Y-78214997D02*
X163272142Y-78262616D01*
X163272142Y-78262616D02*
X163176904Y-78310235D01*
X163176904Y-78310235D02*
X162891190Y-78310235D01*
X162891190Y-78310235D02*
X162795952Y-78262616D01*
X162795952Y-78262616D02*
X162748333Y-78214997D01*
X162748333Y-78214997D02*
X162700714Y-78119759D01*
X162700714Y-78119759D02*
X162700714Y-77976902D01*
X162700714Y-77976902D02*
X162748333Y-77881664D01*
X162748333Y-77881664D02*
X162795952Y-77834045D01*
X162795952Y-77834045D02*
X162891190Y-77786426D01*
X162891190Y-77786426D02*
X163176904Y-77786426D01*
X163176904Y-77786426D02*
X163272142Y-77834045D01*
X163272142Y-77834045D02*
X163319761Y-77881664D01*
X163319761Y-77881664D02*
X163367380Y-77976902D01*
X163367380Y-77976902D02*
X163367380Y-78119759D01*
X163367380Y-77357854D02*
X162700714Y-77357854D01*
X162891190Y-77357854D02*
X162795952Y-77310235D01*
X162795952Y-77310235D02*
X162748333Y-77262616D01*
X162748333Y-77262616D02*
X162700714Y-77167378D01*
X162700714Y-77167378D02*
X162700714Y-77072140D01*
%TO.C,C13*%
X61206142Y-111397142D02*
X61158523Y-111444761D01*
X61158523Y-111444761D02*
X61015666Y-111492380D01*
X61015666Y-111492380D02*
X60920428Y-111492380D01*
X60920428Y-111492380D02*
X60777571Y-111444761D01*
X60777571Y-111444761D02*
X60682333Y-111349523D01*
X60682333Y-111349523D02*
X60634714Y-111254285D01*
X60634714Y-111254285D02*
X60587095Y-111063809D01*
X60587095Y-111063809D02*
X60587095Y-110920952D01*
X60587095Y-110920952D02*
X60634714Y-110730476D01*
X60634714Y-110730476D02*
X60682333Y-110635238D01*
X60682333Y-110635238D02*
X60777571Y-110540000D01*
X60777571Y-110540000D02*
X60920428Y-110492380D01*
X60920428Y-110492380D02*
X61015666Y-110492380D01*
X61015666Y-110492380D02*
X61158523Y-110540000D01*
X61158523Y-110540000D02*
X61206142Y-110587619D01*
X62158523Y-111492380D02*
X61587095Y-111492380D01*
X61872809Y-111492380D02*
X61872809Y-110492380D01*
X61872809Y-110492380D02*
X61777571Y-110635238D01*
X61777571Y-110635238D02*
X61682333Y-110730476D01*
X61682333Y-110730476D02*
X61587095Y-110778095D01*
X62491857Y-110492380D02*
X63110904Y-110492380D01*
X63110904Y-110492380D02*
X62777571Y-110873333D01*
X62777571Y-110873333D02*
X62920428Y-110873333D01*
X62920428Y-110873333D02*
X63015666Y-110920952D01*
X63015666Y-110920952D02*
X63063285Y-110968571D01*
X63063285Y-110968571D02*
X63110904Y-111063809D01*
X63110904Y-111063809D02*
X63110904Y-111301904D01*
X63110904Y-111301904D02*
X63063285Y-111397142D01*
X63063285Y-111397142D02*
X63015666Y-111444761D01*
X63015666Y-111444761D02*
X62920428Y-111492380D01*
X62920428Y-111492380D02*
X62634714Y-111492380D01*
X62634714Y-111492380D02*
X62539476Y-111444761D01*
X62539476Y-111444761D02*
X62491857Y-111397142D01*
%TO.C,J1*%
X260887380Y-105333333D02*
X261601666Y-105333333D01*
X261601666Y-105333333D02*
X261744523Y-105380952D01*
X261744523Y-105380952D02*
X261839761Y-105476190D01*
X261839761Y-105476190D02*
X261887380Y-105619047D01*
X261887380Y-105619047D02*
X261887380Y-105714285D01*
X261887380Y-104333333D02*
X261887380Y-104904761D01*
X261887380Y-104619047D02*
X260887380Y-104619047D01*
X260887380Y-104619047D02*
X261030238Y-104714285D01*
X261030238Y-104714285D02*
X261125476Y-104809523D01*
X261125476Y-104809523D02*
X261173095Y-104904761D01*
X268809524Y-103319761D02*
X268952381Y-103367380D01*
X268952381Y-103367380D02*
X269190476Y-103367380D01*
X269190476Y-103367380D02*
X269285714Y-103319761D01*
X269285714Y-103319761D02*
X269333333Y-103272142D01*
X269333333Y-103272142D02*
X269380952Y-103176904D01*
X269380952Y-103176904D02*
X269380952Y-103081666D01*
X269380952Y-103081666D02*
X269333333Y-102986428D01*
X269333333Y-102986428D02*
X269285714Y-102938809D01*
X269285714Y-102938809D02*
X269190476Y-102891190D01*
X269190476Y-102891190D02*
X269000000Y-102843571D01*
X269000000Y-102843571D02*
X268904762Y-102795952D01*
X268904762Y-102795952D02*
X268857143Y-102748333D01*
X268857143Y-102748333D02*
X268809524Y-102653095D01*
X268809524Y-102653095D02*
X268809524Y-102557857D01*
X268809524Y-102557857D02*
X268857143Y-102462619D01*
X268857143Y-102462619D02*
X268904762Y-102415000D01*
X268904762Y-102415000D02*
X269000000Y-102367380D01*
X269000000Y-102367380D02*
X269238095Y-102367380D01*
X269238095Y-102367380D02*
X269380952Y-102415000D01*
X270380952Y-103272142D02*
X270333333Y-103319761D01*
X270333333Y-103319761D02*
X270190476Y-103367380D01*
X270190476Y-103367380D02*
X270095238Y-103367380D01*
X270095238Y-103367380D02*
X269952381Y-103319761D01*
X269952381Y-103319761D02*
X269857143Y-103224523D01*
X269857143Y-103224523D02*
X269809524Y-103129285D01*
X269809524Y-103129285D02*
X269761905Y-102938809D01*
X269761905Y-102938809D02*
X269761905Y-102795952D01*
X269761905Y-102795952D02*
X269809524Y-102605476D01*
X269809524Y-102605476D02*
X269857143Y-102510238D01*
X269857143Y-102510238D02*
X269952381Y-102415000D01*
X269952381Y-102415000D02*
X270095238Y-102367380D01*
X270095238Y-102367380D02*
X270190476Y-102367380D01*
X270190476Y-102367380D02*
X270333333Y-102415000D01*
X270333333Y-102415000D02*
X270380952Y-102462619D01*
X271285714Y-103367380D02*
X270809524Y-103367380D01*
X270809524Y-103367380D02*
X270809524Y-102367380D01*
X269309523Y-105367380D02*
X268833333Y-105367380D01*
X268833333Y-105367380D02*
X268785714Y-105843571D01*
X268785714Y-105843571D02*
X268833333Y-105795952D01*
X268833333Y-105795952D02*
X268928571Y-105748333D01*
X268928571Y-105748333D02*
X269166666Y-105748333D01*
X269166666Y-105748333D02*
X269261904Y-105795952D01*
X269261904Y-105795952D02*
X269309523Y-105843571D01*
X269309523Y-105843571D02*
X269357142Y-105938809D01*
X269357142Y-105938809D02*
X269357142Y-106176904D01*
X269357142Y-106176904D02*
X269309523Y-106272142D01*
X269309523Y-106272142D02*
X269261904Y-106319761D01*
X269261904Y-106319761D02*
X269166666Y-106367380D01*
X269166666Y-106367380D02*
X268928571Y-106367380D01*
X268928571Y-106367380D02*
X268833333Y-106319761D01*
X268833333Y-106319761D02*
X268785714Y-106272142D01*
X269642857Y-105367380D02*
X269976190Y-106367380D01*
X269976190Y-106367380D02*
X270309523Y-105367380D01*
X269238095Y-106915000D02*
X269142857Y-106867380D01*
X269142857Y-106867380D02*
X269000000Y-106867380D01*
X269000000Y-106867380D02*
X268857143Y-106915000D01*
X268857143Y-106915000D02*
X268761905Y-107010238D01*
X268761905Y-107010238D02*
X268714286Y-107105476D01*
X268714286Y-107105476D02*
X268666667Y-107295952D01*
X268666667Y-107295952D02*
X268666667Y-107438809D01*
X268666667Y-107438809D02*
X268714286Y-107629285D01*
X268714286Y-107629285D02*
X268761905Y-107724523D01*
X268761905Y-107724523D02*
X268857143Y-107819761D01*
X268857143Y-107819761D02*
X269000000Y-107867380D01*
X269000000Y-107867380D02*
X269095238Y-107867380D01*
X269095238Y-107867380D02*
X269238095Y-107819761D01*
X269238095Y-107819761D02*
X269285714Y-107772142D01*
X269285714Y-107772142D02*
X269285714Y-107438809D01*
X269285714Y-107438809D02*
X269095238Y-107438809D01*
X269714286Y-107867380D02*
X269714286Y-106867380D01*
X269714286Y-106867380D02*
X270285714Y-107867380D01*
X270285714Y-107867380D02*
X270285714Y-106867380D01*
X270761905Y-107867380D02*
X270761905Y-106867380D01*
X270761905Y-106867380D02*
X271000000Y-106867380D01*
X271000000Y-106867380D02*
X271142857Y-106915000D01*
X271142857Y-106915000D02*
X271238095Y-107010238D01*
X271238095Y-107010238D02*
X271285714Y-107105476D01*
X271285714Y-107105476D02*
X271333333Y-107295952D01*
X271333333Y-107295952D02*
X271333333Y-107438809D01*
X271333333Y-107438809D02*
X271285714Y-107629285D01*
X271285714Y-107629285D02*
X271238095Y-107724523D01*
X271238095Y-107724523D02*
X271142857Y-107819761D01*
X271142857Y-107819761D02*
X271000000Y-107867380D01*
X271000000Y-107867380D02*
X270761905Y-107867380D01*
X268785714Y-104819761D02*
X268928571Y-104867380D01*
X268928571Y-104867380D02*
X269166666Y-104867380D01*
X269166666Y-104867380D02*
X269261904Y-104819761D01*
X269261904Y-104819761D02*
X269309523Y-104772142D01*
X269309523Y-104772142D02*
X269357142Y-104676904D01*
X269357142Y-104676904D02*
X269357142Y-104581666D01*
X269357142Y-104581666D02*
X269309523Y-104486428D01*
X269309523Y-104486428D02*
X269261904Y-104438809D01*
X269261904Y-104438809D02*
X269166666Y-104391190D01*
X269166666Y-104391190D02*
X268976190Y-104343571D01*
X268976190Y-104343571D02*
X268880952Y-104295952D01*
X268880952Y-104295952D02*
X268833333Y-104248333D01*
X268833333Y-104248333D02*
X268785714Y-104153095D01*
X268785714Y-104153095D02*
X268785714Y-104057857D01*
X268785714Y-104057857D02*
X268833333Y-103962619D01*
X268833333Y-103962619D02*
X268880952Y-103915000D01*
X268880952Y-103915000D02*
X268976190Y-103867380D01*
X268976190Y-103867380D02*
X269214285Y-103867380D01*
X269214285Y-103867380D02*
X269357142Y-103915000D01*
X269785714Y-104867380D02*
X269785714Y-103867380D01*
X269785714Y-103867380D02*
X270023809Y-103867380D01*
X270023809Y-103867380D02*
X270166666Y-103915000D01*
X270166666Y-103915000D02*
X270261904Y-104010238D01*
X270261904Y-104010238D02*
X270309523Y-104105476D01*
X270309523Y-104105476D02*
X270357142Y-104295952D01*
X270357142Y-104295952D02*
X270357142Y-104438809D01*
X270357142Y-104438809D02*
X270309523Y-104629285D01*
X270309523Y-104629285D02*
X270261904Y-104724523D01*
X270261904Y-104724523D02*
X270166666Y-104819761D01*
X270166666Y-104819761D02*
X270023809Y-104867380D01*
X270023809Y-104867380D02*
X269785714Y-104867380D01*
X270738095Y-104581666D02*
X271214285Y-104581666D01*
X270642857Y-104867380D02*
X270976190Y-103867380D01*
X270976190Y-103867380D02*
X271309523Y-104867380D01*
%TO.C,U10*%
X69467380Y-113858094D02*
X70276904Y-113858094D01*
X70276904Y-113858094D02*
X70372142Y-113810475D01*
X70372142Y-113810475D02*
X70419761Y-113762856D01*
X70419761Y-113762856D02*
X70467380Y-113667618D01*
X70467380Y-113667618D02*
X70467380Y-113477142D01*
X70467380Y-113477142D02*
X70419761Y-113381904D01*
X70419761Y-113381904D02*
X70372142Y-113334285D01*
X70372142Y-113334285D02*
X70276904Y-113286666D01*
X70276904Y-113286666D02*
X69467380Y-113286666D01*
X70467380Y-112286666D02*
X70467380Y-112858094D01*
X70467380Y-112572380D02*
X69467380Y-112572380D01*
X69467380Y-112572380D02*
X69610238Y-112667618D01*
X69610238Y-112667618D02*
X69705476Y-112762856D01*
X69705476Y-112762856D02*
X69753095Y-112858094D01*
X69467380Y-111667618D02*
X69467380Y-111572380D01*
X69467380Y-111572380D02*
X69515000Y-111477142D01*
X69515000Y-111477142D02*
X69562619Y-111429523D01*
X69562619Y-111429523D02*
X69657857Y-111381904D01*
X69657857Y-111381904D02*
X69848333Y-111334285D01*
X69848333Y-111334285D02*
X70086428Y-111334285D01*
X70086428Y-111334285D02*
X70276904Y-111381904D01*
X70276904Y-111381904D02*
X70372142Y-111429523D01*
X70372142Y-111429523D02*
X70419761Y-111477142D01*
X70419761Y-111477142D02*
X70467380Y-111572380D01*
X70467380Y-111572380D02*
X70467380Y-111667618D01*
X70467380Y-111667618D02*
X70419761Y-111762856D01*
X70419761Y-111762856D02*
X70372142Y-111810475D01*
X70372142Y-111810475D02*
X70276904Y-111858094D01*
X70276904Y-111858094D02*
X70086428Y-111905713D01*
X70086428Y-111905713D02*
X69848333Y-111905713D01*
X69848333Y-111905713D02*
X69657857Y-111858094D01*
X69657857Y-111858094D02*
X69562619Y-111810475D01*
X69562619Y-111810475D02*
X69515000Y-111762856D01*
X69515000Y-111762856D02*
X69467380Y-111667618D01*
D12*
%TO.C,U18*%
X63443250Y-123053000D02*
X63443250Y-105253000D01*
X43114750Y-123043000D02*
X63443250Y-123043000D01*
X42443250Y-122371459D02*
X43114750Y-123043000D01*
X48371250Y-118654500D02*
X41018250Y-118654500D01*
X41019250Y-118650500D02*
X41019250Y-109655500D01*
X41019250Y-109655500D02*
X48371250Y-109655500D01*
X48371250Y-109655500D02*
X48371250Y-118654500D01*
X42443250Y-105243000D02*
X42443250Y-122371459D01*
X63443250Y-105243000D02*
X42443250Y-105243000D01*
D13*
%TO.C,BT1*%
X34565000Y-102974000D02*
X37165000Y-105574000D01*
X32915000Y-102974000D02*
X34565000Y-102974000D01*
X29315000Y-102974000D02*
X27015000Y-102974000D01*
X37965000Y-105574000D02*
X37965000Y-113874000D01*
X37165000Y-105574000D02*
X37965000Y-105574000D01*
X37965000Y-113874000D02*
X37165000Y-113874000D01*
X37165000Y-113874000D02*
X34565000Y-116474000D01*
X34565000Y-116474000D02*
X32915000Y-116474000D01*
X29315000Y-116474000D02*
X27015000Y-116474000D01*
X27015000Y-102974001D02*
G75*
G03*
X25515001Y-104424000I-859J-1499973D01*
G01*
X25530841Y-104309385D02*
G75*
G03*
X25915000Y-105223999I984160J-124615D01*
G01*
X25915000Y-114224000D02*
G75*
G03*
X25515000Y-115024000I612200J-806100D01*
G01*
X25514993Y-115024000D02*
G75*
G03*
X27015000Y-116474000I1499137J49970D01*
G01*
%TO.C,R2*%
X255805000Y-112294936D02*
X255805000Y-112749064D01*
X257275000Y-112294936D02*
X257275000Y-112749064D01*
%TO.C,R1*%
X257275000Y-119480064D02*
X257275000Y-119025936D01*
X255805000Y-119480064D02*
X255805000Y-119025936D01*
%TO.C,R4*%
X36857000Y-117247936D02*
X36857000Y-117702064D01*
X38327000Y-117247936D02*
X38327000Y-117702064D01*
%TO.C,R3*%
X32231000Y-120676936D02*
X32231000Y-121131064D01*
X30761000Y-120676936D02*
X30761000Y-121131064D01*
%TO.C,Q2*%
X40041000Y-122682000D02*
X40041000Y-123332000D01*
X36921000Y-122682000D02*
X36921000Y-123332000D01*
X40041000Y-122682000D02*
X40041000Y-121007000D01*
X36921000Y-122682000D02*
X36921000Y-122032000D01*
%TO.C,Q1*%
X36231000Y-122506500D02*
X36231000Y-123156500D01*
X33111000Y-122506500D02*
X33111000Y-123156500D01*
X36231000Y-122506500D02*
X36231000Y-120831500D01*
X33111000Y-122506500D02*
X33111000Y-121856500D01*
%TO.C,C10*%
X225761252Y-107355000D02*
X225238748Y-107355000D01*
X225761252Y-105885000D02*
X225238748Y-105885000D01*
%TO.C,U13*%
X203940000Y-115480000D02*
X204185000Y-115480000D01*
X204185000Y-115480000D02*
X204185000Y-117295000D01*
X222060000Y-115480000D02*
X221815000Y-115480000D01*
X203940000Y-111620000D02*
X203940000Y-115480000D01*
X203940000Y-111620000D02*
X203940000Y-107760000D01*
X222060000Y-111620000D02*
X222060000Y-115480000D01*
X222060000Y-111620000D02*
X222060000Y-107760000D01*
X203940000Y-107760000D02*
X204185000Y-107760000D01*
X222060000Y-107760000D02*
X221815000Y-107760000D01*
%TO.C,U15*%
X175970000Y-114460000D02*
X196410000Y-114460000D01*
X196410000Y-114460000D02*
X196410000Y-109160000D01*
X175970000Y-112810000D02*
X175970000Y-114460000D01*
X175970000Y-109160000D02*
X175970000Y-110810000D01*
X196410000Y-109160000D02*
X175970000Y-109160000D01*
X175970000Y-112810000D02*
G75*
G03*
X175970000Y-110810000I0J1000000D01*
G01*
%TO.C,J3*%
X245395000Y-121330000D02*
X245395000Y-120000000D01*
X246725000Y-121330000D02*
X245395000Y-121330000D01*
X247995000Y-121330000D02*
X250595000Y-121330000D01*
X247995000Y-121330000D02*
X247995000Y-118670000D01*
X250595000Y-121330000D02*
X250595000Y-118670000D01*
X247995000Y-118670000D02*
X250595000Y-118670000D01*
D11*
%TO.C,U9*%
X70115980Y-102289707D02*
X38595980Y-102329707D01*
X69940000Y-71715000D02*
X38280000Y-71565000D01*
X69060000Y-102334600D02*
G75*
G03*
X69010000Y-71695122I-109998J15319600D01*
G01*
X38839855Y-71615000D02*
G75*
G03*
X39219829Y-102281829I560145J-15328828D01*
G01*
D13*
%TO.C,C1*%
X69738748Y-119385000D02*
X70261252Y-119385000D01*
X69738748Y-120855000D02*
X70261252Y-120855000D01*
%TO.C,J2*%
X263715000Y-116610000D02*
X263715000Y-115560000D01*
X266215000Y-116610000D02*
X263715000Y-116610000D01*
X263715000Y-115560000D02*
X262725000Y-115560000D01*
X268185000Y-115440000D02*
X268185000Y-111560000D01*
X263715000Y-110390000D02*
X263715000Y-111440000D01*
X266215000Y-110390000D02*
X263715000Y-110390000D01*
%TO.C,A1*%
X168340000Y-104980000D02*
X165670000Y-104980000D01*
X163130000Y-104980000D02*
X124900000Y-104980000D01*
X124900000Y-104980000D02*
X124900000Y-110060000D01*
X165670000Y-107650000D02*
X165670000Y-104980000D01*
X163130000Y-107650000D02*
X163130000Y-104980000D01*
X163130000Y-107650000D02*
X165670000Y-107650000D01*
X163130000Y-107650000D02*
X127570000Y-107650000D01*
X127570000Y-107650000D02*
X127570000Y-104980000D01*
X132780000Y-110060000D02*
X132780000Y-117940000D01*
X122360000Y-110060000D02*
X132780000Y-110060000D01*
X132780000Y-117940000D02*
X122360000Y-117940000D01*
X122360000Y-117940000D02*
X122360000Y-110060000D01*
X165670000Y-120350000D02*
X127570000Y-120350000D01*
X165670000Y-120350000D02*
X165670000Y-123020000D01*
X127570000Y-120350000D02*
X127570000Y-123020000D01*
X168340000Y-123020000D02*
X168340000Y-104980000D01*
X124900000Y-123020000D02*
X124900000Y-117940000D01*
X124900000Y-123020000D02*
X168340000Y-123020000D01*
%TO.C,U16*%
X49223000Y-118033000D02*
X49478000Y-118033000D01*
X59743000Y-118033000D02*
X59488000Y-118033000D01*
X49223000Y-114173000D02*
X49223000Y-118033000D01*
X49223000Y-114173000D02*
X49223000Y-110313000D01*
X59743000Y-114173000D02*
X59743000Y-118033000D01*
X59743000Y-114173000D02*
X59743000Y-110313000D01*
X49223000Y-110313000D02*
X49478000Y-110313000D01*
X59488000Y-110313000D02*
X59488000Y-108498000D01*
X59743000Y-110313000D02*
X59488000Y-110313000D01*
%TO.C,C2*%
X92261252Y-107855000D02*
X91738748Y-107855000D01*
X92261252Y-106385000D02*
X91738748Y-106385000D01*
%TO.C,C9*%
X202738748Y-118385000D02*
X203261252Y-118385000D01*
X202738748Y-119855000D02*
X203261252Y-119855000D01*
D11*
%TO.C,U11*%
X132115980Y-102289707D02*
X100595980Y-102329707D01*
X131940000Y-71715000D02*
X100280000Y-71565000D01*
X131060000Y-102334600D02*
G75*
G03*
X131010000Y-71695122I-109998J15319600D01*
G01*
X100839855Y-71615000D02*
G75*
G03*
X101219829Y-102281829I560145J-15328828D01*
G01*
%TO.C,U14*%
X256115980Y-102289707D02*
X224595980Y-102329707D01*
X255940000Y-71715000D02*
X224280000Y-71565000D01*
X255060000Y-102334600D02*
G75*
G03*
X255010000Y-71695122I-109998J15319600D01*
G01*
X224839855Y-71615000D02*
G75*
G03*
X225219829Y-102281829I560145J-15328828D01*
G01*
%TO.C,U12*%
X194115980Y-102289707D02*
X162595980Y-102329707D01*
X193940000Y-71715000D02*
X162280000Y-71565000D01*
X193060000Y-102334600D02*
G75*
G03*
X193010000Y-71695122I-109998J15319600D01*
G01*
X162839855Y-71615000D02*
G75*
G03*
X163219829Y-102281829I560145J-15328828D01*
G01*
D13*
%TO.C,C13*%
X62766752Y-109955000D02*
X62244248Y-109955000D01*
X62766752Y-108485000D02*
X62244248Y-108485000D01*
%TO.C,J1*%
X263715000Y-108110000D02*
X263715000Y-107060000D01*
X266215000Y-108110000D02*
X263715000Y-108110000D01*
X263715000Y-107060000D02*
X262725000Y-107060000D01*
X268185000Y-106940000D02*
X268185000Y-103060000D01*
X263715000Y-101890000D02*
X263715000Y-102940000D01*
X266215000Y-101890000D02*
X263715000Y-101890000D01*
%TO.C,U10*%
X70940000Y-116480000D02*
X71185000Y-116480000D01*
X71185000Y-116480000D02*
X71185000Y-118295000D01*
X89060000Y-116480000D02*
X88815000Y-116480000D01*
X70940000Y-112620000D02*
X70940000Y-116480000D01*
X70940000Y-112620000D02*
X70940000Y-108760000D01*
X89060000Y-112620000D02*
X89060000Y-116480000D01*
X89060000Y-112620000D02*
X89060000Y-108760000D01*
X70940000Y-108760000D02*
X71185000Y-108760000D01*
X89060000Y-108760000D02*
X88815000Y-108760000D01*
%TD*%
M02*
