%TF.GenerationSoftware,KiCad,Pcbnew,(7.0.0-0)*%
%TF.CreationDate,2023-03-24T13:01:53+01:00*%
%TF.ProjectId,klock_pcb,6b6c6f63-6b5f-4706-9362-2e6b69636164,rev?*%
%TF.SameCoordinates,Original*%
%TF.FileFunction,Paste,Top*%
%TF.FilePolarity,Positive*%
%FSLAX46Y46*%
G04 Gerber Fmt 4.6, Leading zero omitted, Abs format (unit mm)*
G04 Created by KiCad (PCBNEW (7.0.0-0)) date 2023-03-24 13:01:53*
%MOMM*%
%LPD*%
G01*
G04 APERTURE LIST*
G04 Aperture macros list*
%AMRoundRect*
0 Rectangle with rounded corners*
0 $1 Rounding radius*
0 $2 $3 $4 $5 $6 $7 $8 $9 X,Y pos of 4 corners*
0 Add a 4 corners polygon primitive as box body*
4,1,4,$2,$3,$4,$5,$6,$7,$8,$9,$2,$3,0*
0 Add four circle primitives for the rounded corners*
1,1,$1+$1,$2,$3*
1,1,$1+$1,$4,$5*
1,1,$1+$1,$6,$7*
1,1,$1+$1,$8,$9*
0 Add four rect primitives between the rounded corners*
20,1,$1+$1,$2,$3,$4,$5,0*
20,1,$1+$1,$4,$5,$6,$7,0*
20,1,$1+$1,$6,$7,$8,$9,0*
20,1,$1+$1,$8,$9,$2,$3,0*%
G04 Aperture macros list end*
%ADD10RoundRect,0.250000X-0.450000X0.350000X-0.450000X-0.350000X0.450000X-0.350000X0.450000X0.350000X0*%
%ADD11RoundRect,0.250000X0.450000X-0.350000X0.450000X0.350000X-0.450000X0.350000X-0.450000X-0.350000X0*%
%ADD12RoundRect,0.150000X-0.150000X0.587500X-0.150000X-0.587500X0.150000X-0.587500X0.150000X0.587500X0*%
%ADD13RoundRect,0.250000X0.337500X0.475000X-0.337500X0.475000X-0.337500X-0.475000X0.337500X-0.475000X0*%
%ADD14RoundRect,0.150000X0.150000X-0.875000X0.150000X0.875000X-0.150000X0.875000X-0.150000X-0.875000X0*%
%ADD15RoundRect,0.250000X-0.337500X-0.475000X0.337500X-0.475000X0.337500X0.475000X-0.337500X0.475000X0*%
%ADD16RoundRect,0.150000X0.625000X-0.150000X0.625000X0.150000X-0.625000X0.150000X-0.625000X-0.150000X0*%
%ADD17RoundRect,0.250000X0.650000X-0.350000X0.650000X0.350000X-0.650000X0.350000X-0.650000X-0.350000X0*%
%ADD18RoundRect,0.150000X-0.150000X0.875000X-0.150000X-0.875000X0.150000X-0.875000X0.150000X0.875000X0*%
G04 APERTURE END LIST*
D10*
%TO.C,R2*%
X256540000Y-113522000D03*
X256540000Y-111522000D03*
%TD*%
D11*
%TO.C,R1*%
X256540000Y-118253000D03*
X256540000Y-120253000D03*
%TD*%
D10*
%TO.C,R4*%
X37592000Y-118475000D03*
X37592000Y-116475000D03*
%TD*%
%TO.C,R3*%
X31496000Y-119904000D03*
X31496000Y-121904000D03*
%TD*%
D12*
%TO.C,Q2*%
X39431000Y-121744500D03*
X37531000Y-121744500D03*
X38481000Y-123619500D03*
%TD*%
%TO.C,Q1*%
X35621000Y-121569000D03*
X33721000Y-121569000D03*
X34671000Y-123444000D03*
%TD*%
D13*
%TO.C,C10*%
X226537500Y-106620000D03*
X224462500Y-106620000D03*
%TD*%
D14*
%TO.C,U13*%
X204745000Y-116270000D03*
X206015000Y-116270000D03*
X207285000Y-116270000D03*
X208555000Y-116270000D03*
X209825000Y-116270000D03*
X211095000Y-116270000D03*
X212365000Y-116270000D03*
X213635000Y-116270000D03*
X214905000Y-116270000D03*
X216175000Y-116270000D03*
X217445000Y-116270000D03*
X218715000Y-116270000D03*
X219985000Y-116270000D03*
X221255000Y-116270000D03*
X221255000Y-106970000D03*
X219985000Y-106970000D03*
X218715000Y-106970000D03*
X217445000Y-106970000D03*
X216175000Y-106970000D03*
X214905000Y-106970000D03*
X213635000Y-106970000D03*
X212365000Y-106970000D03*
X211095000Y-106970000D03*
X209825000Y-106970000D03*
X208555000Y-106970000D03*
X207285000Y-106970000D03*
X206015000Y-106970000D03*
X204745000Y-106970000D03*
%TD*%
D15*
%TO.C,C1*%
X68962500Y-120120000D03*
X71037500Y-120120000D03*
%TD*%
D16*
%TO.C,J2*%
X263500000Y-115000000D03*
X263500000Y-114000000D03*
X263500000Y-113000000D03*
X263500000Y-112000000D03*
D17*
X267375000Y-116300000D03*
X267375000Y-110700000D03*
%TD*%
D18*
%TO.C,U16*%
X58928000Y-118823000D03*
X57658000Y-118823000D03*
X56388000Y-118823000D03*
X55118000Y-118823000D03*
X53848000Y-118823000D03*
X52578000Y-118823000D03*
X51308000Y-118823000D03*
X50038000Y-118823000D03*
X50038000Y-109523000D03*
X51308000Y-109523000D03*
X52578000Y-109523000D03*
X53848000Y-109523000D03*
X55118000Y-109523000D03*
X56388000Y-109523000D03*
X57658000Y-109523000D03*
X58928000Y-109523000D03*
%TD*%
D13*
%TO.C,C2*%
X93037500Y-107120000D03*
X90962500Y-107120000D03*
%TD*%
D15*
%TO.C,C9*%
X201962500Y-119120000D03*
X204037500Y-119120000D03*
%TD*%
D13*
%TO.C,C13*%
X63543000Y-109220000D03*
X61468000Y-109220000D03*
%TD*%
D16*
%TO.C,J1*%
X263500000Y-106500000D03*
X263500000Y-105500000D03*
X263500000Y-104500000D03*
X263500000Y-103500000D03*
D17*
X267375000Y-107800000D03*
X267375000Y-102200000D03*
%TD*%
D14*
%TO.C,U10*%
X71745000Y-117270000D03*
X73015000Y-117270000D03*
X74285000Y-117270000D03*
X75555000Y-117270000D03*
X76825000Y-117270000D03*
X78095000Y-117270000D03*
X79365000Y-117270000D03*
X80635000Y-117270000D03*
X81905000Y-117270000D03*
X83175000Y-117270000D03*
X84445000Y-117270000D03*
X85715000Y-117270000D03*
X86985000Y-117270000D03*
X88255000Y-117270000D03*
X88255000Y-107970000D03*
X86985000Y-107970000D03*
X85715000Y-107970000D03*
X84445000Y-107970000D03*
X83175000Y-107970000D03*
X81905000Y-107970000D03*
X80635000Y-107970000D03*
X79365000Y-107970000D03*
X78095000Y-107970000D03*
X76825000Y-107970000D03*
X75555000Y-107970000D03*
X74285000Y-107970000D03*
X73015000Y-107970000D03*
X71745000Y-107970000D03*
%TD*%
M02*
