M48
; DRILL file {KiCad (7.0.0-0)} date Friday, 24 March 2023 at 13:01:56
; FORMAT={-:-/ absolute / inch / decimal}
; #@! TF.CreationDate,2023-03-24T13:01:56+01:00
; #@! TF.GenerationSoftware,Kicad,Pcbnew,(7.0.0-0)
; #@! TF.FileFunction,NonPlated,1,2,NPTH
FMAT,2
INCH
; #@! TA.AperFunction,NonPlated,NPTH,ComponentDrill
T1C0.1181
; #@! TA.AperFunction,NonPlated,NPTH,ComponentDrill
T2C0.1378
; #@! TA.AperFunction,NonPlated,NPTH,ComponentDrill
T3C0.2362
%
G90
G05
T1
X1.5354Y-2.8943
X1.5354Y-3.9573
X2.7559Y-2.8943
X2.7559Y-3.9573
X3.9764Y-2.8943
X3.9764Y-3.9573
X5.1969Y-2.8943
X5.1969Y-3.9573
X6.4173Y-2.8943
X6.4173Y-3.9573
X7.6378Y-2.8943
X7.6378Y-3.9573
X8.8583Y-2.8943
X8.8583Y-3.9573
X10.0787Y-2.8943
X10.0787Y-3.9573
T2
X1.161Y-3.7628
X2.1453Y-2.936
X3.1295Y-3.7628
X3.602Y-3.7628
X4.5862Y-2.936
X5.5705Y-3.7628
X6.0429Y-3.7628
X7.0272Y-2.936
X8.0114Y-3.7628
X8.4839Y-3.7628
X9.4681Y-2.936
X10.4524Y-3.7628
T3
X2.5197Y-3.4085
X4.9606Y-3.4085
X7.4016Y-3.4085
X9.8425Y-3.4085
T0
M30
