%TF.GenerationSoftware,KiCad,Pcbnew,(7.0.0-0)*%
%TF.CreationDate,2023-03-24T13:01:54+01:00*%
%TF.ProjectId,klock_pcb,6b6c6f63-6b5f-4706-9362-2e6b69636164,rev?*%
%TF.SameCoordinates,Original*%
%TF.FileFunction,Soldermask,Top*%
%TF.FilePolarity,Negative*%
%FSLAX46Y46*%
G04 Gerber Fmt 4.6, Leading zero omitted, Abs format (unit mm)*
G04 Created by KiCad (PCBNEW (7.0.0-0)) date 2023-03-24 13:01:54*
%MOMM*%
%LPD*%
G01*
G04 APERTURE LIST*
G04 Aperture macros list*
%AMRoundRect*
0 Rectangle with rounded corners*
0 $1 Rounding radius*
0 $2 $3 $4 $5 $6 $7 $8 $9 X,Y pos of 4 corners*
0 Add a 4 corners polygon primitive as box body*
4,1,4,$2,$3,$4,$5,$6,$7,$8,$9,$2,$3,0*
0 Add four circle primitives for the rounded corners*
1,1,$1+$1,$2,$3*
1,1,$1+$1,$4,$5*
1,1,$1+$1,$6,$7*
1,1,$1+$1,$8,$9*
0 Add four rect primitives between the rounded corners*
20,1,$1+$1,$2,$3,$4,$5,0*
20,1,$1+$1,$4,$5,$6,$7,0*
20,1,$1+$1,$6,$7,$8,$9,0*
20,1,$1+$1,$8,$9,$2,$3,0*%
G04 Aperture macros list end*
%ADD10O,1.600000X2.000000*%
%ADD11RoundRect,0.800000X0.000000X-0.200000X0.000000X0.200000X0.000000X0.200000X0.000000X-0.200000X0*%
%ADD12C,3.000000*%
%ADD13C,9.000000*%
%ADD14RoundRect,0.250000X-0.450000X0.350000X-0.450000X-0.350000X0.450000X-0.350000X0.450000X0.350000X0*%
%ADD15RoundRect,0.250000X0.450000X-0.350000X0.450000X0.350000X-0.450000X0.350000X-0.450000X-0.350000X0*%
%ADD16RoundRect,0.150000X-0.150000X0.587500X-0.150000X-0.587500X0.150000X-0.587500X0.150000X0.587500X0*%
%ADD17C,6.400000*%
%ADD18RoundRect,0.250000X0.337500X0.475000X-0.337500X0.475000X-0.337500X-0.475000X0.337500X-0.475000X0*%
%ADD19RoundRect,0.150000X0.150000X-0.875000X0.150000X0.875000X-0.150000X0.875000X-0.150000X-0.875000X0*%
%ADD20R,1.600000X1.600000*%
%ADD21O,1.600000X1.600000*%
%ADD22R,1.700000X1.700000*%
%ADD23O,1.700000X1.700000*%
%ADD24C,3.500000*%
%ADD25C,6.000000*%
%ADD26C,2.000000*%
%ADD27RoundRect,0.250000X-0.337500X-0.475000X0.337500X-0.475000X0.337500X0.475000X-0.337500X0.475000X0*%
%ADD28RoundRect,0.150000X0.625000X-0.150000X0.625000X0.150000X-0.625000X0.150000X-0.625000X-0.150000X0*%
%ADD29RoundRect,0.250000X0.650000X-0.350000X0.650000X0.350000X-0.650000X0.350000X-0.650000X-0.350000X0*%
%ADD30RoundRect,0.150000X-0.150000X0.875000X-0.150000X-0.875000X0.150000X-0.875000X0.150000X0.875000X0*%
G04 APERTURE END LIST*
D10*
%TO.C,U18*%
X45323249Y-121772999D03*
D11*
X47863250Y-121773000D03*
X50403250Y-121773000D03*
X52943250Y-121773000D03*
X55483250Y-121773000D03*
X58023250Y-121773000D03*
X60563250Y-121773000D03*
X60563250Y-106533000D03*
X58023250Y-106533000D03*
X55483250Y-106533000D03*
X52943250Y-106533000D03*
X50403250Y-106533000D03*
X47863250Y-106533000D03*
X45323250Y-106533000D03*
%TD*%
D12*
%TO.C,BT1*%
X31115000Y-103124000D03*
X31115000Y-116324000D03*
D13*
X31115000Y-109724000D03*
%TD*%
D14*
%TO.C,R2*%
X256540000Y-113522000D03*
X256540000Y-111522000D03*
%TD*%
D15*
%TO.C,R1*%
X256540000Y-118253000D03*
X256540000Y-120253000D03*
%TD*%
D14*
%TO.C,R4*%
X37592000Y-118475000D03*
X37592000Y-116475000D03*
%TD*%
%TO.C,R3*%
X31496000Y-119904000D03*
X31496000Y-121904000D03*
%TD*%
D16*
%TO.C,Q2*%
X39431000Y-121744500D03*
X37531000Y-121744500D03*
X38481000Y-123619500D03*
%TD*%
%TO.C,Q1*%
X35621000Y-121569000D03*
X33721000Y-121569000D03*
X34671000Y-123444000D03*
%TD*%
D17*
%TO.C,H3*%
X268065000Y-73175000D03*
%TD*%
%TO.C,H4*%
X268065000Y-121175000D03*
%TD*%
D18*
%TO.C,C10*%
X226537500Y-106620000D03*
X224462500Y-106620000D03*
%TD*%
D19*
%TO.C,U13*%
X204745000Y-116270000D03*
X206015000Y-116270000D03*
X207285000Y-116270000D03*
X208555000Y-116270000D03*
X209825000Y-116270000D03*
X211095000Y-116270000D03*
X212365000Y-116270000D03*
X213635000Y-116270000D03*
X214905000Y-116270000D03*
X216175000Y-116270000D03*
X217445000Y-116270000D03*
X218715000Y-116270000D03*
X219985000Y-116270000D03*
X221255000Y-116270000D03*
X221255000Y-106970000D03*
X219985000Y-106970000D03*
X218715000Y-106970000D03*
X217445000Y-106970000D03*
X216175000Y-106970000D03*
X214905000Y-106970000D03*
X213635000Y-106970000D03*
X212365000Y-106970000D03*
X211095000Y-106970000D03*
X209825000Y-106970000D03*
X208555000Y-106970000D03*
X207285000Y-106970000D03*
X206015000Y-106970000D03*
X204745000Y-106970000D03*
%TD*%
D20*
%TO.C,U15*%
X177299999Y-115619999D03*
D21*
X179839999Y-115619999D03*
X182379999Y-115619999D03*
X184919999Y-115619999D03*
X187459999Y-115619999D03*
X189999999Y-115619999D03*
X192539999Y-115619999D03*
X195079999Y-115619999D03*
X195079999Y-107999999D03*
X192539999Y-107999999D03*
X189999999Y-107999999D03*
X187459999Y-107999999D03*
X184919999Y-107999999D03*
X182379999Y-107999999D03*
X179839999Y-107999999D03*
X177299999Y-107999999D03*
%TD*%
D22*
%TO.C,J3*%
X246724999Y-119999999D03*
D23*
X249264999Y-119999999D03*
%TD*%
D24*
%TO.C,U9*%
X79490000Y-95575000D03*
D12*
X70000000Y-100515000D03*
X70000000Y-73515000D03*
D25*
X64000000Y-86575000D03*
D24*
X54490000Y-74575000D03*
D12*
X39000000Y-100515000D03*
X39000000Y-73515000D03*
D24*
X29490000Y-95575000D03*
D26*
X35000000Y-98515000D03*
X43000000Y-98515000D03*
X66000000Y-98515000D03*
X74000000Y-98515000D03*
X74000000Y-75515000D03*
X66000000Y-75515000D03*
X43000000Y-75515000D03*
X35000000Y-75515000D03*
%TD*%
D27*
%TO.C,C1*%
X68962500Y-120120000D03*
X71037500Y-120120000D03*
%TD*%
D28*
%TO.C,J2*%
X263500000Y-115000000D03*
X263500000Y-114000000D03*
X263500000Y-113000000D03*
X263500000Y-112000000D03*
D29*
X267375000Y-116300000D03*
X267375000Y-110700000D03*
%TD*%
D20*
%TO.C,A1*%
X164399999Y-106379999D03*
D21*
X161859999Y-106379999D03*
X159319999Y-106379999D03*
X156779999Y-106379999D03*
X154239999Y-106379999D03*
X151699999Y-106379999D03*
X149159999Y-106379999D03*
X146619999Y-106379999D03*
X144079999Y-106379999D03*
X141539999Y-106379999D03*
X138999999Y-106379999D03*
X136459999Y-106379999D03*
X133919999Y-106379999D03*
X131379999Y-106379999D03*
X128839999Y-106379999D03*
X128839999Y-121619999D03*
X131379999Y-121619999D03*
X133919999Y-121619999D03*
X136459999Y-121619999D03*
X138999999Y-121619999D03*
X141539999Y-121619999D03*
X144079999Y-121619999D03*
X146619999Y-121619999D03*
X149159999Y-121619999D03*
X151699999Y-121619999D03*
X154239999Y-121619999D03*
X156779999Y-121619999D03*
X159319999Y-121619999D03*
X161859999Y-121619999D03*
X164399999Y-121619999D03*
%TD*%
D30*
%TO.C,U16*%
X58928000Y-118823000D03*
X57658000Y-118823000D03*
X56388000Y-118823000D03*
X55118000Y-118823000D03*
X53848000Y-118823000D03*
X52578000Y-118823000D03*
X51308000Y-118823000D03*
X50038000Y-118823000D03*
X50038000Y-109523000D03*
X51308000Y-109523000D03*
X52578000Y-109523000D03*
X53848000Y-109523000D03*
X55118000Y-109523000D03*
X56388000Y-109523000D03*
X57658000Y-109523000D03*
X58928000Y-109523000D03*
%TD*%
D18*
%TO.C,C2*%
X93037500Y-107120000D03*
X90962500Y-107120000D03*
%TD*%
D27*
%TO.C,C9*%
X201962500Y-119120000D03*
X204037500Y-119120000D03*
%TD*%
D24*
%TO.C,U11*%
X141490000Y-95575000D03*
D12*
X132000000Y-100515000D03*
X132000000Y-73515000D03*
D25*
X126000000Y-86575000D03*
D24*
X116490000Y-74575000D03*
D12*
X101000000Y-100515000D03*
X101000000Y-73515000D03*
D24*
X91490000Y-95575000D03*
D26*
X97000000Y-98515000D03*
X105000000Y-98515000D03*
X128000000Y-98515000D03*
X136000000Y-98515000D03*
X136000000Y-75515000D03*
X128000000Y-75515000D03*
X105000000Y-75515000D03*
X97000000Y-75515000D03*
%TD*%
D17*
%TO.C,H2*%
X26065000Y-121175000D03*
%TD*%
D24*
%TO.C,U14*%
X265490000Y-95575000D03*
D12*
X256000000Y-100515000D03*
X256000000Y-73515000D03*
D25*
X250000000Y-86575000D03*
D24*
X240490000Y-74575000D03*
D12*
X225000000Y-100515000D03*
X225000000Y-73515000D03*
D24*
X215490000Y-95575000D03*
D26*
X221000000Y-98515000D03*
X229000000Y-98515000D03*
X252000000Y-98515000D03*
X260000000Y-98515000D03*
X260000000Y-75515000D03*
X252000000Y-75515000D03*
X229000000Y-75515000D03*
X221000000Y-75515000D03*
%TD*%
D17*
%TO.C,H1*%
X26065000Y-73175000D03*
%TD*%
D24*
%TO.C,U12*%
X203490000Y-95575000D03*
D12*
X194000000Y-100515000D03*
X194000000Y-73515000D03*
D25*
X188000000Y-86575000D03*
D24*
X178490000Y-74575000D03*
D12*
X163000000Y-100515000D03*
X163000000Y-73515000D03*
D24*
X153490000Y-95575000D03*
D26*
X159000000Y-98515000D03*
X167000000Y-98515000D03*
X190000000Y-98515000D03*
X198000000Y-98515000D03*
X198000000Y-75515000D03*
X190000000Y-75515000D03*
X167000000Y-75515000D03*
X159000000Y-75515000D03*
%TD*%
D18*
%TO.C,C13*%
X63543000Y-109220000D03*
X61468000Y-109220000D03*
%TD*%
D28*
%TO.C,J1*%
X263500000Y-106500000D03*
X263500000Y-105500000D03*
X263500000Y-104500000D03*
X263500000Y-103500000D03*
D29*
X267375000Y-107800000D03*
X267375000Y-102200000D03*
%TD*%
D19*
%TO.C,U10*%
X71745000Y-117270000D03*
X73015000Y-117270000D03*
X74285000Y-117270000D03*
X75555000Y-117270000D03*
X76825000Y-117270000D03*
X78095000Y-117270000D03*
X79365000Y-117270000D03*
X80635000Y-117270000D03*
X81905000Y-117270000D03*
X83175000Y-117270000D03*
X84445000Y-117270000D03*
X85715000Y-117270000D03*
X86985000Y-117270000D03*
X88255000Y-117270000D03*
X88255000Y-107970000D03*
X86985000Y-107970000D03*
X85715000Y-107970000D03*
X84445000Y-107970000D03*
X83175000Y-107970000D03*
X81905000Y-107970000D03*
X80635000Y-107970000D03*
X79365000Y-107970000D03*
X78095000Y-107970000D03*
X76825000Y-107970000D03*
X75555000Y-107970000D03*
X74285000Y-107970000D03*
X73015000Y-107970000D03*
X71745000Y-107970000D03*
%TD*%
M02*
